<?xml version="1.0" standalone="no"?>
<!DOCTYPE svg PUBLIC "-//W3C//DTD SVG 1.1//EN" "http://www.w3.org/Graphics/SVG/1.1/DTD/svg11.dtd" >
<svg>
<metadata>
Created by FontForge 20110222 at Tue Jan 20 13:27:30 2015
 By deploy user
Copyright (c) 1998-2012 by Peter S. Baker
</metadata>
<defs>
<font id="Junicode" horiz-adv-x="0" >
  <font-face 
    font-family="Junicode"
    font-weight="400"
    font-stretch="normal"
    units-per-em="2048"
    panose-1="2 4 5 2 0 0 0 0 0 0"
    ascent="1638"
    descent="-410"
    x-height="856"
    cap-height="1363"
    bbox="-1333 -946 3152 2073"
    underline-thickness="70"
    underline-position="-100"
    unicode-range="U+000D-1034A"
  />
<missing-glyph horiz-adv-x="1024" 
d="M354 1194q292 0 292 -199q0 -89 -116 -151l-106 -56q-114 -62 -114 -151q0 -75 76 -211q8 -8 22 -7q22 4 22 19q-20 69 -20 125q0 49 74 90l166 88q82 43 82 189q-2 160 -118 301q-114 131 -244 131q-84 0 -84 -82q0 -86 68 -86zM534 86q0 39 -20 71q-36 56 -100 56
q-38 0 -68 -21q-50 -37 -50 -106q0 -37 22 -68q36 -49 96 -49q36 0 66 17q54 33 54 100zM68 -132v1640h864v-1640h-864z" />
    <glyph glyph-name="IJ" unicode="IJ" horiz-adv-x="1501" 
d="M62 0zM265 186v986q0 115 -189 115q-14 0 -14 38t14 38q44 -5 264 -5t265 5q13 0 13 -38t-13 -38q-105 0 -142.5 -25t-37.5 -90v-986q0 -117 180 -117q13 0 13 -38t-13 -38q-86 7 -259 7t-259 -7q-13 0 -13 38t13 38q178 0 178 117zM1026 260v912q0 115 -190 115
q-14 0 -14 38t14 38q47 -5 265 -5t277 5q14 0 14 -38t-14 -38q-192 0 -192 -115v-538q0 -716 -71 -817.5t-155 -168.5t-193 -67q-54 0 -92 30.5t-38 90.5q0 31 29.5 56.5t76.5 25.5q60 0 101 -34t50 -67q70 24 101 114t31 463z" />
    <glyph glyph-name="ij" unicode="ij" horiz-adv-x="1061" 
d="M74 0zM467 -8q-76 8 -187 8t-192 -8q-14 0 -14 28.5t14 28.5q113 0 113 78v444q0 138 -92 138q-17 0 -17 28t17 28q33 0 97.5 34t97.5 59t44 25q12 0 12 -16q-6 -108 -6 -166v-574q0 -78 113 -78q14 0 14 -28.5t-14 -28.5zM333 1232.5q32 -30.5 32 -75.5t-32 -77t-77 -32
t-75.5 32t-30.5 77t30.5 75.5t75.5 30.5t77 -30.5zM907 1157q0 -45 -32 -77t-77 -32t-75.5 32t-30.5 77t30.5 75.5t75.5 30.5t77 -30.5t32 -75.5zM900 59q0 -329 -110 -483q-93 -131 -248 -131q-50 0 -87.5 28t-37.5 68q0 32 24.5 51t53.5 19q49 0 88.5 -39t64.5 -39
q99 0 99 213v825q0 138 -92 138q-17 0 -17 28t17 28q33 0 97.5 34t97.5 59t44 25q12 0 12 -16q-6 -108 -6 -166v-642z" />
    <glyph glyph-name="uni01C4" unicode="D&#x17d;" horiz-adv-x="2766" 
d="M68 0zM2495 1795l-260 -249q-23 -22 -44 -22q-22 0 -44 22l-260 249q-4 4 -4 10t8 14.5t17 8.5q4 0 8 -2l241 -139q16 -9 34 -9q17 0 34 9l246 139q2 1 5 1q8 0 15.5 -9t7 -14.5t-3.5 -8.5zM2786 336q-48 -236 -48 -353q0 -13 -15 -16q-35 10 -55 12q-187 21 -660 21
h-365q-35 0 -35 24q0 13 10 27l875 1198q9 12 9 21q0 21 -31 21h-554q-55 0 -77 -30q-72 -92 -96.5 -154.5t-43.5 -129.5q-2 -7 -24 -7t-25 14q33 213 33 363q0 18 37 18q97 -9 147 -9h481q152 0 368 8q25 0 25 -14t-14 -32l-863 -1200q-9 -12 -9 -24q0 -25 30 -25
q435 0 640 13q80 5 163 163q39 74 47 107q3 12 26.5 3.5t23.5 -19.5zM271 186v986q0 110 -189 110q-14 0 -14 38t14 38q140 -6 240 -6t209 3t172 3q311 0 520 -167t209 -463q0 -322 -183.5 -528.5t-497.5 -206.5q-48 0 -194.5 3.5t-244.5 3.5t-221 -7q-13 0 -13 37.5
t13 38.5q180 0 180 117zM431 298q0 -149 60 -197t191 -48q256 0 407.5 181t151.5 482q0 252 -177 416.5t-443 164.5q-95 0 -125.5 -8.5t-47.5 -36t-17 -71.5v-883z" />
    <glyph glyph-name="uni01C5" unicode="D&#x17e;" horiz-adv-x="2260" 
d="M68 0zM2238 276q-31 -229 -31 -266t-27 -37q-10 0 -68.5 13.5t-94.5 13.5h-420q-17 0 -17 14q0 6 2 9l398 729q8 15 8 23q0 18 -29 18h-158q-78 0 -131 -107l-61 -123q-3 -6 -13.5 -2.5t-9.5 8.5l37 267q5 37 23 34l103 -16q26 -4 77 -4h346q15 0 15 -7t-5 -16l-397 -723
q-6 -11 -6 -18q0 -18 27 -22t68.5 -4t72.5 1q106 0 170 72q24 27 80 152q4 9 23 4t18 -13zM2149 1421l-209 -371q-16 -28 -38 -28t-38 28l-209 371l-2 4q0 23 27 23q5 0 8 -4l185 -217q21 -25 29 -25t30 25l184 217q3 4 6 4q29 0 29 -23zM271 186v986q0 110 -189 110
q-14 0 -14 38t14 38q140 -6 240 -6t209 3t172 3q311 0 520 -167t209 -463q0 -322 -183.5 -528.5t-497.5 -206.5q-48 0 -194.5 3.5t-244.5 3.5t-221 -7q-13 0 -13 37.5t13 38.5q180 0 180 117zM431 298q0 -149 60 -197t191 -48q256 0 407.5 181t151.5 482q0 252 -177 416.5
t-443 164.5q-95 0 -125.5 -8.5t-47.5 -36t-17 -71.5v-883z" />
    <glyph glyph-name="uni01C6" unicode="d&#x17e;" horiz-adv-x="1747" 
d="M66 0zM1725 276q-31 -229 -31 -266t-27 -37q-10 0 -68.5 13.5t-94.5 13.5h-420q-17 0 -17 14q0 6 2 9l398 729q8 15 8 23q0 18 -29 18h-158q-78 0 -131 -107l-61 -123q-3 -6 -13.5 -2.5t-9.5 8.5l37 267q5 37 23 34l103 -16q26 -4 77 -4h346q15 0 15 -7t-5 -16l-397 -723
q-6 -11 -6 -18q0 -18 27 -22t68.5 -4t72.5 1q106 0 170 72q24 27 80 152q4 9 23 4t18 -13zM1636 1421l-209 -371q-16 -28 -38 -28t-38 28l-209 371l-2 4q0 23 27 23q5 0 8 -4l185 -217q21 -25 29 -25t30 25l184 217q3 4 6 4q29 0 29 -23zM841 231q0 -149 82 -149q11 0 47 6
q12 2 18 -37q2 -19 -6 -20q-37 -5 -153 -31.5t-124 -32.5q-17 0 -17 49v41q0 23 -11.5 23t-27.5 -14q-94 -89 -196 -89q-197 0 -292 122.5t-95 311.5t132 324t343 135q70 0 114 -14q12 -4 19 -4q14 0 14 25v294q0 140 -92 140q-17 0 -17 27.5t17 27.5q25 0 96.5 36.5
t103 59.5t41.5 23q11 0 10 -15l-6 -108v-1131zM688 199v469q0 75 -22 94q-59 49 -148 49q-134 0 -211.5 -111.5t-77.5 -259.5t83 -257t192 -109q78 0 131 41t53 84z" />
    <glyph glyph-name="uni01C7" unicode="LJ" horiz-adv-x="2060" 
d="M68 0zM1636 260v912q0 115 -190 115q-14 0 -14 38t14 38q47 -5 265 -5t277 5q14 0 14 -38t-14 -38q-192 0 -192 -115v-538q0 -716 -71 -817.5t-155 -168.5t-193 -67q-54 0 -92 30.5t-38 90.5q0 31 29.5 56.5t76.5 25.5q60 0 101 -34t50 -67q70 24 101 114t31 463z
M271 177v995q0 115 -189 115q-14 0 -14 38t14 38q46 -5 262 -5t261 5q13 0 13 -38t-13 -38q-174 0 -174 -115v-895q0 -51 14.5 -98.5t55 -82t108.5 -34.5l313 13q125 5 194.5 91t69.5 213q0 13 39 13t39 -13v-352q0 -28 -36 -32q-14 -2 -45 -2q-143 1 -432 4t-401 3t-255 -7
q-13 0 -13 38t13 38q176 0 176 108z" />
    <glyph glyph-name="uni01C8" unicode="Lj" horiz-adv-x="1862" 
d="M68 0zM1709 1157q0 -45 -32 -77t-77 -32t-75.5 32t-30.5 77t30.5 75.5t75.5 30.5t77 -30.5t32 -75.5zM1702 59q0 -329 -110 -483q-93 -131 -248 -131q-50 0 -87.5 28t-37.5 68q0 32 24.5 51t53.5 19q49 0 88.5 -39t64.5 -39q99 0 99 213v825q0 138 -92 138q-17 0 -17 28
t17 28q33 0 97.5 34t97.5 59t44 25q12 0 12 -16q-6 -108 -6 -166v-642zM271 177v995q0 115 -189 115q-14 0 -14 38t14 38q46 -5 262 -5t261 5q13 0 13 -38t-13 -38q-174 0 -174 -115v-895q0 -51 14.5 -98.5t55 -82t108.5 -34.5l313 13q125 5 194.5 91t69.5 213q0 13 39 13
t39 -13v-352q0 -28 -36 -32q-14 -2 -45 -2q-143 1 -432 4t-401 3t-255 -7q-13 0 -13 38t13 38q176 0 176 108z" />
    <glyph glyph-name="uni01C9" unicode="lj" horiz-adv-x="999" 
d="M70 0zM865 1157q0 -45 -32 -77t-77 -32t-75.5 32t-30.5 77t30.5 75.5t75.5 30.5t77 -30.5t32 -75.5zM858 59q0 -329 -110 -483q-93 -131 -248 -131q-50 0 -87.5 28t-37.5 68q0 32 24.5 51t53.5 19q49 0 88.5 -39t64.5 -39q99 0 99 213v825q0 138 -92 138q-17 0 -17 28
t17 28q33 0 97.5 34t97.5 59t44 25q12 0 12 -16q-6 -108 -6 -166v-642zM354 127q0 -78 119 -78q14 0 14 -28.5t-14 -28.5q-77 8 -193 8t-196 -8q-14 0 -14 28.5t14 28.5q117 0 117 78v1044q0 140 -92 140q-17 0 -17 27.5t17 27.5q46 0 165 74q34 21 50 33t26 12t10 -15
q-6 -57 -6 -97v-1246z" />
    <glyph glyph-name="uni01CA" unicode="NJ" horiz-adv-x="2198" 
d="M56 0zM1774 260v912q0 115 -190 115q-14 0 -14 38t14 38q47 -5 265 -5t277 5q14 0 14 -38t-14 -38q-192 0 -192 -115v-538q0 -716 -71 -817.5t-155 -168.5t-193 -67q-54 0 -92 30.5t-38 90.5q0 31 29.5 56.5t76.5 25.5q60 0 101 -34t50 -67q70 24 101 114t31 463z
M257 186v924q0 101 -45.5 139t-142.5 38q-13 0 -13 38t13 38q44 -5 149 -5t137 -7.5t59 -41.5l758 -977q10 -13 24 -13q23 0 23 33v819q0 116 -171 116q-14 0 -14 38t14 38q46 -5 188 -5t187 5q13 0 13 -38t-13 -38q-136 0 -136 -116v-1142q1 -50 -17 -50t-42 30l-867 1095
q-11 13 -22 13t-11 -18v-913q0 -117 159 -117q13 0 13 -38t-13 -38q-81 7 -197 7t-200 -7q-14 0 -14 38t14 38q167 0 167 117z" />
    <glyph glyph-name="uni01CB" unicode="Nj" horiz-adv-x="2000" 
d="M56 0zM1847 1157q0 -45 -32 -77t-77 -32t-75.5 32t-30.5 77t30.5 75.5t75.5 30.5t77 -30.5t32 -75.5zM1840 59q0 -329 -110 -483q-93 -131 -248 -131q-50 0 -87.5 28t-37.5 68q0 32 24.5 51t53.5 19q49 0 88.5 -39t64.5 -39q99 0 99 213v825q0 138 -92 138q-17 0 -17 28
t17 28q33 0 97.5 34t97.5 59t44 25q12 0 12 -16q-6 -108 -6 -166v-642zM257 186v924q0 101 -45.5 139t-142.5 38q-13 0 -13 38t13 38q44 -5 149 -5t137 -7.5t59 -41.5l758 -977q10 -13 24 -13q23 0 23 33v819q0 116 -171 116q-14 0 -14 38t14 38q46 -5 188 -5t187 5
q13 0 13 -38t-13 -38q-136 0 -136 -116v-1142q1 -50 -17 -50t-42 30l-867 1095q-11 13 -22 13t-11 -18v-913q0 -117 159 -117q13 0 13 -38t-13 -38q-81 7 -197 7t-200 -7q-14 0 -14 38t14 38q167 0 167 117z" />
    <glyph glyph-name="uni01CC" unicode="nj" horiz-adv-x="1559" 
d="M72 0zM1420 1157q0 -45 -32 -77t-77 -32t-75.5 32t-30.5 77t30.5 75.5t75.5 30.5t77 -30.5t32 -75.5zM1413 59q0 -329 -110 -483q-93 -131 -248 -131q-50 0 -87.5 28t-37.5 68q0 32 24.5 51t53.5 19q49 0 88.5 -39t64.5 -39q99 0 99 213v825q0 138 -92 138q-17 0 -17 28
t17 28q33 0 97.5 34t97.5 59t44 25q12 0 12 -16q-6 -108 -6 -166v-642zM896 127q0 -78 115 -78q14 0 14 -28.5t-14 -28.5q-77 8 -187 8t-191 -8q-14 0 -14 28.5t14 28.5q110 0 110 78v403q0 84 -14.5 142.5t-45.5 83t-109 24.5q-42 0 -76 -17t-66.5 -40.5t-55 -58
t-22.5 -74.5v-463q0 -78 107 -78q14 0 14 -28.5t-14 -28.5q-77 8 -187 8t-188 -8q-14 0 -14 28.5t14 28.5q115 0 115 78v447q0 128 -84 128q-17 0 -17 28t17 28q38 0 87.5 30t86.5 62.5t52 32.5q14 0 13 -31l-2 -73q-1 -21 14 -21q8 0 15 6q107 106 259 106q148 0 221 -147
q33 -66 33 -248v-348z" />
    <glyph glyph-name="uni01F1" unicode="DZ" horiz-adv-x="2766" 
d="M68 0zM2786 336q-48 -236 -48 -353q0 -13 -15 -16q-35 10 -55 12q-187 21 -660 21h-365q-35 0 -35 24q0 13 10 27l875 1198q9 12 9 21q0 21 -31 21h-554q-55 0 -77 -30q-72 -92 -96.5 -154.5t-43.5 -129.5q-2 -7 -24 -7t-25 14q33 213 33 363q0 18 37 18q97 -9 147 -9
h481q152 0 368 8q25 0 25 -14t-14 -32l-863 -1200q-9 -12 -9 -24q0 -25 30 -25q435 0 640 13q80 5 163 163q39 74 47 107q3 12 26.5 3.5t23.5 -19.5zM271 186v986q0 110 -189 110q-14 0 -14 38t14 38q140 -6 240 -6t209 3t172 3q311 0 520 -167t209 -463
q0 -322 -183.5 -528.5t-497.5 -206.5q-48 0 -194.5 3.5t-244.5 3.5t-221 -7q-13 0 -13 37.5t13 38.5q180 0 180 117zM431 298q0 -149 60 -197t191 -48q256 0 407.5 181t151.5 482q0 252 -177 416.5t-443 164.5q-95 0 -125.5 -8.5t-47.5 -36t-17 -71.5v-883z" />
    <glyph glyph-name="uni01F2" unicode="D&#x7a;" horiz-adv-x="2260" 
d="M68 0zM2238 276q-31 -229 -31 -266t-27 -37q-10 0 -68.5 13.5t-94.5 13.5h-420q-17 0 -17 14q0 6 2 9l398 729q8 15 8 23q0 18 -29 18h-158q-78 0 -131 -107l-61 -123q-3 -6 -13.5 -2.5t-9.5 8.5l37 267q5 37 23 34l103 -16q26 -4 77 -4h346q15 0 15 -7t-5 -16l-397 -723
q-6 -11 -6 -18q0 -18 27 -22t68.5 -4t72.5 1q106 0 170 72q24 27 80 152q4 9 23 4t18 -13zM271 186v986q0 110 -189 110q-14 0 -14 38t14 38q140 -6 240 -6t209 3t172 3q311 0 520 -167t209 -463q0 -322 -183.5 -528.5t-497.5 -206.5q-48 0 -194.5 3.5t-244.5 3.5t-221 -7
q-13 0 -13 37.5t13 38.5q180 0 180 117zM431 298q0 -149 60 -197t191 -48q256 0 407.5 181t151.5 482q0 252 -177 416.5t-443 164.5q-95 0 -125.5 -8.5t-47.5 -36t-17 -71.5v-883z" />
    <glyph glyph-name="uni01F3" unicode="d&#x7a;" horiz-adv-x="1742" 
d="M66 0zM1708 276q-31 -229 -31 -266t-27 -37q-10 0 -68.5 13.5t-94.5 13.5h-420q-17 0 -17 14q0 6 2 9l398 729q8 15 8 23q0 18 -29 18h-158q-78 0 -131 -107l-61 -123q-3 -6 -13.5 -2.5t-9.5 8.5l37 267q5 37 23 34l103 -16q26 -4 77 -4h346q15 0 15 -7t-5 -16l-397 -723
q-6 -11 -6 -18q0 -18 27 -22t68.5 -4t72.5 1q106 0 170 72q24 27 80 152q4 9 23 4t18 -13zM841 231q0 -149 82 -149q11 0 47 6q12 2 18 -37q2 -19 -6 -20q-37 -5 -153 -31.5t-124 -32.5q-17 0 -17 49v41q0 23 -11.5 23t-27.5 -14q-94 -89 -196 -89q-197 0 -292 122.5
t-95 311.5t132 324t343 135q70 0 114 -14q12 -4 19 -4q14 0 14 25v294q0 140 -92 140q-17 0 -17 27.5t17 27.5q25 0 96.5 36.5t103 59.5t41.5 23q11 0 10 -15l-6 -108v-1131zM688 199v469q0 75 -22 94q-59 49 -148 49q-134 0 -211.5 -111.5t-77.5 -259.5t83 -257t192 -109
q78 0 131 41t53 84z" />
    <glyph glyph-name="twodotenleader" unicode="&#x2e;&#x2e;" horiz-adv-x="1063" 
d="M797 211q65 0 97 -55q18 -30 18 -68q0 -65 -54 -97q-27 -16 -61 -16q-74 0 -109 56q-18 29 -18 65q0 68 58 99q30 16 69 16zM266 211q65 0 97 -55q18 -30 18 -68q0 -65 -54 -97q-27 -16 -61 -16q-74 0 -109 56q-18 29 -18 65q0 68 58 99q30 16 69 16z" />
    <glyph glyph-name="ellipsis" unicode="&#x2e;&#x2e;&#x2e;" horiz-adv-x="1591" 
d="M670 98q0 51 36 82t91 31t85 -37t30 -87.5t-34.5 -81t-87.5 -30.5t-86.5 36t-33.5 87zM1183 98q0 51 36 82t91 31t85 -37t30 -87.5t-34.5 -81t-87.5 -30.5t-86.5 36t-33.5 87zM139 98q0 51 36 82t91 31t85 -37t30 -87.5t-34.5 -81t-87.5 -30.5t-86.5 36t-33.5 87z" />
    <glyph glyph-name="uni2036" unicode="&#x2035;&#x2035;" horiz-adv-x="894" 
d="M439 1419q0 32 47 55q27 13 52 13q31 0 41 -23l206 -467q5 -10 5 -22q0 -37 -33 -37q-23 0 -41 29l-271 434q-6 9 -6 18zM119 1419q0 32 47 55q27 13 52 13q31 0 41 -23l206 -467q5 -10 5 -22q0 -37 -33 -37q-23 0 -41 29l-271 434q-6 9 -6 18z" />
    <glyph glyph-name="uni2037" unicode="&#x2035;&#x2035;&#x2035;" horiz-adv-x="1274" 
d="M794 1419q0 32 47 55q27 13 52 13q31 0 41 -23l206 -467q5 -10 5 -22q0 -37 -33 -37q-23 0 -41 29l-271 434q-6 9 -6 18zM444 1419q0 32 47 55q27 13 52 13q31 0 41 -23l206 -467q5 -10 5 -22q0 -37 -33 -37q-23 0 -41 29l-271 434q-6 9 -6 18zM119 1419q0 32 47 55
q27 13 52 13q31 0 41 -23l206 -467q5 -10 5 -22q0 -37 -33 -37q-23 0 -41 29l-271 434q-6 9 -6 18z" />
    <glyph glyph-name="exclamdbl" unicode="&#x21;&#x21;" horiz-adv-x="880" 
d="M616 211q61 0 91 -37t30 -87.5t-34.5 -81t-87.5 -30.5t-86.5 36t-33.5 87t30 82t91 31zM522 1275q0 56 30.5 90t67.5 34q103 0 103 -111q0 -63 -31 -354.5t-43 -497.5q-1 -16 -33 -16t-33 16q-8 199 -34.5 491t-26.5 348zM260 211q61 0 91 -37t30 -87.5t-34.5 -81
t-87.5 -30.5t-86.5 36t-33.5 87t30 82t91 31zM166 1275q0 56 30.5 90t67.5 34q103 0 103 -111q0 -63 -31 -354.5t-43 -497.5q-1 -16 -33 -16t-33 16q-8 199 -34.5 491t-26.5 348z" />
    <glyph glyph-name="uni2047" unicode="&#x3f;&#x3f;" horiz-adv-x="1288" 
d="M803 1194q-68 0 -68 86q0 82 84 82q130 0 244 -131q115 -141 118 -301q0 -146 -82 -189l-165 -88q-74 -41 -74 -90q0 -56 20 -125q0 -15 -22 -19q-15 -1 -23 7q-75 136 -75 211q0 89 114 151l105 56q116 62 116 151q0 199 -292 199zM983 86q0 -67 -54 -100
q-30 -17 -65 -17q-61 0 -97 49q-22 31 -22 68q0 69 51 106q30 21 68 21q64 0 99 -56q20 -32 20 -71zM279 1194q-68 0 -68 86q0 82 84 82q130 0 244 -131q115 -141 118 -301q0 -146 -82 -189l-165 -88q-74 -41 -74 -90q0 -56 20 -125q0 -15 -22 -19q-15 -1 -23 7
q-75 136 -75 211q0 89 114 151l105 56q116 62 116 151q0 199 -292 199zM459 86q0 -67 -54 -100q-30 -17 -65 -17q-61 0 -97 49q-22 31 -22 68q0 69 51 106q30 21 68 21q64 0 99 -56q20 -32 20 -71z" />
    <glyph glyph-name="uni2048" unicode="&#x3f;&#x21;" horiz-adv-x="1148" 
d="M279 1194q-68 0 -68 86q0 82 84 82q130 0 244 -131q115 -141 118 -301q0 -146 -82 -189l-165 -88q-74 -41 -74 -90q0 -56 20 -125q0 -15 -22 -19q-15 -1 -23 7q-75 136 -75 211q0 89 114 151l105 56q116 62 116 151q0 199 -292 199zM459 86q0 -67 -54 -100
q-30 -17 -65 -17q-61 0 -97 49q-22 31 -22 68q0 69 51 106q30 21 68 21q64 0 99 -56q20 -32 20 -71zM908 211q61 0 91 -37t30 -87.5t-34.5 -81t-87.5 -30.5t-86.5 36t-33.5 87t30 82t91 31zM814 1275q0 56 30.5 90t67.5 34q103 0 103 -111q0 -63 -31 -354.5t-43 -497.5
q-1 -16 -33 -16t-33 16q-8 199 -34.5 491t-26.5 348z" />
    <glyph glyph-name="uni2049" unicode="&#x21;&#x3f;" horiz-adv-x="1084" 
d="M260 211q61 0 91 -37t30 -87.5t-34.5 -81t-87.5 -30.5t-86.5 36t-33.5 87t30 82t91 31zM166 1275q0 56 30.5 90t67.5 34q103 0 103 -111q0 -63 -31 -354.5t-43 -497.5q-1 -16 -33 -16t-33 16q-8 199 -34.5 491t-26.5 348zM591 1194q-68 0 -68 86q0 82 84 82
q130 0 244 -131q115 -141 118 -301q0 -146 -82 -189l-165 -88q-74 -41 -74 -90q0 -56 20 -125q0 -15 -22 -19q-15 -1 -23 7q-75 136 -75 211q0 89 114 151l105 56q116 62 116 151q0 199 -292 199zM771 86q0 -67 -54 -100q-30 -17 -65 -17q-61 0 -97 49q-22 31 -22 68
q0 69 51 106q30 21 68 21q64 0 99 -56q20 -32 20 -71z" />
    <glyph glyph-name="uni2460" unicode="&#x31;&#x20dd;" horiz-adv-x="2053" 
d="M100 434q0 296 171 537q155 217 401 319q170 71 355 71q297 0 537 -172q218 -155 320 -402q69 -169 69 -353q0 -297 -172 -538q-90 -126 -215 -216q-241 -172 -539 -172q-297 0 -538 171q-218 156 -319 402q-70 169 -70 353zM184 434q0 -275 161 -496q148 -202 382 -291
q144 -55 300 -55q276 0 498 163q202 148 290 382q54 143 54 297q0 276 -162 498q-148 202 -381 291q-144 54 -299 54q-276 0 -498 -162q-105 -77 -182 -183q-163 -222 -163 -498zM1229 -5q-63 5 -187 5q-128 0 -189 -5q-11 0 -11 19q0 22 11 22q86 0 107 18q32 27 32 132
v620q0 32 -15 32q-9 0 -17 -4l-92 -42q-18 0 -18 24q0 5 4 9q140 68 231 150q5 5 12 5q8 0 8 -10l-3 -121v-2v-660q0 -85 16 -115q26 -36 111 -36q9 0 9 -22q0 -19 -9 -19z" />
    <glyph glyph-name="uni2461" unicode="&#x32;&#x20dd;" horiz-adv-x="2053" 
d="M1322 174l-72 -156q-11 -24 -36 -24q-96 6 -231 6q-128 0 -255 -6q-29 0 -30 28q0 6 7 13q315 329 408 545q26 58 27 131q0 76 -55 118q-39 31 -94 31q-103 0 -176 -130q-3 -3 -7 -3q-15 0 -28 12q-6 6 -6 10q0 1 1 3q42 85 107 136q76 63 166 62q107 0 169 -75
q52 -58 52 -156q0 -104 -79 -215q-43 -58 -120 -149l-202 -227q-11 -12 -11 -20q0 -11 21 -10h212q116 0 162 42q19 18 30 45q1 4 12 5q22 -1 28 -10q1 -1 1 -3t-1 -3zM100 434q0 296 171 537q155 217 401 319q170 71 355 71q297 0 537 -172q218 -155 320 -402
q69 -169 69 -353q0 -297 -172 -538q-90 -126 -215 -216q-241 -172 -539 -172q-297 0 -538 171q-218 156 -319 402q-70 169 -70 353zM184 434q0 -275 161 -496q148 -202 382 -291q144 -55 300 -55q276 0 498 163q202 148 290 382q54 143 54 297q0 276 -162 498
q-148 202 -381 291q-144 54 -299 54q-276 0 -498 -162q-105 -77 -182 -183q-163 -222 -163 -498z" />
    <glyph glyph-name="uni2462" unicode="&#x33;&#x20dd;" horiz-adv-x="2053" 
d="M100 434q0 296 171 537q155 217 401 319q170 71 355 71q297 0 537 -172q218 -155 320 -402q69 -169 69 -353q0 -297 -172 -538q-90 -126 -215 -216q-241 -172 -539 -172q-297 0 -538 171q-218 156 -319 402q-70 169 -70 353zM184 434q0 -275 161 -496q148 -202 382 -291
q144 -55 300 -55q276 0 498 163q202 148 290 382q54 143 54 297q0 276 -162 498q-148 202 -381 291q-144 54 -299 54q-276 0 -498 -162q-105 -77 -182 -183q-163 -222 -163 -498zM1273 295q0 -133 -94 -223q-96 -88 -225 -88q-111 0 -165 45q-31 26 -31 62q0 30 31 46
q12 7 26 7q24 0 72 -53q50 -53 105 -53q77 0 124 83q36 67 36 154q0 95 -52 154q-55 62 -149 62q-47 0 -80 -10q-11 0 -11 29q0 26 11 26q139 0 205 77q41 48 41 118q0 78 -56 120q-34 24 -78 24q-83 0 -147 -98q0 -3 -5 -3q-16 0 -28 16q-5 6 -5 12q0 2 2 4q98 145 231 145
q80 0 138 -61q56 -61 56 -139q0 -119 -129 -194q-24 -13 -24 -18q0 -7 21 -11q180 -36 180 -233z" />
    <glyph glyph-name="uni2463" unicode="&#x34;&#x20dd;" horiz-adv-x="2053" 
d="M100 434q0 296 171 537q155 217 401 319q170 71 355 71q297 0 537 -172q218 -155 320 -402q69 -169 69 -353q0 -297 -172 -538q-90 -126 -215 -216q-241 -172 -539 -172q-297 0 -538 171q-218 156 -319 402q-70 169 -70 353zM184 434q0 -275 161 -496q148 -202 382 -291
q144 -55 300 -55q276 0 498 163q202 148 290 382q54 143 54 297q0 276 -162 498q-148 202 -381 291q-144 54 -299 54q-276 0 -498 -162q-105 -77 -182 -183q-163 -222 -163 -498zM1310 279h-82q-18 0 -18 -14v-174q0 -55 87 -55q10 0 10 -22q0 -19 -10 -19q-51 5 -135 5
q-114 0 -173 -5q-10 0 -10 19q0 22 10 22q112 0 112 55v174q0 14 -14 14h-340q-49 0 -49 28q0 19 34 63l157 215q176 239 300 430q6 10 28 10q41 0 41 -21v-1l-461 -639q-7 -9 -7 -13q0 -10 20 -10h277q14 0 14 14v317q0 9 55 9q54 0 54 -9v-317q0 -14 18 -14h82
q11 0 11 -32q0 -30 -11 -30z" />
    <glyph glyph-name="uni2464" unicode="&#x35;&#x20dd;" horiz-adv-x="2053" 
d="M100 434q0 296 171 537q155 217 401 319q170 71 355 71q297 0 537 -172q218 -155 320 -402q69 -169 69 -353q0 -297 -172 -538q-90 -126 -215 -216q-241 -172 -539 -172q-297 0 -538 171q-218 156 -319 402q-70 169 -70 353zM184 434q0 -275 161 -496q148 -202 382 -291
q144 -55 300 -55q276 0 498 163q202 148 290 382q54 143 54 297q0 276 -162 498q-148 202 -381 291q-144 54 -299 54q-276 0 -498 -162q-105 -77 -182 -183q-163 -222 -163 -498zM1268 353q0 -154 -92 -257q-97 -108 -249 -108q-109 0 -152 45q-19 20 -19 46q0 38 34 53
q11 5 24 5q29 0 78 -45q50 -45 96 -45q77 0 135 84q48 72 48 158q0 165 -121 218q-49 22 -115 22q-37 0 -92 -13l-11 1q-9 4 -9 15q0 4 1 8l65 378q5 21 24 21h335q5 0 5 -12q0 -26 -10 -55q-12 -35 -19 -35h-273q-21 0 -24 -19l-30 -167v-12q2 -5 10 -5q2 0 7 1q34 2 49 2
q183 0 260 -118q45 -67 45 -166z" />
    <glyph glyph-name="uni2465" unicode="&#x36;&#x20dd;" horiz-adv-x="2053" 
d="M100 434q0 296 171 537q155 217 401 319q170 71 355 71q297 0 537 -172q218 -155 320 -402q69 -169 69 -353q0 -297 -172 -538q-90 -126 -215 -216q-241 -172 -539 -172q-297 0 -538 171q-218 156 -319 402q-70 169 -70 353zM184 434q0 -275 161 -496q148 -202 382 -291
q144 -55 300 -55q276 0 498 163q202 148 290 382q54 143 54 297q0 276 -162 498q-148 202 -381 291q-144 54 -299 54q-276 0 -498 -162q-105 -77 -182 -183q-163 -222 -163 -498zM1305 279q0 -121 -77 -204q-84 -87 -201 -87q-133 0 -204 109q-62 93 -62 235q0 202 141 388
q123 157 274 238q23 12 49 24l8 -1q5 -2 10 -9q5 -8 5 -16t-4 -9q-231 -131 -314 -346q-28 -71 -41 -153q110 98 192 98q100 0 165 -85q59 -80 59 -182zM1195 235q0 89 -41 154q-48 76 -130 76t-142 -78q-4 -42 -4 -59q0 -103 29 -182q26 -74 95 -96q21 -6 43 -6
q70 0 111 63q39 55 39 128z" />
    <glyph glyph-name="uni2466" unicode="&#x37;&#x20dd;" horiz-adv-x="2053" 
d="M100 434q0 296 171 537q155 217 401 319q170 71 355 71q297 0 537 -172q218 -155 320 -402q69 -169 69 -353q0 -297 -172 -538q-90 -126 -215 -216q-241 -172 -539 -172q-297 0 -538 171q-218 156 -319 402q-70 169 -70 353zM184 434q0 -275 161 -496q148 -202 382 -291
q144 -55 300 -55q276 0 498 163q202 148 290 382q54 143 54 297q0 276 -162 498q-148 202 -381 291q-144 54 -299 54q-276 0 -498 -162q-105 -77 -182 -183q-163 -222 -163 -498zM1324 901l-364 -901q-3 -10 -47 -10h-12q-48 0 -48 10q2 4 36 71q32 69 45 99l283 642
q6 18 6 20q0 10 -24 10h-153q-112 0 -150 -8q-75 -21 -105 -94q-3 -10 -24 -10q-17 0 -18 10l37 177q4 21 29 21h486q28 0 28 -16q0 -8 -5 -21z" />
    <glyph glyph-name="uni2467" unicode="&#x38;&#x20dd;" horiz-adv-x="2053" 
d="M100 434q0 296 171 537q155 217 401 319q170 71 355 71q297 0 537 -172q218 -155 320 -402q69 -169 69 -353q0 -297 -172 -538q-90 -126 -215 -216q-241 -172 -539 -172q-297 0 -538 171q-218 156 -319 402q-70 169 -70 353zM184 434q0 -275 161 -496q148 -202 382 -291
q144 -55 300 -55q276 0 498 163q202 148 290 382q54 143 54 297q0 276 -162 498q-148 202 -381 291q-144 54 -299 54q-276 0 -498 -162q-105 -77 -182 -183q-163 -222 -163 -498zM1297 237q0 -109 -80 -180q-80 -69 -187 -69q-108 0 -187 62q-79 64 -79 175q0 149 195 251
q-84 55 -119 101q-46 60 -50 124v17q0 97 70 167q68 65 170 65q143 0 203 -91q33 -49 33 -119q0 -149 -162 -233q193 -124 193 -270zM1167 711q0 101 -62 153q-39 32 -92 32q-79 0 -118 -57l-14 -26l-7 -29q-1 -8 -1 -17q0 -72 66 -136q38 -38 127 -93q101 70 101 173z
M1195 186q0 92 -63 151q-66 63 -129 105l-4 3q-124 -72 -124 -205q0 -82 48 -141q53 -63 128 -63q79 0 120 64q24 37 24 86z" />
    <glyph glyph-name="uni2468" unicode="&#x39;&#x20dd;" horiz-adv-x="2053" 
d="M100 434q0 296 171 537q155 217 401 319q170 71 355 71q297 0 537 -172q218 -155 320 -402q69 -169 69 -353q0 -297 -172 -538q-90 -126 -215 -216q-241 -172 -539 -172q-297 0 -538 171q-218 156 -319 402q-70 169 -70 353zM184 434q0 -275 161 -496q148 -202 382 -291
q144 -55 300 -55q276 0 498 163q202 148 290 382q54 143 54 297q0 276 -162 498q-148 202 -381 291q-144 54 -299 54q-276 0 -498 -162q-105 -77 -182 -183q-163 -222 -163 -498zM1300 616q0 -199 -141 -381q-122 -160 -317 -260h-7q-5 3 -11 11q-10 13 -10 26q0 4 4 7
q139 82 233 193q70 80 109 231q6 23 10 46q-89 -96 -183 -96q-99 0 -168 79q-63 76 -63 175q0 131 73 214q77 89 205 89t202 -107q64 -94 64 -227zM1181 615q0 110 -31 179q-44 98 -137 98q-72 0 -112 -66q-34 -55 -34 -130q0 -86 40 -148q48 -76 125 -76q81 0 145 80
q4 27 4 63z" />
    <glyph glyph-name="uni2469" unicode="&#x31;&#x30;&#x20dd;" horiz-adv-x="2053" 
d="M100 434q0 296 171 537q155 217 401 319q170 71 355 71q297 0 537 -172q218 -155 320 -402q69 -169 69 -353q0 -297 -172 -538q-90 -126 -215 -216q-241 -172 -539 -172q-297 0 -538 171q-218 156 -319 402q-70 169 -70 353zM184 434q0 -275 161 -496q148 -202 382 -291
q144 -55 300 -55q276 0 498 163q202 148 290 382q54 143 54 297q0 276 -162 498q-148 202 -381 291q-144 54 -299 54q-276 0 -498 -162q-105 -77 -182 -183q-163 -222 -163 -498zM871 -5q-63 5 -187 5q-126 0 -189 -5q-11 0 -11 19q0 22 11 22q86 0 107 18q33 27 33 132v620
q0 32 -16 32q-8 0 -17 -4l-92 -42q-17 0 -17 24q0 6 3 9q142 68 231 150q7 5 12 5q9 0 9 -10l-3 -121v-2v-660q0 -87 16 -115q25 -36 110 -36q10 0 10 -22q0 -19 -10 -19zM1644 458q0 -173 -59 -301q-81 -169 -232 -169q-161 0 -236 174q-55 133 -55 314q0 178 58 305
q76 169 234 169q160 0 235 -177q55 -131 55 -315zM1518 449q0 166 -29 311q-30 144 -134 144q-98 0 -140 -170q-29 -107 -29 -248q0 -144 12 -225q22 -137 88 -198q26 -26 66 -26q166 0 166 412z" />
    <glyph glyph-name="uni246A" unicode="&#x31;&#x31;&#x20dd;" horiz-adv-x="2053" 
d="M100 434q0 296 171 537q155 217 401 319q170 71 355 71q297 0 537 -172q218 -155 320 -402q69 -169 69 -353q0 -297 -172 -538q-90 -126 -215 -216q-241 -172 -539 -172q-297 0 -538 171q-218 156 -319 402q-70 169 -70 353zM184 434q0 -275 161 -496q148 -202 382 -291
q144 -55 300 -55q276 0 498 163q202 148 290 382q54 143 54 297q0 276 -162 498q-148 202 -381 291q-144 54 -299 54q-276 0 -498 -162q-105 -77 -182 -183q-163 -222 -163 -498zM918 -5q-62 5 -187 5q-128 0 -189 -5q-11 0 -11 19q0 22 11 22q86 0 107 18q32 27 32 132v620
q0 32 -15 32q-9 0 -17 -4l-92 -42q-19 0 -19 24q0 4 5 9q140 68 231 150q5 5 12 5q8 0 8 -10l-3 -121v-2v-660q0 -85 16 -115q25 -36 111 -36q9 0 9 -22q0 -19 -9 -19zM1598 -5q-62 5 -187 5q-127 0 -189 -5q-11 0 -11 19q0 22 11 22q86 0 107 18q32 26 32 132v620
q0 32 -15 32q-8 0 -17 -4l-92 -42q-18 0 -18 24q0 5 4 9q142 68 231 150q7 5 12 5q9 0 9 -10l-4 -121v-2v-660q0 -86 17 -115q24 -36 110 -36q10 0 10 -22q0 -19 -10 -19z" />
    <glyph glyph-name="uni246B" unicode="&#x31;&#x32;&#x20dd;" horiz-adv-x="2053" 
d="M1628 174l-72 -156q-11 -24 -36 -24q-96 6 -231 6q-128 0 -255 -6q-29 0 -30 28q0 6 7 13q315 329 408 545q26 58 27 131q0 76 -55 118q-39 31 -94 31q-103 0 -176 -130q-3 -3 -7 -3q-15 0 -28 12q-6 6 -6 10q0 1 1 3q42 85 107 136q76 63 166 62q107 0 169 -75
q52 -58 52 -156q0 -104 -79 -215q-43 -58 -120 -149l-202 -227q-11 -12 -11 -20q0 -11 21 -10h212q116 0 162 42q19 18 30 45q1 4 12 5q22 -1 28 -10q1 -1 1 -3t-1 -3zM100 434q0 296 171 537q155 217 401 319q170 71 355 71q297 0 537 -172q218 -155 320 -402
q69 -169 69 -353q0 -297 -172 -538q-90 -126 -215 -216q-241 -172 -539 -172q-297 0 -538 171q-218 156 -319 402q-70 169 -70 353zM184 434q0 -275 161 -496q148 -202 382 -291q144 -55 300 -55q276 0 498 163q202 148 290 382q54 143 54 297q0 276 -162 498
q-148 202 -381 291q-144 54 -299 54q-276 0 -498 -162q-105 -77 -182 -183q-163 -222 -163 -498zM865 0q-50 5 -187 5q-140 0 -189 -5q-12 0 -12 19q0 22 12 22q81 0 107 18q32 30 32 132v620q0 32 -15 32q-9 0 -17 -4l-92 -42q-18 0 -18 25q0 3 4 9q139 66 231 150
q4 4 12 4q9 0 9 -10l-4 -121v-2v-660q0 -84 16 -113q26 -38 111 -38q9 0 9 -22q0 -19 -9 -19z" />
    <glyph glyph-name="uni246C" unicode="&#x31;&#x33;&#x20dd;" horiz-adv-x="2053" 
d="M100 434q0 296 171 537q155 217 401 319q170 71 355 71q297 0 537 -172q218 -155 320 -402q69 -169 69 -353q0 -297 -172 -538q-90 -126 -215 -216q-241 -172 -539 -172q-297 0 -538 171q-218 156 -319 402q-70 169 -70 353zM184 434q0 -275 161 -496q148 -202 382 -291
q144 -55 300 -55q276 0 498 163q202 148 290 382q54 143 54 297q0 276 -162 498q-148 202 -381 291q-144 54 -299 54q-276 0 -498 -162q-105 -77 -182 -183q-163 -222 -163 -498zM886 -5q-60 5 -186 5q-128 0 -189 -5q-11 0 -11 19q0 22 11 22q85 0 107 18q32 27 32 132v620
q0 32 -15 32q-8 0 -17 -4l-92 -42q-18 0 -18 24q0 6 5 9q139 68 231 150q3 5 10 5q10 0 10 -10l-4 -121v-2v-660q0 -88 17 -115q24 -36 109 -36q11 0 11 -22q0 -19 -11 -19zM1612 295q0 -132 -95 -223q-94 -88 -225 -88q-110 0 -164 45q-31 26 -31 62q0 30 31 46q12 7 26 7
q24 0 72 -53q49 -53 104 -53q77 0 124 83q37 67 37 154q0 93 -53 154q-53 62 -148 62q-47 0 -81 -10q-10 0 -10 29q0 26 10 26q139 0 205 77q41 48 41 118q0 78 -56 120q-34 24 -78 24q-82 0 -146 -98q-1 -3 -5 -3q-17 0 -29 17q-4 6 -4 11q0 3 1 4q98 145 232 145
q82 0 137 -61q56 -59 56 -139q0 -120 -129 -194q-23 -12 -23 -18t20 -11q181 -36 181 -233z" />
    <glyph glyph-name="uni246D" unicode="&#x31;&#x34;&#x20dd;" horiz-adv-x="2053" 
d="M100 434q0 296 171 537q155 217 401 319q170 71 355 71q297 0 537 -172q218 -155 320 -402q69 -169 69 -353q0 -297 -172 -538q-90 -126 -215 -216q-241 -172 -539 -172q-297 0 -538 171q-218 156 -319 402q-70 169 -70 353zM184 434q0 -275 161 -496q148 -202 382 -291
q144 -55 300 -55q276 0 498 163q202 148 290 382q54 143 54 297q0 276 -162 498q-148 202 -381 291q-144 54 -299 54q-276 0 -498 -162q-105 -77 -182 -183q-163 -222 -163 -498zM826 -5q-62 5 -187 5q-127 0 -189 -5q-11 0 -11 19q0 22 11 22q86 0 107 18q32 27 32 132v620
q0 32 -15 32q-9 0 -17 -4l-92 -42q-17 0 -17 24q0 6 4 9q138 67 230 150q5 5 12 5q10 0 10 -10l-5 -116v-7v-660q0 -86 17 -115q26 -36 110 -36q9 0 9 -22q0 -19 -9 -19zM1587 279h-82q-16 0 -16 -14v-174q0 -55 85 -55q11 0 11 -22q0 -19 -11 -19q-51 5 -135 5
q-113 0 -173 -5q-9 0 -9 19q0 22 9 22q114 0 114 55v174q0 14 -15 14h-341q-48 0 -48 28q0 16 33 63l159 215q194 267 298 430q7 10 28 10q41 0 41 -21v-1l-461 -639q-6 -10 -6 -13q0 -10 19 -10h278q15 0 15 14v317q0 9 54 9q55 0 55 -9v-317q0 -14 16 -14h82q12 0 12 -32
q0 -30 -12 -30z" />
    <glyph glyph-name="uni246E" unicode="&#x31;&#x35;&#x20dd;" horiz-adv-x="2053" 
d="M100 434q0 296 171 537q155 217 401 319q170 71 355 71q297 0 537 -172q218 -155 320 -402q69 -169 69 -353q0 -297 -172 -538q-90 -126 -215 -216q-241 -172 -539 -172q-297 0 -538 171q-218 156 -319 402q-70 169 -70 353zM184 434q0 -275 161 -496q148 -202 382 -291
q144 -55 300 -55q276 0 498 163q202 148 290 382q54 143 54 297q0 276 -162 498q-148 202 -381 291q-144 54 -299 54q-276 0 -498 -162q-105 -77 -182 -183q-163 -222 -163 -498zM853 -5q-61 5 -187 5q-127 0 -188 -5q-12 0 -12 19q0 22 12 22q85 0 107 18q31 28 31 132v620
q0 32 -15 32q-9 0 -16 -4l-93 -42q-17 0 -17 24q0 6 4 9q137 66 231 150q3 5 11 5q10 0 10 -10l-5 -116v-7v-660q0 -87 18 -115q24 -36 109 -36q11 0 11 -22q0 -19 -11 -19zM1574 353q0 -153 -93 -257q-97 -108 -248 -108q-110 0 -154 45q-19 19 -19 46q0 37 33 52
q12 6 25 6q30 0 78 -45q50 -43 96 -43q80 0 136 82q49 73 49 158q0 163 -121 218q-50 22 -117 22q-38 0 -91 -13l-11 1q-9 4 -9 18v5l67 378q3 21 23 21h336q4 0 4 -12q0 -26 -10 -55q-12 -35 -19 -35h-272q-21 0 -24 -19l-31 -167v-12q2 -5 10 -5q2 0 7 1q34 2 48 2
q181 0 260 -115q47 -69 47 -169z" />
    <glyph glyph-name="uni246F" unicode="&#x31;&#x36;&#x20dd;" horiz-adv-x="2053" 
d="M100 434q0 296 171 537q155 217 401 319q170 71 355 71q297 0 537 -172q218 -155 320 -402q69 -169 69 -353q0 -297 -172 -538q-90 -126 -215 -216q-241 -172 -539 -172q-297 0 -538 171q-218 156 -319 402q-70 169 -70 353zM184 434q0 -275 161 -496q148 -202 382 -291
q144 -55 300 -55q276 0 498 163q202 148 290 382q54 143 54 297q0 276 -162 498q-148 202 -381 291q-144 54 -299 54q-276 0 -498 -162q-105 -77 -182 -183q-163 -222 -163 -498zM844 -5q-62 5 -187 5q-128 0 -189 -5q-12 0 -12 19q0 22 12 22q85 0 107 18q33 27 33 132v620
q0 32 -16 32q-8 0 -17 -4l-92 -42q-18 0 -18 24q0 5 4 9q142 68 231 150q7 5 12 5q9 0 9 -10l-3 -121v-2v-660q0 -87 16 -115q24 -36 110 -36q10 0 10 -22q0 -19 -10 -19zM1601 279q0 -122 -79 -204q-81 -87 -199 -87q-132 0 -205 109q-61 94 -61 235q0 202 141 388
q123 157 274 238q23 12 49 24l8 -1q5 -2 10 -9q5 -8 5 -16t-4 -9q-231 -131 -314 -346q-28 -71 -41 -153q110 98 192 98q100 0 165 -85q59 -80 59 -182zM1491 235q0 89 -42 154q-46 76 -130 76q-81 0 -141 -78q-4 -28 -4 -59q0 -103 29 -182q26 -74 95 -95q20 -6 42 -6
q70 0 112 62q39 55 39 128z" />
    <glyph glyph-name="uni2470" unicode="&#x31;&#x37;&#x20dd;" horiz-adv-x="2053" 
d="M100 434q0 296 171 537q155 217 401 319q170 71 355 71q297 0 537 -172q218 -155 320 -402q69 -169 69 -353q0 -297 -172 -538q-90 -126 -215 -216q-241 -172 -539 -172q-297 0 -538 171q-218 156 -319 402q-70 169 -70 353zM184 434q0 -275 161 -496q148 -202 382 -291
q144 -55 300 -55q276 0 498 163q202 148 290 382q54 143 54 297q0 276 -162 498q-148 202 -381 291q-144 54 -299 54q-276 0 -498 -162q-105 -77 -182 -183q-163 -222 -163 -498zM833 -5q-60 5 -187 5q-126 0 -189 -5q-10 0 -10 19q0 22 10 22q86 0 107 18q33 27 33 132v620
q0 32 -15 32q-9 0 -18 -4l-91 -42q-18 0 -18 24q0 6 5 9q140 68 230 150q5 5 12 5q9 0 9 -10l-4 -121v-2v-660q0 -88 17 -115q24 -36 109 -36q10 0 10 -22q0 -19 -10 -19zM1609 901l-364 -901q-3 -10 -47 -10h-12q-48 0 -48 10q7 11 37 71l44 99l283 642q6 18 6 20
q0 10 -23 10h-154q-112 0 -150 -8q-76 -21 -104 -94q-4 -10 -24 -10q-18 0 -18 10l36 177q4 21 29 21h486q28 0 28 -16q0 -8 -5 -21z" />
    <glyph glyph-name="uni2471" unicode="&#x31;&#x38;&#x20dd;" horiz-adv-x="2053" 
d="M100 434q0 296 171 537q155 217 401 319q170 71 355 71q297 0 537 -172q218 -155 320 -402q69 -169 69 -353q0 -297 -172 -538q-90 -126 -215 -216q-241 -172 -539 -172q-297 0 -538 171q-218 156 -319 402q-70 169 -70 353zM184 434q0 -275 161 -496q148 -202 382 -291
q144 -55 300 -55q276 0 498 163q202 148 290 382q54 143 54 297q0 276 -162 498q-148 202 -381 291q-144 54 -299 54q-276 0 -498 -162q-105 -77 -182 -183q-163 -222 -163 -498zM874 -5q-61 5 -186 5q-129 0 -189 -5q-12 0 -12 19q0 22 12 22q84 0 106 18q33 27 33 132v620
q0 32 -15 32q-9 0 -18 -4l-91 -42q-19 0 -19 24q0 6 5 9q140 68 231 150q5 5 12 5q8 0 8 -10l-3 -121v-2v-660q0 -90 16 -115q24 -36 110 -36q10 0 10 -22q0 -19 -10 -19zM1623 237q0 -109 -81 -180q-78 -69 -187 -69t-186 62q-80 65 -80 175q0 149 195 251q-84 56 -118 101
q-46 60 -50 124v17q0 97 70 167q68 65 169 65q141 0 203 -89q34 -50 34 -121q0 -148 -161 -233q192 -125 192 -270zM1493 711q0 101 -62 153q-39 32 -92 32q-79 0 -118 -57l-14 -26l-7 -29q-1 -8 -1 -17q0 -73 66 -136q34 -34 127 -93q101 70 101 173zM1521 186
q0 91 -62 151q-69 64 -130 105q-2 2 -4 3q-125 -73 -125 -205q0 -80 49 -141q50 -62 129 -62q78 0 119 63q24 37 24 86z" />
    <glyph glyph-name="uni2472" unicode="&#x31;&#x39;&#x20dd;" horiz-adv-x="2053" 
d="M100 434q0 296 171 537q155 217 401 319q170 71 355 71q297 0 537 -172q218 -155 320 -402q69 -169 69 -353q0 -297 -172 -538q-90 -126 -215 -216q-241 -172 -539 -172q-297 0 -538 171q-218 156 -319 402q-70 169 -70 353zM184 434q0 -275 161 -496q148 -202 382 -291
q144 -55 300 -55q276 0 498 163q202 148 290 382q54 143 54 297q0 276 -162 498q-148 202 -381 291q-144 54 -299 54q-276 0 -498 -162q-105 -77 -182 -183q-163 -222 -163 -498zM866 -5q-62 5 -187 5q-127 0 -189 -5q-11 0 -11 19q0 22 11 22q86 0 107 18q32 27 32 132v620
q0 32 -15 32q-9 0 -17 -4l-92 -42q-17 0 -17 24q0 6 3 9q139 66 231 150q5 5 12 5q9 0 9 -10l-4 -121v-2v-660q0 -86 17 -115q26 -36 110 -36q9 0 9 -22q0 -19 -9 -19zM1618 616q0 -199 -141 -381q-122 -161 -318 -260h-7l-11 11q-10 15 -10 26q0 4 5 7q140 83 233 193
q71 81 110 239q5 19 9 38q-90 -96 -184 -96q-100 0 -167 79q-64 78 -64 175q0 130 74 214q75 89 205 89q128 0 202 -107q64 -94 64 -227zM1499 615q0 111 -32 179q-44 98 -137 98q-71 0 -111 -66q-35 -54 -35 -130q0 -86 40 -148q49 -76 127 -76q79 0 143 80q5 25 5 63z" />
    <glyph glyph-name="uni2473" unicode="&#x32;&#x30;&#x20dd;" horiz-adv-x="2053" 
d="M1006 174l-72 -156q-11 -24 -36 -24q-96 6 -231 6q-128 0 -255 -6q-29 0 -30 28q0 6 7 13q315 329 408 545q26 58 27 131q0 76 -55 118q-39 31 -94 31q-103 0 -176 -130q-3 -3 -7 -3q-15 0 -28 12q-6 6 -6 10q0 1 1 3q42 85 107 136q76 63 166 62q107 0 169 -75
q52 -58 52 -156q0 -104 -79 -215q-43 -58 -120 -149l-202 -227q-11 -12 -11 -20q0 -11 21 -10h212q116 0 162 42q19 18 30 45q1 4 12 5q22 -1 28 -10q1 -1 1 -3t-1 -3zM100 434q0 296 171 537q155 217 401 319q170 71 355 71q297 0 537 -172q218 -155 320 -402
q69 -169 69 -353q0 -297 -172 -538q-90 -126 -215 -216q-241 -172 -539 -172q-297 0 -538 171q-218 156 -319 402q-70 169 -70 353zM184 434q0 -275 161 -496q148 -202 382 -291q144 -55 300 -55q276 0 498 163q202 148 290 382q54 143 54 297q0 276 -162 498
q-148 202 -381 291q-144 54 -299 54q-276 0 -498 -162q-105 -77 -182 -183q-163 -222 -163 -498zM1690 458q0 -173 -59 -301q-81 -169 -232 -169q-161 0 -235 174q-55 129 -55 314q0 180 57 305q78 170 234 170q159 0 236 -178q54 -132 54 -315zM1564 449q0 173 -29 311
q-29 144 -134 144q-98 0 -140 -170q-28 -109 -28 -248q0 -152 12 -225q22 -138 87 -198q27 -26 66 -26q166 0 166 412z" />
    <glyph glyph-name="uni2474" unicode="&#x28;&#x31;&#x29;" horiz-adv-x="2283" 
d="M160 0zM2142 588q0 -262 -137 -559q-96 -205 -270 -367q-16 -16 -39 -16q-19 0 -35 18q-6 6 -6 12q0 17 18 35q330 342 330 877q0 531 -332 874q-16 16 -16 39q0 12 24 24q10 5 17 5q23 0 39 -14q194 -182 288 -371q119 -241 119 -557zM1254 262q0 -149 44 -181t134 -32
q14 0 14 -28.5t-14 -28.5q-80 8 -264 8t-263 -8q-14 0 -14 28.5t14 28.5q127 0 161 38.5t34 172.5v870q0 47 -21 47q-7 0 -24 -8l-129 -59q-16 -1 -24 16.5t5 30.5q219 106 324 211q6 6 16 6q14 0 13 -14q-6 -125 -6 -172v-926zM647 -324q0 -13 -25 -25l-16 -5q-19 0 -39 16
q-193 174 -288 369q-119 240 -119 557q0 262 137 559q91 199 270 369q16 14 39 14q18 0 35 -17q6 -7 6 -12q0 -17 -18 -37q-330 -346 -330 -876q0 -525 334 -877q14 -14 14 -35z" />
    <glyph glyph-name="uni2475" unicode="&#x28;&#x32;&#x29;" horiz-adv-x="2283" 
d="M160 0zM2142 588q0 -262 -137 -559q-96 -205 -270 -367q-16 -16 -39 -16q-19 0 -35 18q-6 6 -6 12q0 17 18 35q330 342 330 877q0 531 -332 874q-16 16 -16 39q0 12 24 24q10 5 17 5q23 0 39 -14q194 -182 288 -371q119 -241 119 -557zM1557 244l-101 -219
q-15 -33 -51 -33q-135 8 -323 8q-179 0 -359 -8q-41 0 -41 39q0 9 10 18q442 461 572 764q37 81 37 184q0 106 -76 166q-55 43 -133 43q-144 0 -246 -182q-4 -4 -10 -4q-21 0 -39 17q-9 8 -9 14q0 2 1 4q59 119 151 190q106 88 232 88q150 0 238 -106q73 -82 73 -219
q0 -146 -111 -301q-60 -82 -168 -209l-284 -318q-16 -17 -16 -28q0 -15 30 -15h297q163 0 227 60q27 25 43 63q1 6 17 6q31 -1 39 -14q1 -2 1 -4t-1 -4zM647 -324q0 -13 -25 -25l-16 -5q-19 0 -39 16q-193 174 -288 369q-119 240 -119 557q0 262 137 559q91 199 270 369
q16 14 39 14q18 0 35 -17q6 -7 6 -12q0 -17 -18 -37q-330 -346 -330 -876q0 -525 334 -877q14 -14 14 -35z" />
    <glyph glyph-name="uni2476" unicode="&#x28;&#x33;&#x29;" horiz-adv-x="2283" 
d="M160 0zM2142 588q0 -262 -137 -559q-96 -205 -270 -367q-16 -16 -39 -16q-19 0 -35 18q-6 6 -6 12q0 17 18 35q330 342 330 877q0 531 -332 874q-16 16 -16 39q0 12 24 24q10 5 17 5q23 0 39 -14q194 -182 288 -371q119 -241 119 -557zM1495 414q0 -185 -133 -312
q-131 -125 -315 -125q-141 0 -219 54q-56 38 -56 96q0 38 38 62q20 12 42 12q36 0 102 -74q69 -74 146 -74q108 0 174 117q51 94 51 217q0 130 -74 215q-75 88 -208 88q-65 0 -113 -16q-14 0 -14 41q0 39 14 39q180 0 275 93q71 70 71 179q0 101 -69 159q-50 42 -119 42
q-118 0 -207 -137q-1 -3 -6 -3q-22 0 -39 22q-8 9 -8 17q0 2 2 4q137 203 325 203q115 0 193 -84q80 -85 80 -196q0 -167 -183 -271q-32 -18 -32 -25q0 -11 28 -16q254 -51 254 -327zM647 -324q0 -13 -25 -25l-16 -5q-19 0 -39 16q-193 174 -288 369q-119 240 -119 557
q0 262 137 559q91 199 270 369q16 14 39 14q18 0 35 -17q6 -7 6 -12q0 -17 -18 -37q-330 -346 -330 -876q0 -525 334 -877q14 -14 14 -35z" />
    <glyph glyph-name="uni2477" unicode="&#x28;&#x34;&#x29;" horiz-adv-x="2283" 
d="M160 0zM2142 588q0 -262 -137 -559q-96 -205 -270 -367q-16 -16 -39 -16q-19 0 -35 18q-6 6 -6 12q0 17 18 35q330 342 330 877q0 531 -332 874q-16 16 -16 39q0 12 24 24q10 5 17 5q23 0 39 -14q194 -182 288 -371q119 -241 119 -557zM1546 391h-116q-23 0 -23 -20v-244
q0 -78 121 -78q14 0 14 -28.5t-14 -28.5q-77 8 -190 8q-165 0 -242 -8q-14 0 -14 28.5t14 28.5q158 0 158 78v244q0 20 -21 20h-477q-67 0 -67 37q0 11 7 28q11 26 39 64l222 301q14 19 419 604q9 13 39 13q58 0 58 -31l-647 -897q-8 -11 -8 -19q0 -14 26 -14h389
q21 0 21 21v444q0 15 76 15q77 0 77 -15v-444q0 -21 23 -21h116q18 0 18 -43t-18 -43zM647 -324q0 -13 -25 -25l-16 -5q-19 0 -39 16q-193 174 -288 369q-119 240 -119 557q0 262 137 559q91 199 270 369q16 14 39 14q18 0 35 -17q6 -7 6 -12q0 -17 -18 -37
q-330 -346 -330 -876q0 -525 334 -877q14 -14 14 -35z" />
    <glyph glyph-name="uni2478" unicode="&#x28;&#x35;&#x29;" horiz-adv-x="2283" 
d="M160 0zM2142 588q0 -262 -137 -559q-96 -205 -270 -367q-16 -16 -39 -16q-19 0 -35 18q-6 6 -6 12q0 17 18 35q330 342 330 877q0 531 -332 874q-16 16 -16 39q0 12 24 24q10 5 17 5q23 0 39 -14q194 -182 288 -371q119 -241 119 -557zM1489 496q0 -215 -131 -361
q-136 -151 -348 -151q-141 0 -206 53q-36 31 -36 74q0 82 82 82q39 0 109 -64q68 -61 135 -61q112 0 190 116q68 101 68 222q0 208 -141 291q-78 46 -191 46q-50 0 -129 -18h-13q-15 0 -15 23q0 5 1 10l93 530q5 29 32 29h471q7 0 7 -17q0 -53 -26 -107q-9 -19 -15 -19h-383
q-29 0 -33 -27l-43 -234q-3 -23 12 -23l80 5q233 0 347 -139q83 -101 83 -260zM647 -324q0 -13 -25 -25l-16 -5q-19 0 -39 16q-193 174 -288 369q-119 240 -119 557q0 262 137 559q91 199 270 369q16 14 39 14q18 0 35 -17q6 -7 6 -12q0 -17 -18 -37q-330 -346 -330 -876
q0 -525 334 -877q14 -14 14 -35z" />
    <glyph glyph-name="uni2479" unicode="&#x28;&#x36;&#x29;" horiz-adv-x="2283" 
d="M160 0zM2142 588q0 -262 -137 -559q-96 -205 -270 -367q-16 -16 -39 -16q-19 0 -35 18q-6 6 -6 12q0 17 18 35q330 342 330 877q0 531 -332 874q-16 16 -16 39q0 12 24 24q10 5 17 5q23 0 39 -14q194 -182 288 -371q119 -241 119 -557zM1149 -16q-191 0 -292 160
q-81 128 -81 321q0 286 199 545q196 254 453 368h9q23 -7 23 -37q0 -9 -6 -12q-293 -166 -415 -427q-58 -123 -82 -273q152 137 268 137q142 0 231 -119q84 -109 84 -256q0 -168 -106 -284q-111 -123 -285 -123zM1174 63q103 0 164 96q47 73 47 171q0 146 -73 239
q-66 84 -167 84q-113 0 -199 -110q-6 -43 -6 -82q0 -267 113 -358q50 -40 121 -40zM647 -324q0 -13 -25 -25l-16 -5q-19 0 -39 16q-193 174 -288 369q-119 240 -119 557q0 262 137 559q91 199 270 369q16 14 39 14q18 0 35 -17q6 -7 6 -12q0 -17 -18 -37
q-330 -346 -330 -876q0 -525 334 -877q14 -14 14 -35z" />
    <glyph glyph-name="uni247A" unicode="&#x28;&#x37;&#x29;" horiz-adv-x="2283" 
d="M160 0zM2142 588q0 -262 -137 -559q-96 -205 -270 -367q-16 -16 -39 -16q-19 0 -35 18q-6 6 -6 12q0 17 18 35q330 342 330 877q0 531 -332 874q-16 16 -16 39q0 12 24 24q10 5 17 5q23 0 39 -14q194 -182 288 -371q119 -241 119 -557zM1565 1264l-510 -1264
q-7 -14 -82 -14q-68 0 -68 14q13 22 51 100l62 138l397 901q9 22 9 28q0 15 -33 15h-215q-163 0 -211 -13q-106 -29 -146 -131q-6 -14 -34 -14q-24 0 -25 14l51 248q6 31 41 31h682q39 0 39 -23q0 -11 -8 -30zM647 -324q0 -13 -25 -25l-16 -5q-19 0 -39 16
q-193 174 -288 369q-119 240 -119 557q0 262 137 559q91 199 270 369q16 14 39 14q18 0 35 -17q6 -7 6 -12q0 -17 -18 -37q-330 -346 -330 -876q0 -525 334 -877q14 -14 14 -35z" />
    <glyph glyph-name="uni247B" unicode="&#x28;&#x38;&#x29;" horiz-adv-x="2283" 
d="M160 0zM2142 588q0 -262 -137 -559q-96 -205 -270 -367q-16 -16 -39 -16q-19 0 -35 18q-6 6 -6 12q0 17 18 35q330 342 330 877q0 531 -332 874q-16 16 -16 39q0 12 24 24q10 5 17 5q23 0 39 -14q194 -182 288 -371q119 -241 119 -557zM1153 -16q-171 0 -276 98
q-97 90 -97 233q0 209 273 353q-127 82 -166 141q-70 93 -70 199q0 134 99 233q93 92 237 92q183 0 271 -108q61 -74 61 -187q0 -208 -227 -327q270 -173 270 -379q0 -154 -113 -252q-108 -96 -262 -96zM934 1075q0 -128 159 -246q33 -25 111 -75q142 100 142 243
q0 130 -75 204q-53 56 -142 56q-102 0 -158 -71q-37 -48 -37 -111zM1385 260q0 128 -88 213q-85 81 -158 132l-29 20q-174 -101 -174 -289q0 -112 68 -197q71 -88 180 -88q101 0 159 77q42 56 42 132zM647 -324q0 -13 -25 -25l-16 -5q-19 0 -39 16q-193 174 -288 369
q-119 240 -119 557q0 262 137 559q91 199 270 369q16 14 39 14q18 0 35 -17q6 -7 6 -12q0 -17 -18 -37q-330 -346 -330 -876q0 -525 334 -877q14 -14 14 -35z" />
    <glyph glyph-name="uni247C" unicode="&#x28;&#x39;&#x29;" horiz-adv-x="2283" 
d="M160 0zM2142 588q0 -262 -137 -559q-96 -205 -270 -367q-16 -16 -39 -16q-19 0 -35 18q-6 6 -6 12q0 17 18 35q330 342 330 877q0 531 -332 874q-16 16 -16 39q0 12 24 24q10 5 17 5q23 0 39 -14q194 -182 288 -371q119 -241 119 -557zM1159 1333q178 0 281 -145
q92 -129 92 -324q0 -312 -238 -586q-169 -193 -405 -313l-8 -1q-16 5 -27 35q-4 10 -4 17q0 6 6 11q190 111 328 270q117 134 166 389q-128 -135 -258 -135q-134 0 -228 103q-93 110 -96 253q0 192 110 311q107 115 281 115zM924 975q0 -135 70 -227q65 -86 163 -86
q112 0 203 112q6 44 6 88q0 234 -98 333q-35 33 -139 56q-109 0 -166 -106q-39 -73 -39 -170zM647 -324q0 -13 -25 -25l-16 -5q-19 0 -39 16q-193 174 -288 369q-119 240 -119 557q0 262 137 559q91 199 270 369q16 14 39 14q18 0 35 -17q6 -7 6 -12q0 -17 -18 -37
q-330 -346 -330 -876q0 -525 334 -877q14 -14 14 -35z" />
    <glyph glyph-name="uni247D" unicode="&#x28;&#x31;&#x30;&#x29;" horiz-adv-x="3239" 
d="M160 0zM3098 588q0 -262 -137 -559q-96 -205 -270 -367q-16 -16 -39 -16q-19 0 -35 18q-6 6 -6 12q0 17 18 35q330 342 330 877q0 531 -332 874q-16 16 -16 39q0 12 24 24q10 5 17 5q23 0 39 -14q194 -182 288 -371q119 -241 119 -557zM2519 643q0 -281 -107.5 -470
t-305.5 -189t-301 189t-103 493t108 485.5t301 181.5q199 0 303.5 -194.5t104.5 -495.5zM2341 631q0 233 -40.5 435t-187.5 202q-123 0 -180 -180t-57 -399q0 -375 68 -506.5t163 -131.5q111 0 172.5 139.5t61.5 440.5zM1254 262q0 -149 44 -181t134 -32q14 0 14 -28.5
t-14 -28.5q-80 8 -264 8t-263 -8q-14 0 -14 28.5t14 28.5q127 0 161 38.5t34 172.5v870q0 47 -21 47q-7 0 -24 -8l-129 -59q-16 -1 -24 16.5t5 30.5q219 106 324 211q6 6 16 6q14 0 13 -14q-6 -125 -6 -172v-926zM647 -324q0 -13 -25 -25l-16 -5q-19 0 -39 16
q-193 174 -288 369q-119 240 -119 557q0 262 137 559q91 199 270 369q16 14 39 14q18 0 35 -17q6 -7 6 -12q0 -17 -18 -37q-330 -346 -330 -876q0 -525 334 -877q14 -14 14 -35z" />
    <glyph glyph-name="uni247E" unicode="&#x28;&#x31;&#x31;&#x29;" horiz-adv-x="3239" 
d="M160 0zM3098 588q0 -262 -137 -559q-96 -205 -270 -367q-16 -16 -39 -16q-19 0 -35 18q-6 6 -6 12q0 17 18 35q330 342 330 877q0 531 -332 874q-16 16 -16 39q0 12 24 24q10 5 17 5q23 0 39 -14q194 -182 288 -371q119 -241 119 -557zM2210 262q0 -149 44 -181t134 -32
q14 0 14 -28.5t-14 -28.5q-80 8 -264 8t-263 -8q-14 0 -14 28.5t14 28.5q127 0 161 38.5t34 172.5v870q0 47 -21 47q-7 0 -24 -8l-129 -59q-16 -1 -24 16.5t5 30.5q219 106 324 211q6 6 16 6q14 0 13 -14q-6 -125 -6 -172v-926zM1254 262q0 -149 44 -181t134 -32
q14 0 14 -28.5t-14 -28.5q-80 8 -264 8t-263 -8q-14 0 -14 28.5t14 28.5q127 0 161 38.5t34 172.5v870q0 47 -21 47q-7 0 -24 -8l-129 -59q-16 -1 -24 16.5t5 30.5q219 106 324 211q6 6 16 6q14 0 13 -14q-6 -125 -6 -172v-926zM647 -324q0 -13 -25 -25l-16 -5q-19 0 -39 16
q-193 174 -288 369q-119 240 -119 557q0 262 137 559q91 199 270 369q16 14 39 14q18 0 35 -17q6 -7 6 -12q0 -17 -18 -37q-330 -346 -330 -876q0 -525 334 -877q14 -14 14 -35z" />
    <glyph glyph-name="uni247F" unicode="&#x28;&#x31;&#x32;&#x29;" horiz-adv-x="3239" 
d="M160 0zM3098 588q0 -262 -137 -559q-96 -205 -270 -367q-16 -16 -39 -16q-19 0 -35 18q-6 6 -6 12q0 17 18 35q330 342 330 877q0 531 -332 874q-16 16 -16 39q0 12 24 24q10 5 17 5q23 0 39 -14q194 -182 288 -371q119 -241 119 -557zM2513 244l-101 -219
q-15 -33 -51 -33q-135 8 -323 8q-179 0 -359 -8q-41 0 -41 39q0 9 10 18q442 461 572 764q37 81 37 184q0 106 -76 166q-55 43 -133 43q-144 0 -246 -182q-4 -4 -10 -4q-21 0 -39 17q-9 8 -9 14q0 2 1 4q59 119 151 190q106 88 232 88q150 0 238 -106q73 -82 73 -219
q0 -146 -111 -301q-60 -82 -168 -209l-284 -318q-16 -17 -16 -28q0 -15 30 -15h297q163 0 227 60q27 25 43 63q1 6 17 6q31 -1 39 -14q1 -2 1 -4t-1 -4zM1254 262q0 -149 44 -181t134 -32q14 0 14 -28.5t-14 -28.5q-80 8 -264 8t-263 -8q-14 0 -14 28.5t14 28.5
q127 0 161 38.5t34 172.5v870q0 47 -21 47q-7 0 -24 -8l-129 -59q-16 -1 -24 16.5t5 30.5q219 106 324 211q6 6 16 6q14 0 13 -14q-6 -125 -6 -172v-926zM647 -324q0 -13 -25 -25l-16 -5q-19 0 -39 16q-193 174 -288 369q-119 240 -119 557q0 262 137 559q91 199 270 369
q16 14 39 14q18 0 35 -17q6 -7 6 -12q0 -17 -18 -37q-330 -346 -330 -876q0 -525 334 -877q14 -14 14 -35z" />
    <glyph glyph-name="uni2480" unicode="&#x28;&#x31;&#x33;&#x29;" horiz-adv-x="3239" 
d="M160 0zM3098 588q0 -262 -137 -559q-96 -205 -270 -367q-16 -16 -39 -16q-19 0 -35 18q-6 6 -6 12q0 17 18 35q330 342 330 877q0 531 -332 874q-16 16 -16 39q0 12 24 24q10 5 17 5q23 0 39 -14q194 -182 288 -371q119 -241 119 -557zM2451 414q0 -185 -133 -312
q-131 -125 -315 -125q-141 0 -219 54q-56 38 -56 96q0 38 38 62q20 12 42 12q36 0 102 -74q69 -74 146 -74q108 0 174 117q51 94 51 217q0 130 -74 215q-75 88 -208 88q-65 0 -113 -16q-14 0 -14 41q0 39 14 39q180 0 275 93q71 70 71 179q0 101 -69 159q-50 42 -119 42
q-118 0 -207 -137q-1 -3 -6 -3q-22 0 -39 22q-8 9 -8 17q0 2 2 4q137 203 325 203q115 0 193 -84q80 -85 80 -196q0 -167 -183 -271q-32 -18 -32 -25q0 -11 28 -16q254 -51 254 -327zM1254 262q0 -149 44 -181t134 -32q14 0 14 -28.5t-14 -28.5q-80 8 -264 8t-263 -8
q-14 0 -14 28.5t14 28.5q127 0 161 38.5t34 172.5v870q0 47 -21 47q-7 0 -24 -8l-129 -59q-16 -1 -24 16.5t5 30.5q219 106 324 211q6 6 16 6q14 0 13 -14q-6 -125 -6 -172v-926zM647 -324q0 -13 -25 -25l-16 -5q-19 0 -39 16q-193 174 -288 369q-119 240 -119 557
q0 262 137 559q91 199 270 369q16 14 39 14q18 0 35 -17q6 -7 6 -12q0 -17 -18 -37q-330 -346 -330 -876q0 -525 334 -877q14 -14 14 -35z" />
    <glyph glyph-name="uni2481" unicode="&#x28;&#x31;&#x34;&#x29;" horiz-adv-x="3239" 
d="M160 0zM3098 588q0 -262 -137 -559q-96 -205 -270 -367q-16 -16 -39 -16q-19 0 -35 18q-6 6 -6 12q0 17 18 35q330 342 330 877q0 531 -332 874q-16 16 -16 39q0 12 24 24q10 5 17 5q23 0 39 -14q194 -182 288 -371q119 -241 119 -557zM2502 391h-116q-23 0 -23 -20v-244
q0 -78 121 -78q14 0 14 -28.5t-14 -28.5q-77 8 -190 8q-165 0 -242 -8q-14 0 -14 28.5t14 28.5q158 0 158 78v244q0 20 -21 20h-477q-67 0 -67 37q0 11 7 28q11 26 39 64l222 301q14 19 419 604q9 13 39 13q58 0 58 -31l-647 -897q-8 -11 -8 -19q0 -14 26 -14h389
q21 0 21 21v444q0 15 76 15q77 0 77 -15v-444q0 -21 23 -21h116q18 0 18 -43t-18 -43zM1254 262q0 -149 44 -181t134 -32q14 0 14 -28.5t-14 -28.5q-80 8 -264 8t-263 -8q-14 0 -14 28.5t14 28.5q127 0 161 38.5t34 172.5v870q0 47 -21 47q-7 0 -24 -8l-129 -59
q-16 -1 -24 16.5t5 30.5q219 106 324 211q6 6 16 6q14 0 13 -14q-6 -125 -6 -172v-926zM647 -324q0 -13 -25 -25l-16 -5q-19 0 -39 16q-193 174 -288 369q-119 240 -119 557q0 262 137 559q91 199 270 369q16 14 39 14q18 0 35 -17q6 -7 6 -12q0 -17 -18 -37
q-330 -346 -330 -876q0 -525 334 -877q14 -14 14 -35z" />
    <glyph glyph-name="uni2482" unicode="&#x28;&#x31;&#x35;&#x29;" horiz-adv-x="3239" 
d="M160 0zM3098 588q0 -262 -137 -559q-96 -205 -270 -367q-16 -16 -39 -16q-19 0 -35 18q-6 6 -6 12q0 17 18 35q330 342 330 877q0 531 -332 874q-16 16 -16 39q0 12 24 24q10 5 17 5q23 0 39 -14q194 -182 288 -371q119 -241 119 -557zM2445 496q0 -215 -131 -361
q-136 -151 -348 -151q-141 0 -206 53q-36 31 -36 74q0 82 82 82q39 0 109 -64q68 -61 135 -61q112 0 190 116q68 101 68 222q0 208 -141 291q-78 46 -191 46q-50 0 -129 -18h-13q-15 0 -15 23q0 5 1 10l93 530q5 29 32 29h471q7 0 7 -17q0 -53 -26 -107q-9 -19 -15 -19h-383
q-29 0 -33 -27l-43 -234q-3 -23 12 -23l80 5q233 0 347 -139q83 -101 83 -260zM1254 262q0 -149 44 -181t134 -32q14 0 14 -28.5t-14 -28.5q-80 8 -264 8t-263 -8q-14 0 -14 28.5t14 28.5q127 0 161 38.5t34 172.5v870q0 47 -21 47q-7 0 -24 -8l-129 -59q-16 -1 -24 16.5
t5 30.5q219 106 324 211q6 6 16 6q14 0 13 -14q-6 -125 -6 -172v-926zM647 -324q0 -13 -25 -25l-16 -5q-19 0 -39 16q-193 174 -288 369q-119 240 -119 557q0 262 137 559q91 199 270 369q16 14 39 14q18 0 35 -17q6 -7 6 -12q0 -17 -18 -37q-330 -346 -330 -876
q0 -525 334 -877q14 -14 14 -35z" />
    <glyph glyph-name="uni2483" unicode="&#x28;&#x31;&#x36;&#x29;" horiz-adv-x="3239" 
d="M160 0zM3098 588q0 -262 -137 -559q-96 -205 -270 -367q-16 -16 -39 -16q-19 0 -35 18q-6 6 -6 12q0 17 18 35q330 342 330 877q0 531 -332 874q-16 16 -16 39q0 12 24 24q10 5 17 5q23 0 39 -14q194 -182 288 -371q119 -241 119 -557zM2105 -16q-191 0 -292 160
q-81 128 -81 321q0 286 199 545q196 254 453 368h9q23 -7 23 -37q0 -9 -6 -12q-293 -166 -415 -427q-58 -123 -82 -273q152 137 268 137q142 0 231 -119q84 -109 84 -256q0 -168 -106 -284q-111 -123 -285 -123zM2130 63q103 0 164 96q47 73 47 171q0 146 -73 239
q-66 84 -167 84q-113 0 -199 -110q-6 -43 -6 -82q0 -267 113 -358q50 -40 121 -40zM1254 262q0 -149 44 -181t134 -32q14 0 14 -28.5t-14 -28.5q-80 8 -264 8t-263 -8q-14 0 -14 28.5t14 28.5q127 0 161 38.5t34 172.5v870q0 47 -21 47q-7 0 -24 -8l-129 -59
q-16 -1 -24 16.5t5 30.5q219 106 324 211q6 6 16 6q14 0 13 -14q-6 -125 -6 -172v-926zM647 -324q0 -13 -25 -25l-16 -5q-19 0 -39 16q-193 174 -288 369q-119 240 -119 557q0 262 137 559q91 199 270 369q16 14 39 14q18 0 35 -17q6 -7 6 -12q0 -17 -18 -37
q-330 -346 -330 -876q0 -525 334 -877q14 -14 14 -35z" />
    <glyph glyph-name="uni2484" unicode="&#x28;&#x31;&#x37;&#x29;" horiz-adv-x="3239" 
d="M160 0zM3098 588q0 -262 -137 -559q-96 -205 -270 -367q-16 -16 -39 -16q-19 0 -35 18q-6 6 -6 12q0 17 18 35q330 342 330 877q0 531 -332 874q-16 16 -16 39q0 12 24 24q10 5 17 5q23 0 39 -14q194 -182 288 -371q119 -241 119 -557zM2521 1264l-510 -1264
q-7 -14 -82 -14q-68 0 -68 14q13 22 51 100l62 138l397 901q9 22 9 28q0 15 -33 15h-215q-163 0 -211 -13q-106 -29 -146 -131q-6 -14 -34 -14q-24 0 -25 14l51 248q6 31 41 31h682q39 0 39 -23q0 -11 -8 -30zM1254 262q0 -149 44 -181t134 -32q14 0 14 -28.5t-14 -28.5
q-80 8 -264 8t-263 -8q-14 0 -14 28.5t14 28.5q127 0 161 38.5t34 172.5v870q0 47 -21 47q-7 0 -24 -8l-129 -59q-16 -1 -24 16.5t5 30.5q219 106 324 211q6 6 16 6q14 0 13 -14q-6 -125 -6 -172v-926zM647 -324q0 -13 -25 -25l-16 -5q-19 0 -39 16q-193 174 -288 369
q-119 240 -119 557q0 262 137 559q91 199 270 369q16 14 39 14q18 0 35 -17q6 -7 6 -12q0 -17 -18 -37q-330 -346 -330 -876q0 -525 334 -877q14 -14 14 -35z" />
    <glyph glyph-name="uni2485" unicode="&#x28;&#x31;&#x38;&#x29;" horiz-adv-x="3239" 
d="M160 0zM3098 588q0 -262 -137 -559q-96 -205 -270 -367q-16 -16 -39 -16q-19 0 -35 18q-6 6 -6 12q0 17 18 35q330 342 330 877q0 531 -332 874q-16 16 -16 39q0 12 24 24q10 5 17 5q23 0 39 -14q194 -182 288 -371q119 -241 119 -557zM2109 -16q-171 0 -276 98
q-97 90 -97 233q0 209 273 353q-127 82 -166 141q-70 93 -70 199q0 134 99 233q93 92 237 92q183 0 271 -108q61 -74 61 -187q0 -208 -227 -327q270 -173 270 -379q0 -154 -113 -252q-108 -96 -262 -96zM1890 1075q0 -128 159 -246q33 -25 111 -75q142 100 142 243
q0 130 -75 204q-53 56 -142 56q-102 0 -158 -71q-37 -48 -37 -111zM2341 260q0 128 -88 213q-85 81 -158 132l-29 20q-174 -101 -174 -289q0 -112 68 -197q71 -88 180 -88q101 0 159 77q42 56 42 132zM1254 262q0 -149 44 -181t134 -32q14 0 14 -28.5t-14 -28.5
q-80 8 -264 8t-263 -8q-14 0 -14 28.5t14 28.5q127 0 161 38.5t34 172.5v870q0 47 -21 47q-7 0 -24 -8l-129 -59q-16 -1 -24 16.5t5 30.5q219 106 324 211q6 6 16 6q14 0 13 -14q-6 -125 -6 -172v-926zM647 -324q0 -13 -25 -25l-16 -5q-19 0 -39 16q-193 174 -288 369
q-119 240 -119 557q0 262 137 559q91 199 270 369q16 14 39 14q18 0 35 -17q6 -7 6 -12q0 -17 -18 -37q-330 -346 -330 -876q0 -525 334 -877q14 -14 14 -35z" />
    <glyph glyph-name="uni2486" unicode="&#x28;&#x31;&#x39;&#x29;" horiz-adv-x="3239" 
d="M160 0zM3098 588q0 -262 -137 -559q-96 -205 -270 -367q-16 -16 -39 -16q-19 0 -35 18q-6 6 -6 12q0 17 18 35q330 342 330 877q0 531 -332 874q-16 16 -16 39q0 12 24 24q10 5 17 5q23 0 39 -14q194 -182 288 -371q119 -241 119 -557zM2115 1333q178 0 281 -145
q92 -129 92 -324q0 -312 -238 -586q-169 -193 -405 -313l-8 -1q-16 5 -27 35q-4 10 -4 17q0 6 6 11q190 111 328 270q117 134 166 389q-128 -135 -258 -135q-134 0 -228 103q-93 110 -96 253q0 192 110 311q107 115 281 115zM1880 975q0 -135 70 -227q65 -86 163 -86
q112 0 203 112q6 44 6 88q0 234 -98 333q-35 33 -139 56q-109 0 -166 -106q-39 -73 -39 -170zM1254 262q0 -149 44 -181t134 -32q14 0 14 -28.5t-14 -28.5q-80 8 -264 8t-263 -8q-14 0 -14 28.5t14 28.5q127 0 161 38.5t34 172.5v870q0 47 -21 47q-7 0 -24 -8l-129 -59
q-16 -1 -24 16.5t5 30.5q219 106 324 211q6 6 16 6q14 0 13 -14q-6 -125 -6 -172v-926zM647 -324q0 -13 -25 -25l-16 -5q-19 0 -39 16q-193 174 -288 369q-119 240 -119 557q0 262 137 559q91 199 270 369q16 14 39 14q18 0 35 -17q6 -7 6 -12q0 -17 -18 -37
q-330 -346 -330 -876q0 -525 334 -877q14 -14 14 -35z" />
    <glyph glyph-name="uni2487" unicode="&#x28;&#x32;&#x30;&#x29;" horiz-adv-x="3239" 
d="M160 0zM3098 588q0 -262 -137 -559q-96 -205 -270 -367q-16 -16 -39 -16q-19 0 -35 18q-6 6 -6 12q0 17 18 35q330 342 330 877q0 531 -332 874q-16 16 -16 39q0 12 24 24q10 5 17 5q23 0 39 -14q194 -182 288 -371q119 -241 119 -557zM2519 643q0 -281 -107.5 -470
t-305.5 -189t-301 189t-103 493t108 485.5t301 181.5q199 0 303.5 -194.5t104.5 -495.5zM2341 631q0 233 -40.5 435t-187.5 202q-123 0 -180 -180t-57 -399q0 -375 68 -506.5t163 -131.5q111 0 172.5 139.5t61.5 440.5zM1557 244l-101 -219q-15 -33 -51 -33q-135 8 -323 8
q-179 0 -359 -8q-41 0 -41 39q0 9 10 18q442 461 572 764q37 81 37 184q0 106 -76 166q-55 43 -133 43q-144 0 -246 -182q-4 -4 -10 -4q-21 0 -39 17q-9 8 -9 14q0 2 1 4q59 119 151 190q106 88 232 88q150 0 238 -106q73 -82 73 -219q0 -146 -111 -301q-60 -82 -168 -209
l-284 -318q-16 -17 -16 -28q0 -15 30 -15h297q163 0 227 60q27 25 43 63q1 6 17 6q31 -1 39 -14q1 -2 1 -4t-1 -4zM647 -324q0 -13 -25 -25l-16 -5q-19 0 -39 16q-193 174 -288 369q-119 240 -119 557q0 262 137 559q91 199 270 369q16 14 39 14q18 0 35 -17q6 -7 6 -12
q0 -17 -18 -37q-330 -346 -330 -876q0 -525 334 -877q14 -14 14 -35z" />
    <glyph glyph-name="uni2488" unicode="&#x31;&#x2e;" horiz-adv-x="1476" 
d="M215 0zM1095 98q0 51 36 82t91 31t85 -37t30 -87.5t-34.5 -81t-87.5 -30.5t-86.5 36t-33.5 87zM578 262q0 -149 44 -181t134 -32q14 0 14 -28.5t-14 -28.5q-80 8 -264 8t-263 -8q-14 0 -14 28.5t14 28.5q127 0 161 38.5t34 172.5v870q0 47 -21 47q-7 0 -24 -8l-129 -59
q-16 -1 -24 16.5t5 30.5q219 106 324 211q6 6 16 6q14 0 13 -14q-6 -125 -6 -172v-926z" />
    <glyph glyph-name="uni2489" unicode="&#x32;&#x2e;" horiz-adv-x="1476" 
d="M6 0zM1095 98q0 51 36 82t91 31t85 -37t30 -87.5t-34.5 -81t-87.5 -30.5t-86.5 36t-33.5 87zM881 244l-101 -219q-15 -33 -51 -33q-135 8 -323 8q-179 0 -359 -8q-41 0 -41 39q0 9 10 18q442 461 572 764q37 81 37 184q0 106 -76 166q-55 43 -133 43q-144 0 -246 -182
q-4 -4 -10 -4q-21 0 -39 17q-9 8 -9 14q0 2 1 4q59 119 151 190q106 88 232 88q150 0 238 -106q73 -82 73 -219q0 -146 -111 -301q-60 -82 -168 -209l-284 -318q-16 -17 -16 -28q0 -15 30 -15h297q163 0 227 60q27 25 43 63q1 6 17 6q31 -1 39 -14q1 -2 1 -4t-1 -4z" />
    <glyph glyph-name="uni248A" unicode="&#x33;&#x2e;" horiz-adv-x="1476" 
d="M96 0zM1095 98q0 51 36 82t91 31t85 -37t30 -87.5t-34.5 -81t-87.5 -30.5t-86.5 36t-33.5 87zM819 414q0 -185 -133 -312q-131 -125 -315 -125q-141 0 -219 54q-56 38 -56 96q0 38 38 62q20 12 42 12q36 0 102 -74q69 -74 146 -74q108 0 174 117q51 94 51 217
q0 130 -74 215q-75 88 -208 88q-65 0 -113 -16q-14 0 -14 41q0 39 14 39q180 0 275 93q71 70 71 179q0 101 -69 159q-50 42 -119 42q-118 0 -207 -137q-1 -3 -6 -3q-22 0 -39 22q-8 9 -8 17q0 2 2 4q137 203 325 203q115 0 193 -84q80 -85 80 -196q0 -167 -183 -271
q-32 -18 -32 -25q0 -11 28 -16q254 -51 254 -327z" />
    <glyph glyph-name="uni248B" unicode="&#x34;&#x2e;" horiz-adv-x="1476" 
d="M13 0zM1095 98q0 51 36 82t91 31t85 -37t30 -87.5t-34.5 -81t-87.5 -30.5t-86.5 36t-33.5 87zM870 391h-116q-23 0 -23 -20v-244q0 -78 121 -78q14 0 14 -28.5t-14 -28.5q-77 8 -190 8q-165 0 -242 -8q-14 0 -14 28.5t14 28.5q158 0 158 78v244q0 20 -21 20h-477
q-67 0 -67 37q0 11 7 28q11 26 39 64l222 301q14 19 419 604q9 13 39 13q58 0 58 -31l-647 -897q-8 -11 -8 -19q0 -14 26 -14h389q21 0 21 21v444q0 15 76 15q77 0 77 -15v-444q0 -21 23 -21h116q18 0 18 -43t-18 -43z" />
    <glyph glyph-name="uni248C" unicode="&#x35;&#x2e;" horiz-adv-x="1476" 
d="M92 0zM1095 98q0 51 36 82t91 31t85 -37t30 -87.5t-34.5 -81t-87.5 -30.5t-86.5 36t-33.5 87zM813 496q0 -215 -131 -361q-136 -151 -348 -151q-141 0 -206 53q-36 31 -36 74q0 82 82 82q39 0 109 -64q68 -61 135 -61q112 0 190 116q68 101 68 222q0 208 -141 291
q-78 46 -191 46q-50 0 -129 -18h-13q-15 0 -15 23q0 5 1 10l93 530q5 29 32 29h471q7 0 7 -17q0 -53 -26 -107q-9 -19 -15 -19h-383q-29 0 -33 -27l-43 -234q-3 -23 12 -23l80 5q233 0 347 -139q83 -101 83 -260z" />
    <glyph glyph-name="uni248D" unicode="&#x36;&#x2e;" horiz-adv-x="1476" 
d="M100 0zM1095 98q0 51 36 82t91 31t85 -37t30 -87.5t-34.5 -81t-87.5 -30.5t-86.5 36t-33.5 87zM473 -16q-191 0 -292 160q-81 128 -81 321q0 286 199 545q196 254 453 368h9q23 -7 23 -37q0 -9 -6 -12q-293 -166 -415 -427q-58 -123 -82 -273q152 137 268 137
q142 0 231 -119q84 -109 84 -256q0 -168 -106 -284q-111 -123 -285 -123zM498 63q103 0 164 96q47 73 47 171q0 146 -73 239q-66 84 -167 84q-113 0 -199 -110q-6 -43 -6 -82q0 -267 113 -358q50 -40 121 -40z" />
    <glyph glyph-name="uni248E" unicode="&#x37;&#x2e;" horiz-adv-x="1476" 
d="M84 0zM1095 98q0 51 36 82t91 31t85 -37t30 -87.5t-34.5 -81t-87.5 -30.5t-86.5 36t-33.5 87zM889 1264l-510 -1264q-7 -14 -82 -14q-68 0 -68 14q13 22 51 100l62 138l397 901q9 22 9 28q0 15 -33 15h-215q-163 0 -211 -13q-106 -29 -146 -131q-6 -14 -34 -14
q-24 0 -25 14l51 248q6 31 41 31h682q39 0 39 -23q0 -11 -8 -30z" />
    <glyph glyph-name="uni248F" unicode="&#x38;&#x2e;" horiz-adv-x="1476" 
d="M104 0zM1095 98q0 51 36 82t91 31t85 -37t30 -87.5t-34.5 -81t-87.5 -30.5t-86.5 36t-33.5 87zM477 -16q-171 0 -276 98q-97 90 -97 233q0 209 273 353q-127 82 -166 141q-70 93 -70 199q0 134 99 233q93 92 237 92q183 0 271 -108q61 -74 61 -187q0 -208 -227 -327
q270 -173 270 -379q0 -154 -113 -252q-108 -96 -262 -96zM258 1075q0 -128 159 -246q33 -25 111 -75q142 100 142 243q0 130 -75 204q-53 56 -142 56q-102 0 -158 -71q-37 -48 -37 -111zM709 260q0 128 -88 213q-85 81 -158 132l-29 20q-174 -101 -174 -289q0 -112 68 -197
q71 -88 180 -88q101 0 159 77q42 56 42 132z" />
    <glyph glyph-name="uni2490" unicode="&#x39;&#x2e;" horiz-adv-x="1476" 
d="M92 0zM1095 98q0 51 36 82t91 31t85 -37t30 -87.5t-34.5 -81t-87.5 -30.5t-86.5 36t-33.5 87zM483 1333q178 0 281 -145q92 -129 92 -324q0 -312 -238 -586q-169 -193 -405 -313l-8 -1q-16 5 -27 35q-4 10 -4 17q0 6 6 11q190 111 328 270q117 134 166 389
q-128 -135 -258 -135q-134 0 -228 103q-93 110 -96 253q0 192 110 311q107 115 281 115zM248 975q0 -135 70 -227q65 -86 163 -86q112 0 203 112q6 44 6 88q0 234 -98 333q-35 33 -139 56q-109 0 -166 -106q-39 -73 -39 -170z" />
    <glyph glyph-name="uni2491" unicode="&#x31;&#x30;&#x2e;" horiz-adv-x="2432" 
d="M215 0zM2051 98q0 51 36 82t91 31t85 -37t30 -87.5t-34.5 -81t-87.5 -30.5t-86.5 36t-33.5 87zM1843 643q0 -281 -107.5 -470t-305.5 -189t-301 189t-103 493t108 485.5t301 181.5q199 0 303.5 -194.5t104.5 -495.5zM1665 631q0 233 -40.5 435t-187.5 202
q-123 0 -180 -180t-57 -399q0 -375 68 -506.5t163 -131.5q111 0 172.5 139.5t61.5 440.5zM578 262q0 -149 44 -181t134 -32q14 0 14 -28.5t-14 -28.5q-80 8 -264 8t-263 -8q-14 0 -14 28.5t14 28.5q127 0 161 38.5t34 172.5v870q0 47 -21 47q-7 0 -24 -8l-129 -59
q-16 -1 -24 16.5t5 30.5q219 106 324 211q6 6 16 6q14 0 13 -14q-6 -125 -6 -172v-926z" />
    <glyph glyph-name="uni2492" unicode="&#x31;&#x31;&#x2e;" horiz-adv-x="2432" 
d="M215 0zM2051 98q0 51 36 82t91 31t85 -37t30 -87.5t-34.5 -81t-87.5 -30.5t-86.5 36t-33.5 87zM1534 262q0 -149 44 -181t134 -32q14 0 14 -28.5t-14 -28.5q-80 8 -264 8t-263 -8q-14 0 -14 28.5t14 28.5q127 0 161 38.5t34 172.5v870q0 47 -21 47q-7 0 -24 -8l-129 -59
q-16 -1 -24 16.5t5 30.5q219 106 324 211q6 6 16 6q14 0 13 -14q-6 -125 -6 -172v-926zM578 262q0 -149 44 -181t134 -32q14 0 14 -28.5t-14 -28.5q-80 8 -264 8t-263 -8q-14 0 -14 28.5t14 28.5q127 0 161 38.5t34 172.5v870q0 47 -21 47q-7 0 -24 -8l-129 -59
q-16 -1 -24 16.5t5 30.5q219 106 324 211q6 6 16 6q14 0 13 -14q-6 -125 -6 -172v-926z" />
    <glyph glyph-name="uni2493" unicode="&#x31;&#x32;&#x2e;" horiz-adv-x="2432" 
d="M215 0zM2051 98q0 51 36 82t91 31t85 -37t30 -87.5t-34.5 -81t-87.5 -30.5t-86.5 36t-33.5 87zM1837 244l-101 -219q-15 -33 -51 -33q-135 8 -323 8q-179 0 -359 -8q-41 0 -41 39q0 9 10 18q442 461 572 764q37 81 37 184q0 106 -76 166q-55 43 -133 43q-144 0 -246 -182
q-4 -4 -10 -4q-21 0 -39 17q-9 8 -9 14q0 2 1 4q59 119 151 190q106 88 232 88q150 0 238 -106q73 -82 73 -219q0 -146 -111 -301q-60 -82 -168 -209l-284 -318q-16 -17 -16 -28q0 -15 30 -15h297q163 0 227 60q27 25 43 63q1 6 17 6q31 -1 39 -14q1 -2 1 -4t-1 -4zM578 262
q0 -149 44 -181t134 -32q14 0 14 -28.5t-14 -28.5q-80 8 -264 8t-263 -8q-14 0 -14 28.5t14 28.5q127 0 161 38.5t34 172.5v870q0 47 -21 47q-7 0 -24 -8l-129 -59q-16 -1 -24 16.5t5 30.5q219 106 324 211q6 6 16 6q14 0 13 -14q-6 -125 -6 -172v-926z" />
    <glyph glyph-name="uni2494" unicode="&#x31;&#x33;&#x2e;" horiz-adv-x="2432" 
d="M215 0zM2051 98q0 51 36 82t91 31t85 -37t30 -87.5t-34.5 -81t-87.5 -30.5t-86.5 36t-33.5 87zM1775 414q0 -185 -133 -312q-131 -125 -315 -125q-141 0 -219 54q-56 38 -56 96q0 38 38 62q20 12 42 12q36 0 102 -74q69 -74 146 -74q108 0 174 117q51 94 51 217
q0 130 -74 215q-75 88 -208 88q-65 0 -113 -16q-14 0 -14 41q0 39 14 39q180 0 275 93q71 70 71 179q0 101 -69 159q-50 42 -119 42q-118 0 -207 -137q-1 -3 -6 -3q-22 0 -39 22q-8 9 -8 17q0 2 2 4q137 203 325 203q115 0 193 -84q80 -85 80 -196q0 -167 -183 -271
q-32 -18 -32 -25q0 -11 28 -16q254 -51 254 -327zM578 262q0 -149 44 -181t134 -32q14 0 14 -28.5t-14 -28.5q-80 8 -264 8t-263 -8q-14 0 -14 28.5t14 28.5q127 0 161 38.5t34 172.5v870q0 47 -21 47q-7 0 -24 -8l-129 -59q-16 -1 -24 16.5t5 30.5q219 106 324 211
q6 6 16 6q14 0 13 -14q-6 -125 -6 -172v-926z" />
    <glyph glyph-name="uni2495" unicode="&#x31;&#x34;&#x2e;" horiz-adv-x="2432" 
d="M215 0zM2051 98q0 51 36 82t91 31t85 -37t30 -87.5t-34.5 -81t-87.5 -30.5t-86.5 36t-33.5 87zM1826 391h-116q-23 0 -23 -20v-244q0 -78 121 -78q14 0 14 -28.5t-14 -28.5q-77 8 -190 8q-165 0 -242 -8q-14 0 -14 28.5t14 28.5q158 0 158 78v244q0 20 -21 20h-477
q-67 0 -67 37q0 11 7 28q11 26 39 64l222 301q14 19 419 604q9 13 39 13q58 0 58 -31l-647 -897q-8 -11 -8 -19q0 -14 26 -14h389q21 0 21 21v444q0 15 76 15q77 0 77 -15v-444q0 -21 23 -21h116q18 0 18 -43t-18 -43zM578 262q0 -149 44 -181t134 -32q14 0 14 -28.5
t-14 -28.5q-80 8 -264 8t-263 -8q-14 0 -14 28.5t14 28.5q127 0 161 38.5t34 172.5v870q0 47 -21 47q-7 0 -24 -8l-129 -59q-16 -1 -24 16.5t5 30.5q219 106 324 211q6 6 16 6q14 0 13 -14q-6 -125 -6 -172v-926z" />
    <glyph glyph-name="uni2496" unicode="&#x31;&#x35;&#x2e;" horiz-adv-x="2432" 
d="M215 0zM2051 98q0 51 36 82t91 31t85 -37t30 -87.5t-34.5 -81t-87.5 -30.5t-86.5 36t-33.5 87zM1769 496q0 -215 -131 -361q-136 -151 -348 -151q-141 0 -206 53q-36 31 -36 74q0 82 82 82q39 0 109 -64q68 -61 135 -61q112 0 190 116q68 101 68 222q0 208 -141 291
q-78 46 -191 46q-50 0 -129 -18h-13q-15 0 -15 23q0 5 1 10l93 530q5 29 32 29h471q7 0 7 -17q0 -53 -26 -107q-9 -19 -15 -19h-383q-29 0 -33 -27l-43 -234q-3 -23 12 -23l80 5q233 0 347 -139q83 -101 83 -260zM578 262q0 -149 44 -181t134 -32q14 0 14 -28.5t-14 -28.5
q-80 8 -264 8t-263 -8q-14 0 -14 28.5t14 28.5q127 0 161 38.5t34 172.5v870q0 47 -21 47q-7 0 -24 -8l-129 -59q-16 -1 -24 16.5t5 30.5q219 106 324 211q6 6 16 6q14 0 13 -14q-6 -125 -6 -172v-926z" />
    <glyph glyph-name="uni2497" unicode="&#x31;&#x36;&#x2e;" horiz-adv-x="2432" 
d="M215 0zM2051 98q0 51 36 82t91 31t85 -37t30 -87.5t-34.5 -81t-87.5 -30.5t-86.5 36t-33.5 87zM1429 -16q-191 0 -292 160q-81 128 -81 321q0 286 199 545q196 254 453 368h9q23 -7 23 -37q0 -9 -6 -12q-293 -166 -415 -427q-58 -123 -82 -273q152 137 268 137
q142 0 231 -119q84 -109 84 -256q0 -168 -106 -284q-111 -123 -285 -123zM1454 63q103 0 164 96q47 73 47 171q0 146 -73 239q-66 84 -167 84q-113 0 -199 -110q-6 -43 -6 -82q0 -267 113 -358q50 -40 121 -40zM578 262q0 -149 44 -181t134 -32q14 0 14 -28.5t-14 -28.5
q-80 8 -264 8t-263 -8q-14 0 -14 28.5t14 28.5q127 0 161 38.5t34 172.5v870q0 47 -21 47q-7 0 -24 -8l-129 -59q-16 -1 -24 16.5t5 30.5q219 106 324 211q6 6 16 6q14 0 13 -14q-6 -125 -6 -172v-926z" />
    <glyph glyph-name="uni2498" unicode="&#x31;&#x37;&#x2e;" horiz-adv-x="2432" 
d="M215 0zM2051 98q0 51 36 82t91 31t85 -37t30 -87.5t-34.5 -81t-87.5 -30.5t-86.5 36t-33.5 87zM1845 1264l-510 -1264q-7 -14 -82 -14q-68 0 -68 14q13 22 51 100l62 138l397 901q9 22 9 28q0 15 -33 15h-215q-163 0 -211 -13q-106 -29 -146 -131q-6 -14 -34 -14
q-24 0 -25 14l51 248q6 31 41 31h682q39 0 39 -23q0 -11 -8 -30zM578 262q0 -149 44 -181t134 -32q14 0 14 -28.5t-14 -28.5q-80 8 -264 8t-263 -8q-14 0 -14 28.5t14 28.5q127 0 161 38.5t34 172.5v870q0 47 -21 47q-7 0 -24 -8l-129 -59q-16 -1 -24 16.5t5 30.5
q219 106 324 211q6 6 16 6q14 0 13 -14q-6 -125 -6 -172v-926z" />
    <glyph glyph-name="uni2499" unicode="&#x31;&#x38;&#x2e;" horiz-adv-x="2432" 
d="M215 0zM2051 98q0 51 36 82t91 31t85 -37t30 -87.5t-34.5 -81t-87.5 -30.5t-86.5 36t-33.5 87zM1433 -16q-171 0 -276 98q-97 90 -97 233q0 209 273 353q-127 82 -166 141q-70 93 -70 199q0 134 99 233q93 92 237 92q183 0 271 -108q61 -74 61 -187q0 -208 -227 -327
q270 -173 270 -379q0 -154 -113 -252q-108 -96 -262 -96zM1214 1075q0 -128 159 -246q33 -25 111 -75q142 100 142 243q0 130 -75 204q-53 56 -142 56q-102 0 -158 -71q-37 -48 -37 -111zM1665 260q0 128 -88 213q-85 81 -158 132l-29 20q-174 -101 -174 -289
q0 -112 68 -197q71 -88 180 -88q101 0 159 77q42 56 42 132zM578 262q0 -149 44 -181t134 -32q14 0 14 -28.5t-14 -28.5q-80 8 -264 8t-263 -8q-14 0 -14 28.5t14 28.5q127 0 161 38.5t34 172.5v870q0 47 -21 47q-7 0 -24 -8l-129 -59q-16 -1 -24 16.5t5 30.5
q219 106 324 211q6 6 16 6q14 0 13 -14q-6 -125 -6 -172v-926z" />
    <glyph glyph-name="uni249A" unicode="&#x31;&#x39;&#x2e;" horiz-adv-x="2432" 
d="M215 0zM2051 98q0 51 36 82t91 31t85 -37t30 -87.5t-34.5 -81t-87.5 -30.5t-86.5 36t-33.5 87zM1439 1333q178 0 281 -145q92 -129 92 -324q0 -312 -238 -586q-169 -193 -405 -313l-8 -1q-16 5 -27 35q-4 10 -4 17q0 6 6 11q190 111 328 270q117 134 166 389
q-128 -135 -258 -135q-134 0 -228 103q-93 110 -96 253q0 192 110 311q107 115 281 115zM1204 975q0 -135 70 -227q65 -86 163 -86q112 0 203 112q6 44 6 88q0 234 -98 333q-35 33 -139 56q-109 0 -166 -106q-39 -73 -39 -170zM578 262q0 -149 44 -181t134 -32
q14 0 14 -28.5t-14 -28.5q-80 8 -264 8t-263 -8q-14 0 -14 28.5t14 28.5q127 0 161 38.5t34 172.5v870q0 47 -21 47q-7 0 -24 -8l-129 -59q-16 -1 -24 16.5t5 30.5q219 106 324 211q6 6 16 6q14 0 13 -14q-6 -125 -6 -172v-926z" />
    <glyph glyph-name="uni249B" unicode="&#x32;&#x30;&#x2e;" horiz-adv-x="2432" 
d="M6 0zM2051 98q0 51 36 82t91 31t85 -37t30 -87.5t-34.5 -81t-87.5 -30.5t-86.5 36t-33.5 87zM1843 643q0 -281 -107.5 -470t-305.5 -189t-301 189t-103 493t108 485.5t301 181.5q199 0 303.5 -194.5t104.5 -495.5zM1665 631q0 233 -40.5 435t-187.5 202q-123 0 -180 -180
t-57 -399q0 -375 68 -506.5t163 -131.5q111 0 172.5 139.5t61.5 440.5zM881 244l-101 -219q-15 -33 -51 -33q-135 8 -323 8q-179 0 -359 -8q-41 0 -41 39q0 9 10 18q442 461 572 764q37 81 37 184q0 106 -76 166q-55 43 -133 43q-144 0 -246 -182q-4 -4 -10 -4q-21 0 -39 17
q-9 8 -9 14q0 2 1 4q59 119 151 190q106 88 232 88q150 0 238 -106q73 -82 73 -219q0 -146 -111 -301q-60 -82 -168 -209l-284 -318q-16 -17 -16 -28q0 -15 30 -15h297q163 0 227 60q27 25 43 63q1 6 17 6q31 -1 39 -14q1 -2 1 -4t-1 -4z" />
    <glyph glyph-name="uni249C" unicode="&#x28;a&#x29;" horiz-adv-x="2124" 
d="M160 0zM1983 588q0 -262 -137 -559q-96 -205 -270 -367q-16 -16 -39 -16q-19 0 -35 18q-6 6 -6 12q0 17 18 35q330 342 330 877q0 531 -332 874q-16 16 -16 39q0 12 24 24q10 5 17 5q23 0 39 -14q194 -182 288 -371q119 -241 119 -557zM1157 199v215q0 22 -14 22
q-7 0 -60 -26q-170 -85 -170 -222q0 -49 31.5 -79.5t87.5 -30.5q40 0 82.5 42.5t42.5 78.5zM1456 123q22 -3 29 -30q0 -3 -1 -5q-41 -69 -76 -90t-92 -21q-105 0 -142 136q-76 -76 -121 -106t-132 -30q-56 0 -93 31t-52.5 71.5t-15.5 82.5t20 82.5t58.5 73t66.5 47.5
l232 129q20 11 20 32v181q0 88 -133 88q-97 0 -135 -50q-5 -7 -15 -93q-12 -99 -69 -99q-55 0 -55 56t40.5 112.5t69.5 73.5q128 75 246 75q71 0 137.5 -40t66.5 -99v-532q0 -115 67 -115q19 0 72 37q3 2 7 2zM647 -324q0 -13 -25 -25l-16 -5q-19 0 -39 16
q-193 174 -288 369q-119 240 -119 557q0 262 137 559q91 199 270 369q16 14 39 14q18 0 35 -17q6 -7 6 -12q0 -17 -18 -37q-330 -346 -330 -876q0 -525 334 -877q14 -14 14 -35z" />
    <glyph glyph-name="uni249D" unicode="&#x28;b&#x29;" horiz-adv-x="2328" 
d="M160 0zM2187 588q0 -262 -137 -559q-96 -205 -270 -367q-16 -16 -39 -16q-19 0 -35 18q-6 6 -6 12q0 17 18 35q330 342 330 877q0 531 -332 874q-16 16 -16 39q0 12 24 24q10 5 17 5q23 0 39 -14q194 -182 288 -371q119 -241 119 -557zM1606 430q0 -218 -111.5 -335.5
t-294.5 -117.5q-59 0 -155 46q-24 10 -58 10t-96 -56q-3 -2 -9 -2t-21 6q-31 12 -31 19q4 61 4 260v918q0 133 -92 133q-17 0 -17 27.5t17 27.5q25 0 105 41t100.5 59.5t32.5 18.5t13 -25l-6 -124v-500q0 -27 13 -27q9 0 20 6q94 55 176 55q176 0 293 -131.5t117 -308.5z
M1432 414q0 156 -76.5 266.5t-198.5 110.5q-86 0 -147 -50q-23 -18 -23 -94v-346q0 -81 75.5 -172.5t171.5 -91.5t147 110.5t51 266.5zM647 -324q0 -13 -25 -25l-16 -5q-19 0 -39 16q-193 174 -288 369q-119 240 -119 557q0 262 137 559q91 199 270 369q16 14 39 14
q18 0 35 -17q6 -7 6 -12q0 -17 -18 -37q-330 -346 -330 -876q0 -525 334 -877q14 -14 14 -35z" />
    <glyph glyph-name="uni249E" unicode="&#x28;c&#x29;" horiz-adv-x="2144" 
d="M160 0zM2003 588q0 -262 -137 -559q-96 -205 -270 -367q-16 -16 -39 -16q-19 0 -35 18q-6 6 -6 12q0 17 18 35q330 342 330 877q0 531 -332 874q-16 16 -16 39q0 12 24 24q10 5 17 5q23 0 39 -14q194 -182 288 -371q119 -241 119 -557zM1419 152q11 5 24.5 -15.5
t13.5 -28.5q0 -6 -5 -11q-26 -23 -108 -71q-80 -48 -222 -49q-146 0 -253 117t-107 302t122 329.5t315 144.5q196 0 233 -73q6 -12 6 -41q0 -19 -22 -46.5t-39 -27.5t-27 14q-78 107 -173 107t-173 -102q-78 -103 -79 -261q0 -158 89.5 -254t191.5 -96q77 0 213 62z
M647 -324q0 -13 -25 -25l-16 -5q-19 0 -39 16q-193 174 -288 369q-119 240 -119 557q0 262 137 559q91 199 270 369q16 14 39 14q18 0 35 -17q6 -7 6 -12q0 -17 -18 -37q-330 -346 -330 -876q0 -525 334 -877q14 -14 14 -35z" />
    <glyph glyph-name="uni249F" unicode="&#x28;d&#x29;" horiz-adv-x="2339" 
d="M160 0zM2198 588q0 -262 -137 -559q-96 -205 -270 -367q-16 -16 -39 -16q-19 0 -35 18q-6 6 -6 12q0 17 18 35q330 342 330 877q0 531 -332 874q-16 16 -16 39q0 12 24 24q10 5 17 5q23 0 39 -14q194 -182 288 -371q119 -241 119 -557zM1517 231q0 -149 82 -149
q11 0 47 6q12 2 18 -37q2 -19 -6 -20q-37 -5 -153 -31.5t-124 -32.5q-17 0 -17 49v41q0 23 -11.5 23t-27.5 -14q-94 -89 -196 -89q-197 0 -292 122.5t-95 311.5t132 324t343 135q70 0 114 -14q12 -4 19 -4q14 0 14 25v294q0 140 -92 140q-17 0 -17 27.5t17 27.5
q25 0 96.5 36.5t103 59.5t41.5 23q11 0 10 -15l-6 -108v-1131zM1364 199v469q0 75 -22 94q-59 49 -148 49q-134 0 -211.5 -111.5t-77.5 -259.5t83 -257t192 -109q78 0 131 41t53 84zM647 -324q0 -13 -25 -25l-16 -5q-19 0 -39 16q-193 174 -288 369q-119 240 -119 557
q0 262 137 559q91 199 270 369q16 14 39 14q18 0 35 -17q6 -7 6 -12q0 -17 -18 -37q-330 -346 -330 -876q0 -525 334 -877q14 -14 14 -35z" />
    <glyph glyph-name="uni24A0" unicode="&#x28;e&#x29;" horiz-adv-x="2165" 
d="M160 0zM2024 588q0 -262 -137 -559q-96 -205 -270 -367q-16 -16 -39 -16q-19 0 -35 18q-6 6 -6 12q0 17 18 35q330 342 330 877q0 531 -332 874q-16 16 -16 39q0 12 24 24q10 5 17 5q23 0 39 -14q194 -182 288 -371q119 -241 119 -557zM761 431q0 178 113.5 308.5
t254.5 130.5t228 -98t87 -160t-51 -63h-449q-30 0 -30 -66q0 -160 76.5 -274.5t211.5 -114.5q101 0 201 60q5 3 11 3q12 0 21 -11q7 -7 7 -21q0 -5 -4 -8q-158 -140 -311 -140t-259.5 138t-106.5 316zM937 630q0 -14 24 -14h321q15 0 15 17q0 44 -54.5 111t-113.5 67
q-65 0 -112.5 -43.5t-76.5 -122.5q-3 -8 -3 -15zM647 -324q0 -13 -25 -25l-16 -5q-19 0 -39 16q-193 174 -288 369q-119 240 -119 557q0 262 137 559q91 199 270 369q16 14 39 14q18 0 35 -17q6 -7 6 -12q0 -17 -18 -37q-330 -346 -330 -876q0 -525 334 -877q14 -14 14 -35z
" />
    <glyph glyph-name="uni24A1" unicode="&#x28;f&#x29;" horiz-adv-x="2151" 
d="M160 0zM2010 588q0 -262 -137 -559q-96 -205 -270 -367q-16 -16 -39 -16q-19 0 -35 18q-6 6 -6 12q0 17 18 35q330 342 330 877q0 531 -332 874q-16 16 -16 39q0 12 24 24q10 5 17 5q23 0 39 -14q194 -182 288 -371q119 -241 119 -557zM877 127v600q0 37 -37 37h-74
q-15 0 -15 27.5t15 27.5q111 0 111 86v19q0 250 141 406.5t330 156.5q53 0 96 -13q42 -13 66 -39q24 -25 24 -67q0 -30 -27.5 -57t-58.5 -27q-56 0 -101.5 54.5t-99.5 54.5q-106 0 -161.5 -85t-55.5 -207v-214q0 -37 37 -37h203q15 0 15 -43t-15 -43h-203q-37 0 -37 -37
v-600q0 -78 148 -78q14 0 14 -28.5t-14 -28.5q-85 8 -211 8t-207 -8q-14 0 -14 28.5t14 28.5q117 0 117 78zM647 -324q0 -13 -25 -25l-16 -5q-19 0 -39 16q-193 174 -288 369q-119 240 -119 557q0 262 137 559q91 199 270 369q16 14 39 14q18 0 35 -17q6 -7 6 -12
q0 -17 -18 -37q-330 -346 -330 -876q0 -525 334 -877q14 -14 14 -35z" />
    <glyph glyph-name="uni24A2" unicode="&#x28;g&#x29;" horiz-adv-x="2275" 
d="M160 0zM2134 588q0 -262 -137 -559q-96 -205 -270 -367q-16 -16 -39 -16q-19 0 -35 18q-6 6 -6 12q0 17 18 35q330 342 330 877q0 531 -332 874q-16 16 -16 39q0 12 24 24q10 5 17 5q23 0 39 -14q194 -182 288 -371q119 -241 119 -557zM735 -308q0 100 187 234
q16 14 16 22q-2 11 -20 15q-136 39 -136 148q0 51 114 131q10 7 23.5 15t13.5 20t-15 22q-146 93 -146 239t100.5 239t227.5 93t214 -38.5t138 -38.5h172q15 0 15 -43t-15 -43h-166q4 -37 4 -109q0 -145 -94 -241.5t-262 -96.5q-33 0 -76 4q-21 0 -43 -14q-69 -45 -69 -100
q0 -80 149 -80h254q297 0 297 -228q0 -170 -159.5 -285.5t-354.5 -115.5q-181 0 -275 70.5t-94 180.5zM895 -252q0 -98 73 -157.5t211 -59.5t227 66.5t89 160.5q0 187 -244 187h-184q-35 0 -61 -19q-111 -80 -111 -178zM926 569q0 -109 66 -179.5t145 -70.5q170 0 170 224
q0 172 -86 237q-41 31 -110 31t-127 -66.5t-58 -175.5zM647 -324q0 -13 -25 -25l-16 -5q-19 0 -39 16q-193 174 -288 369q-119 240 -119 557q0 262 137 559q91 199 270 369q16 14 39 14q18 0 35 -17q6 -7 6 -12q0 -17 -18 -37q-330 -346 -330 -876q0 -525 334 -877
q14 -14 14 -35z" />
    <glyph glyph-name="uni24A3" unicode="&#x28;h&#x29;" horiz-adv-x="2421" 
d="M160 0zM2280 588q0 -262 -137 -559q-96 -205 -270 -367q-16 -16 -39 -16q-19 0 -35 18q-6 6 -6 12q0 17 18 35q330 342 330 877q0 531 -332 874q-16 16 -16 39q0 12 24 24q10 5 17 5q23 0 39 -14q194 -182 288 -371q119 -241 119 -557zM1597 127q0 -78 127 -78
q14 0 14 -28.5t-14 -28.5q-82 8 -198 8t-195 -8q-14 0 -14 28.5t14 28.5q113 0 113 78v420q0 97 -59 165t-143 68t-148 -51t-64 -100v-502q0 -78 111 -78q14 0 14 -28.5t-14 -28.5q-105 8 -205 8t-180 -8q-14 0 -14 28.5t14 28.5q121 0 121 78v1047q0 139 -92 139
q-17 0 -17 27.5t17 27.5q33 0 97.5 34t97.5 60q32 26 44 25q12 0 12 -17q-6 -107 -6 -165v-514q0 -25 16 -25q9 0 17 8q91 96 241 96q145 0 219 -105.5t74 -215.5v-422zM647 -324q0 -13 -25 -25l-16 -5q-19 0 -39 16q-193 174 -288 369q-119 240 -119 557q0 262 137 559
q91 199 270 369q16 14 39 14q18 0 35 -17q6 -7 6 -12q0 -17 -18 -37q-330 -346 -330 -876q0 -525 334 -877q14 -14 14 -35z" />
    <glyph glyph-name="uni24A4" unicode="&#x28;i&#x29;" horiz-adv-x="1851" 
d="M160 0zM1710 588q0 -262 -137 -559q-96 -205 -270 -367q-16 -16 -39 -16q-19 0 -35 18q-6 6 -6 12q0 17 18 35q330 342 330 877q0 531 -332 874q-16 16 -16 39q0 12 24 24q10 5 17 5q23 0 39 -14q194 -182 288 -371q119 -241 119 -557zM1143 -8q-76 8 -187 8t-192 -8
q-14 0 -14 28.5t14 28.5q113 0 113 78v444q0 138 -92 138q-17 0 -17 28t17 28q33 0 97.5 34t97.5 59t44 25q12 0 12 -16q-6 -108 -6 -166v-574q0 -78 113 -78q14 0 14 -28.5t-14 -28.5zM1009 1232.5q32 -30.5 32 -75.5t-32 -77t-77 -32t-75.5 32t-30.5 77t30.5 75.5
t75.5 30.5t77 -30.5zM647 -324q0 -13 -25 -25l-16 -5q-19 0 -39 16q-193 174 -288 369q-119 240 -119 557q0 262 137 559q91 199 270 369q16 14 39 14q18 0 35 -17q6 -7 6 -12q0 -17 -18 -37q-330 -346 -330 -876q0 -525 334 -877q14 -14 14 -35z" />
    <glyph glyph-name="uni24A5" unicode="&#x28;j&#x29;" horiz-adv-x="1845" 
d="M160 0zM1704 588q0 -262 -137 -559q-96 -205 -270 -367q-16 -16 -39 -16q-19 0 -35 18q-6 6 -6 12q0 17 18 35q330 342 330 877q0 531 -332 874q-16 16 -16 39q0 12 24 24q10 5 17 5q23 0 39 -14q194 -182 288 -371q119 -241 119 -557zM1041 1157q0 -45 -32 -77t-77 -32
t-75.5 32t-30.5 77t30.5 75.5t75.5 30.5t77 -30.5t32 -75.5zM1034 59q0 -329 -110 -483q-93 -131 -248 -131q-50 0 -87.5 28t-37.5 68q0 32 24.5 51t53.5 19q49 0 88.5 -39t64.5 -39q99 0 99 213v825q0 138 -92 138q-17 0 -17 28t17 28q33 0 97.5 34t97.5 59t44 25
q12 0 12 -16q-6 -108 -6 -166v-642zM647 -324q0 -13 -25 -25l-16 -5q-19 0 -39 16q-193 174 -288 369q-119 240 -119 557q0 262 137 559q91 199 270 369q16 14 39 14q18 0 35 -17q6 -7 6 -12q0 -17 -18 -37q-330 -346 -330 -876q0 -525 334 -877q14 -14 14 -35z" />
    <glyph glyph-name="uni24A6" unicode="&#x28;k&#x29;" horiz-adv-x="2335" 
d="M160 0zM2194 588q0 -262 -137 -559q-96 -205 -270 -367q-16 -16 -39 -16q-19 0 -35 18q-6 6 -6 12q0 17 18 35q330 342 330 877q0 531 -332 874q-16 16 -16 39q0 12 24 24q10 5 17 5q23 0 39 -14q194 -182 288 -371q119 -241 119 -557zM1340 723q26 29 26 47q0 33 -96 33
q-14 0 -14 26.5t14 26.5q92 -6 190 -6t174 6q14 0 14 -26.5t-14 -26.5q-92 0 -163 -68l-213 -205q-19 -18 -19 -34t17 -35l321 -367q39 -45 129 -45q14 0 14 -28.5t-14 -28.5q-95 8 -202 8t-201 -8q-14 0 -14 28.5t14 28.5q82 0 82 29q0 13 -31 49l-221 254
q-16 18 -35.5 24.5t-34.5 6.5t-24 -8t-9 -35v-242q0 -78 119 -78q14 0 14 -28.5t-14 -28.5q-104 8 -198 8t-189 -8q-14 0 -13.5 28.5t13.5 28.5q115 0 115 78v1048q0 138 -92 138q-18 0 -17.5 28t17.5 28q33 0 97.5 34t97.5 59t44 25q12 0 12 -16q-6 -105 -6 -166v-783
q0 -43 46 -43t67 23zM647 -324q0 -13 -25 -25l-16 -5q-19 0 -39 16q-193 174 -288 369q-119 240 -119 557q0 262 137 559q91 199 270 369q16 14 39 14q18 0 35 -17q6 -7 6 -12q0 -17 -18 -37q-330 -346 -330 -876q0 -525 334 -877q14 -14 14 -35z" />
    <glyph glyph-name="uni24A7" unicode="&#x28;l&#x29;" horiz-adv-x="1851" 
d="M160 0zM1710 588q0 -262 -137 -559q-96 -205 -270 -367q-16 -16 -39 -16q-19 0 -35 18q-6 6 -6 12q0 17 18 35q330 342 330 877q0 531 -332 874q-16 16 -16 39q0 12 24 24q10 5 17 5q23 0 39 -14q194 -182 288 -371q119 -241 119 -557zM1030 127q0 -78 119 -78
q14 0 14 -28.5t-14 -28.5q-77 8 -193 8t-196 -8q-14 0 -14 28.5t14 28.5q117 0 117 78v1044q0 140 -92 140q-17 0 -17 27.5t17 27.5q46 0 165 74q34 21 50 33t26 12t10 -15q-6 -57 -6 -97v-1246zM647 -324q0 -13 -25 -25l-16 -5q-19 0 -39 16q-193 174 -288 369
q-119 240 -119 557q0 262 137 559q91 199 270 369q16 14 39 14q18 0 35 -17q6 -7 6 -12q0 -17 -18 -37q-330 -346 -330 -876q0 -525 334 -877q14 -14 14 -35z" />
    <glyph glyph-name="uni24A8" unicode="&#x28;m&#x29;" horiz-adv-x="2937" 
d="M160 0zM2796 588q0 -262 -137 -559q-96 -205 -270 -367q-16 -16 -39 -16q-19 0 -35 18q-6 6 -6 12q0 17 18 35q330 342 330 877q0 531 -332 874q-16 16 -16 39q0 12 24 24q10 5 17 5q23 0 39 -14q194 -182 288 -371q119 -241 119 -557zM2229 -8q-77 8 -189 8t-190 -8
q-14 0 -14 28.5t14 28.5q110 0 110 78v453q0 117 -56.5 158.5t-142.5 41.5q-87 0 -138.5 -82t-51.5 -221v-350q0 -78 115 -78q14 0 14 -28.5t-14 -28.5q-80 8 -190 8t-188 -8q-14 0 -14 28.5t14 28.5q110 0 110 78v405q0 90 -16 147t-48.5 79t-106.5 22q-45 0 -77.5 -17
t-64 -41t-53.5 -58t-22 -74v-463q0 -78 106 -78q14 0 14 -28.5t-14 -28.5q-76 8 -188 8t-192 -8q-14 0 -14 28.5t14 28.5q121 0 121 78v451q0 124 -84 124q-17 0 -17 28t17 28q25 0 83.5 34.5t94 62.5t48.5 28q15 0 14 -27q-4 -78 -4 -83q0 -21 12 -21q9 0 17 8
q104 110 252 110q132 0 216 -122q11 -16 19.5 -16t19.5 13q113 125 274 125q122 0 181.5 -68t76 -118.5t16.5 -118.5v-438q0 -78 116 -78q14 0 14 -28.5t-14 -28.5zM647 -324q0 -13 -25 -25l-16 -5q-19 0 -39 16q-193 174 -288 369q-119 240 -119 557q0 262 137 559
q91 199 270 369q16 14 39 14q18 0 35 -17q6 -7 6 -12q0 -17 -18 -37q-330 -346 -330 -876q0 -525 334 -877q14 -14 14 -35z" />
    <glyph glyph-name="uni24A9" unicode="&#x28;n&#x29;" horiz-adv-x="2396" 
d="M160 0zM2255 588q0 -262 -137 -559q-96 -205 -270 -367q-16 -16 -39 -16q-19 0 -35 18q-6 6 -6 12q0 17 18 35q330 342 330 877q0 531 -332 874q-16 16 -16 39q0 12 24 24q10 5 17 5q23 0 39 -14q194 -182 288 -371q119 -241 119 -557zM1572 127q0 -78 115 -78
q14 0 14 -28.5t-14 -28.5q-77 8 -187 8t-191 -8q-14 0 -14 28.5t14 28.5q110 0 110 78v403q0 84 -14.5 142.5t-45.5 83t-109 24.5q-42 0 -76 -17t-66.5 -40.5t-55 -58t-22.5 -74.5v-463q0 -78 107 -78q14 0 14 -28.5t-14 -28.5q-77 8 -187 8t-188 -8q-14 0 -14 28.5t14 28.5
q115 0 115 78v447q0 128 -84 128q-17 0 -17 28t17 28q38 0 87.5 30t86.5 62.5t52 32.5q14 0 13 -31l-2 -73q-1 -21 14 -21q8 0 15 6q107 106 259 106q148 0 221 -147q33 -66 33 -248v-348zM647 -324q0 -13 -25 -25l-16 -5q-19 0 -39 16q-193 174 -288 369q-119 240 -119 557
q0 262 137 559q91 199 270 369q16 14 39 14q18 0 35 -17q6 -7 6 -12q0 -17 -18 -37q-330 -346 -330 -876q0 -525 334 -877q14 -14 14 -35z" />
    <glyph glyph-name="uni24AA" unicode="&#x28;o&#x29;" horiz-adv-x="2322" 
d="M160 0zM2181 588q0 -262 -137 -559q-96 -205 -270 -367q-16 -16 -39 -16q-19 0 -35 18q-6 6 -6 12q0 17 18 35q330 342 330 877q0 531 -332 874q-16 16 -16 39q0 12 24 24q10 5 17 5q23 0 39 -14q194 -182 288 -371q119 -241 119 -557zM760 428q0 168 125 305t299 137
t295 -136q121 -138 121 -314t-111 -309.5t-297 -133.5t-309 141.5t-123 309.5zM923 422q0 -178 81.5 -278.5t175.5 -100.5q96 0 176 101q81 102 81 278t-80 282t-175 107q-96 0 -177.5 -105.5t-81.5 -283.5zM647 -324q0 -13 -25 -25l-16 -5q-19 0 -39 16q-193 174 -288 369
q-119 240 -119 557q0 262 137 559q91 199 270 369q16 14 39 14q18 0 35 -17q6 -7 6 -12q0 -17 -18 -37q-330 -346 -330 -876q0 -525 334 -877q14 -14 14 -35z" />
    <glyph glyph-name="uni24AB" unicode="&#x28;p&#x29;" horiz-adv-x="2298" 
d="M160 0zM2157 588q0 -262 -137 -559q-96 -205 -270 -367q-16 -16 -39 -16q-19 0 -35 18q-6 6 -6 12q0 17 18 35q330 342 330 877q0 531 -332 874q-16 16 -16 39q0 12 24 24q10 5 17 5q23 0 39 -14q194 -182 288 -371q119 -241 119 -557zM1621 418q0 -198 -109.5 -319.5
t-304.5 -121.5q-110 0 -167 19q-6 2 -11 2q-26 0 -26 -33v-381q0 -86 151 -86q14 0 14 -28.5t-14 -28.5q-85 8 -212 8t-207 -8q-14 0 -14 28.5t14 28.5q115 0 115 84v999q0 124 -86 124q-17 0 -17 27.5t17 27.5q29 0 99 40t91.5 61.5t39.5 21.5q13 0 13 -27l-4 -68
q0 -20 16 -20q9 0 18 8q84 94 187 94q112 0 206 -68.5t142.5 -153.5t48.5 -230zM1447 420q0 368 -264 368q-84 0 -160 -100q-20 -26 -20 -94v-389q-1 -164 189 -164q140 0 197.5 111t57.5 268zM647 -324q0 -13 -25 -25l-16 -5q-19 0 -39 16q-193 174 -288 369
q-119 240 -119 557q0 262 137 559q91 199 270 369q16 14 39 14q18 0 35 -17q6 -7 6 -12q0 -17 -18 -37q-330 -346 -330 -876q0 -525 334 -877q14 -14 14 -35z" />
    <glyph glyph-name="uni24AC" unicode="&#x28;q&#x29;" horiz-adv-x="2259" 
d="M160 0zM2118 588q0 -262 -137 -559q-96 -205 -270 -367q-16 -16 -39 -16q-19 0 -35 18q-6 6 -6 12q0 17 18 35q330 342 330 877q0 531 -332 874q-16 16 -16 39q0 12 24 24q10 5 17 5q23 0 39 -14q194 -182 288 -371q119 -241 119 -557zM1345 0q-64 -22 -231 -23
q-174 0 -273 116.5t-99 322.5q0 212 121.5 333t264.5 121t259 -59l118 55q46 -2 39 -45q-27 -27 -27 -299v-940q0 -84 133 -84q14 0 14 -28.5t-14 -28.5q-84 8 -210 8t-209 -8q-14 0 -14 28.5t14 28.5q133 0 133 86v379q0 37 -19 37zM1364 205v418q0 37 -14 59
q-66 106 -152 106q-293 1 -293 -353q0 -159 60.5 -276.5t184.5 -117.5q214 0 214 164zM647 -324q0 -13 -25 -25l-16 -5q-19 0 -39 16q-193 174 -288 369q-119 240 -119 557q0 262 137 559q91 199 270 369q16 14 39 14q18 0 35 -17q6 -7 6 -12q0 -17 -18 -37
q-330 -346 -330 -876q0 -525 334 -877q14 -14 14 -35z" />
    <glyph glyph-name="uni24AD" unicode="&#x28;r&#x29;" horiz-adv-x="2023" 
d="M160 0zM1882 588q0 -262 -137 -559q-96 -205 -270 -367q-16 -16 -39 -16q-19 0 -35 18q-6 6 -6 12q0 17 18 35q330 342 330 877q0 531 -332 874q-16 16 -16 39q0 12 24 24q10 5 17 5q23 0 39 -14q194 -182 288 -371q119 -241 119 -557zM1257 870q32 0 53 -11t39 -34
t18 -67q0 -12 -10 -34t-31 -38q-20 -16 -42 -16t-67.5 24.5t-68.5 24.5q-61 0 -103 -60.5t-42 -164.5v-367q0 -78 151 -78q14 0 14 -28.5t-14 -28.5q-84 8 -210 8t-209 -8q-14 0 -14 28.5t14 28.5q115 0 115 78v462q0 113 -84 113q-17 0 -17 28t17 28q38 0 109 48t87.5 62.5
t27.5 14.5q17 0 17 -25q-4 -49 -4 -89.5t13.5 -40.5t27.5 20q89 122 213 122zM647 -324q0 -13 -25 -25l-16 -5q-19 0 -39 16q-193 174 -288 369q-119 240 -119 557q0 262 137 559q91 199 270 369q16 14 39 14q18 0 35 -17q6 -7 6 -12q0 -17 -18 -37q-330 -346 -330 -876
q0 -525 334 -877q14 -14 14 -35z" />
    <glyph glyph-name="uni24AE" unicode="&#x28;s&#x29;" horiz-adv-x="2034" 
d="M160 0zM1893 588q0 -262 -137 -559q-96 -205 -270 -367q-16 -16 -39 -16q-19 0 -35 18q-6 6 -6 12q0 17 18 35q330 342 330 877q0 531 -332 874q-16 16 -16 39q0 12 24 24q10 5 17 5q23 0 39 -14q194 -182 288 -371q119 -241 119 -557zM1325 246q0 -81 -42 -144.5
t-115 -95t-154 -31.5q-156 0 -240 60q-20 63 -20 172v45q0 15 23.5 15t25.5 -15q5 -39 65 -126t179 -87q59 0 110 37t51 107t-43 112.5t-153 72t-177 94.5t-67 165q0 102 84 172.5t213 70.5t207 -36q31 -84 31 -170v-11q0 -14 -22 -14t-25 14q-10 54 -67.5 105t-134.5 51
t-124 -37.5t-47 -101.5q0 -60 33.5 -93.5t166.5 -72t187.5 -97t54.5 -161.5zM647 -324q0 -13 -25 -25l-16 -5q-19 0 -39 16q-193 174 -288 369q-119 240 -119 557q0 262 137 559q91 199 270 369q16 14 39 14q18 0 35 -17q6 -7 6 -12q0 -17 -18 -37q-330 -346 -330 -876
q0 -525 334 -877q14 -14 14 -35z" />
    <glyph glyph-name="uni24AF" unicode="&#x28;t&#x29;" horiz-adv-x="2001" 
d="M160 0zM1860 588q0 -262 -137 -559q-96 -205 -270 -367q-16 -16 -39 -16q-19 0 -35 18q-6 6 -6 12q0 17 18 35q330 342 330 877q0 531 -332 874q-16 16 -16 39q0 12 24 24q10 5 17 5q23 0 39 -14q194 -182 288 -371q119 -241 119 -557zM869 213v507q0 40 -40 40h-73
q-14 0 -14 23t14 23q45 0 93 35.5t80 78t48 81.5q4 9 14 9t20.5 -5t10.5 -14v-98q0 -43 41 -43h244q14 0 14 -45t-14 -45h-244q-41 0 -41 -40v-403q0 -131 37.5 -187t124.5 -56q52 0 108 39q14 10 21.5 -4t7.5 -21t-2 -10q-84 -101 -220 -101q-125 0 -177.5 54.5
t-52.5 181.5zM647 -324q0 -13 -25 -25l-16 -5q-19 0 -39 16q-193 174 -288 369q-119 240 -119 557q0 262 137 559q91 199 270 369q16 14 39 14q18 0 35 -17q6 -7 6 -12q0 -17 -18 -37q-330 -346 -330 -876q0 -525 334 -877q14 -14 14 -35z" />
    <glyph glyph-name="uni24B0" unicode="&#x28;u&#x29;" horiz-adv-x="2363" 
d="M160 0zM2222 588q0 -262 -137 -559q-96 -205 -270 -367q-16 -16 -39 -16q-19 0 -35 18q-6 6 -6 12q0 17 18 35q330 342 330 877q0 531 -332 874q-16 16 -16 39q0 12 24 24q10 5 17 5q23 0 39 -14q194 -182 288 -371q119 -241 119 -557zM1685 31q-28 -3 -136.5 -27.5
t-137.5 -35.5q-3 -1 -7 -1q-16 0 -16 45v45q0 24 -11.5 24t-27.5 -15q-95 -89 -234 -89q-105 0 -185 106t-80 218v335q0 147 -111 147q-15 0 -15 28t15 28q105 0 169.5 9t83.5 9q20 0 19 -16q-8 -123 -8 -152v-355q0 -115 39.5 -187.5t121.5 -72.5q88 0 156 52t68 126v384
q0 147 -111 147q-15 0 -15 28t15 28q123 0 180.5 9t69.5 9q22 0 20 -27q-6 -87 -6 -139v-464q0 -155 82 -145l47 6q17 2 22 -27q1 -8 1 -15q0 -14 -8 -15zM647 -324q0 -13 -25 -25l-16 -5q-19 0 -39 16q-193 174 -288 369q-119 240 -119 557q0 262 137 559q91 199 270 369
q16 14 39 14q18 0 35 -17q6 -7 6 -12q0 -17 -18 -37q-330 -346 -330 -876q0 -525 334 -877q14 -14 14 -35z" />
    <glyph glyph-name="uni24B1" unicode="&#x28;v&#x29;" horiz-adv-x="2165" 
d="M160 0zM2024 588q0 -262 -137 -559q-96 -205 -270 -367q-16 -16 -39 -16q-19 0 -35 18q-6 6 -6 12q0 17 18 35q330 342 330 877q0 531 -332 874q-16 16 -16 39q0 12 24 24q10 5 17 5q23 0 39 -14q194 -182 288 -371q119 -241 119 -557zM791 731q-29 72 -103 72
q-14 0 -14 26.5t14 26.5q58 -6 176 -6t179 6q14 0 14 -26.5t-14 -26.5q-78 0 -78 -55q0 -17 4 -29l160 -490q6 -18 14 -18t14 18l170 498q4 10 4 23q0 53 -96 53q-14 0 -14 26.5t14 26.5q57 -6 143 -6t146 6q14 0 14 -26.5t-14 -26.5q-96 0 -121 -72l-250 -715
q-13 -39 -42 -39t-40 27zM647 -324q0 -13 -25 -25l-16 -5q-19 0 -39 16q-193 174 -288 369q-119 240 -119 557q0 262 137 559q91 199 270 369q16 14 39 14q18 0 35 -17q6 -7 6 -12q0 -17 -18 -37q-330 -346 -330 -876q0 -525 334 -877q14 -14 14 -35z" />
    <glyph glyph-name="uni24B2" unicode="&#x28;w&#x29;" horiz-adv-x="2658" 
d="M160 0zM2517 588q0 -262 -137 -559q-96 -205 -270 -367q-16 -16 -39 -16q-19 0 -35 18q-6 6 -6 12q0 17 18 35q330 342 330 877q0 531 -332 874q-16 16 -16 39q0 12 24 24q10 5 17 5q23 0 39 -14q194 -182 288 -371q119 -241 119 -557zM791 731q-29 72 -103 72
q-14 0 -14 26.5t14 26.5q58 -6 176 -6t179 6q14 0 14 -26.5t-14 -26.5q-78 0 -78 -55q0 -17 4 -29l160 -490q6 -18 14 -18t14 18l150 435q6 20 6 28q0 59 -51 94q-27 17 -62 17q-14 0 -14 26.5t14 26.5q58 -6 176 -6t179 6q14 0 14 -26.5t-14 -26.5q-78 0 -78 -55
q0 -17 4 -29l160 -490q6 -18 14 -18t14 18l170 498q4 10 4 23q0 53 -96 53q-14 0 -14 26.5t14 26.5q57 -6 143 -6t146 6q14 0 14 -26.5t-14 -26.5q-96 0 -121 -72l-250 -715q-13 -39 -42 -39t-40 27l-213 549q-8 20 -14 20t-14 -20l-189 -537q-13 -39 -42 -39t-40 27z
M647 -324q0 -13 -25 -25l-16 -5q-19 0 -39 16q-193 174 -288 369q-119 240 -119 557q0 262 137 559q91 199 270 369q16 14 39 14q18 0 35 -17q6 -7 6 -12q0 -17 -18 -37q-330 -346 -330 -876q0 -525 334 -877q14 -14 14 -35z" />
    <glyph glyph-name="uni24B3" unicode="&#x28;x&#x29;" horiz-adv-x="2245" 
d="M160 0zM2104 588q0 -262 -137 -559q-96 -205 -270 -367q-16 -16 -39 -16q-19 0 -35 18q-6 6 -6 12q0 17 18 35q330 342 330 877q0 531 -332 874q-16 16 -16 39q0 12 24 24q10 5 17 5q23 0 39 -14q194 -182 288 -371q119 -241 119 -557zM864 733q-51 70 -98 70
q-14 0 -14 26.5t14 26.5q56 -6 170 -6t172 6q14 0 14 -26.5t-14 -26.5q-76 0 -76 -37q0 -18 17 -45l110 -176q9 -15 19 -15t20 15l121 160q27 35 27 57q0 41 -82 41q-14 0 -14 26.5t14 26.5q57 -6 146 -6t149 6q14 0 14 -26.5t-14 -26.5q-67 0 -125 -72l-195 -237
q-14 -17 -14 -29t10 -27l211 -305q58 -84 148 -84q14 0 14 -28.5t-14 -28.5q-76 8 -194 8t-200 -8q-14 0 -14 28.5t14 28.5q97 0 97 33q0 12 -23 47l-137 215q-9 12 -17 12t-16 -12l-143 -199q-33 -47 -33 -67q0 -29 65 -29q14 0 14 -28.5t-14 -28.5q-79 8 -149 8t-145 -8
q-14 0 -14 28.5t14 28.5q94 0 147 68l225 282q8 11 8 22t-8 23zM647 -324q0 -13 -25 -25l-16 -5q-19 0 -39 16q-193 174 -288 369q-119 240 -119 557q0 262 137 559q91 199 270 369q16 14 39 14q18 0 35 -17q6 -7 6 -12q0 -17 -18 -37q-330 -346 -330 -876q0 -525 334 -877
q14 -14 14 -35z" />
    <glyph glyph-name="uni24B4" unicode="&#x28;y&#x29;" horiz-adv-x="2165" 
d="M160 0zM2024 588q0 -262 -137 -559q-96 -205 -270 -367q-16 -16 -39 -16q-19 0 -35 18q-6 6 -6 12q0 17 18 35q330 342 330 877q0 531 -332 874q-16 16 -16 39q0 12 24 24q10 5 17 5q23 0 39 -14q194 -182 288 -371q119 -241 119 -557zM758 731q-26 72 -121 72
q-14 0 -14 26.5t14 26.5q57 -6 184 -6t187 6q14 0 14 -26.5t-14 -26.5q-96 0 -96 -55q0 -16 4 -29l174 -504q10 -31 25 -31t28 33l195 502q6 13 6 26q0 58 -129 58q-14 0 -14 26.5t14 26.5q57 -6 163 -6t164 6q14 0 14 -26.5t-14 -26.5q-96 0 -125 -72l-442 -1149
q-25 -64 -73.5 -99.5t-104.5 -35.5q-40 0 -65 25t-25 51q0 76 94.5 76t120.5 63l96 240q11 25 11 39t-13 51zM647 -324q0 -13 -25 -25l-16 -5q-19 0 -39 16q-193 174 -288 369q-119 240 -119 557q0 262 137 559q91 199 270 369q16 14 39 14q18 0 35 -17q6 -7 6 -12
q0 -17 -18 -37q-330 -346 -330 -876q0 -525 334 -877q14 -14 14 -35z" />
    <glyph glyph-name="uni24B5" unicode="&#x28;&#x7a;&#x29;" horiz-adv-x="2062" 
d="M160 0zM1921 588q0 -262 -137 -559q-96 -205 -270 -367q-16 -16 -39 -16q-19 0 -35 18q-6 6 -6 12q0 17 18 35q330 342 330 877q0 531 -332 874q-16 16 -16 39q0 12 24 24q10 5 17 5q23 0 39 -14q194 -182 288 -371q119 -241 119 -557zM1389 276q-31 -229 -31 -266
t-27 -37q-10 0 -68.5 13.5t-94.5 13.5h-420q-17 0 -17 14q0 6 2 9l398 729q8 15 8 23q0 18 -29 18h-158q-78 0 -131 -107l-61 -123q-3 -6 -13.5 -2.5t-9.5 8.5l37 267q5 37 23 34l103 -16q26 -4 77 -4h346q15 0 15 -7t-5 -16l-397 -723q-6 -11 -6 -18q0 -18 27 -22t68.5 -4
t72.5 1q106 0 170 72q24 27 80 152q4 9 23 4t18 -13zM647 -324q0 -13 -25 -25l-16 -5q-19 0 -39 16q-193 174 -288 369q-119 240 -119 557q0 262 137 559q91 199 270 369q16 14 39 14q18 0 35 -17q6 -7 6 -12q0 -17 -18 -37q-330 -346 -330 -876q0 -525 334 -877
q14 -14 14 -35z" />
    <glyph glyph-name="uniE1A6" unicode="&#x17f;b" horiz-adv-x="1564" 
d="M874 301q0 -81 75.5 -172.5t176.5 -91.5q92 0 142.5 111t50.5 270q0 152 -76.5 262.5t-198.5 110.5q-86 0 -147 -50q-23 -18 -23 -94v-346zM219 125v555q0 33 -31 33h-75q-16 0 -16 27.5t16 27.5q45 0 75.5 46.5t30.5 109.5q0 221 133 392t338 171q62 0 123 -30.5
t61 -98.5v-522q0 -27 12 -27t21 6q83 55 176 55q178 0 294 -131.5t116 -308.5q0 -215 -111.5 -334t-294.5 -119q-45 0 -155 46q-24 10 -58 10q-22 0 -96 -56q-2 -1 -6 -1q-11 0 -33 9t-22 15q4 130 4 260v914q0 219 -131 219q-98 0 -158 -81.5t-60 -313.5v-871
q0 -78 116 -78q16 0 16 -28.5t-16 -28.5q-81 8 -188 8q-116 0 -198 -8q-15 0 -15 28.5t15 28.5q117 0 117 76z" />
    <glyph glyph-name="longs_h" unicode="&#x17f;h" horiz-adv-x="1615" 
d="M219 125v555q0 33 -31 33h-75q-16 0 -16 27.5t16 27.5q45 0 75.5 46.5t30.5 109.5q0 246 136.5 404.5t334.5 158.5q62 0 123 -32t61 -107v-557q0 -25 16 -25q9 0 17 8q96 96 241 96t219 -105.5t74 -215.5v-422q0 -78 127 -78q14 0 14 -28.5t-14 -28.5q-81 8 -197.5 8
t-195.5 -8q-14 0 -14 28.5t14 28.5q113 0 113 78v420q0 97 -59 165t-143 68t-148 -51t-64 -100v-502q0 -78 111 -78q14 0 14 -28.5t-14 -28.5q-105 8 -205 8t-180 -8q-14 0 -14 28.5t14 28.5q121 0 121 78v1047q0 219 -131 219q-98 0 -158 -79t-60 -316v-871q0 -78 116 -78
q16 0 16 -28.5t-16 -28.5q-81 8 -188 8q-116 0 -198 -8q-15 0 -15 28.5t15 28.5q117 0 117 76z" />
    <glyph glyph-name="longs_i" unicode="&#x17f;i" horiz-adv-x="1037" 
d="M67 0zM980 -8q-76 8 -182 8q-116 0 -197 -8q-14 0 -14 28q0 29 14 29q113 0 113 78v405q0 114 -24 146q-18 24 -60 24q-17 0 -17 27q0 29 17 29q59 0 202 114q15 11 23 11q18 0 18 -21q-6 -65 -6 -131v-604q0 -78 113 -78q14 0 14 -28q0 -29 -14 -29zM839 1430
q19 -24 19 -60.5t-32 -61t-54 -24.5q-56 0 -101.5 54.5t-99.5 54.5q-92 0 -154.5 -76t-62.5 -315v-875q0 -78 144 -78q15 0 15 -28.5t-15 -28.5q-83 8 -208 8t-206 -8q-17 0 -17 28.5t17 28.5q117 0 117 78v565q0 21 -25 21h-86q-15 0 -15 27.5t15 27.5q35 0 73 37t38 119
q0 252 141 407.5t330 155.5q123 0 167 -57z" />
    <glyph glyph-name="longs_k" unicode="&#x17f;k" horiz-adv-x="1519" 
d="M873 1358v-836q0 -47 47 -43q50 5 66 23l197 221q26 29 26 47q0 33 -96 33q-14 0 -14 26.5t14 26.5q92 -6 190 -6t174 6q14 0 14 -26.5t-14 -26.5q-92 0 -163 -68l-213 -205q-19 -18 -19 -34t17 -35l321 -367q39 -45 129 -45q14 0 14 -28.5t-14 -28.5q-95 8 -202 8
t-201 -8q-14 0 -14 28.5t14 28.5q82 0 82 29q0 13 -31 49l-221 254q-16 19 -34 25q-20 6 -35 6t-24.5 -8t-9.5 -35v-242q0 -78 119 -78q14 0 14 -28.5t-14 -28.5q-104 8 -198 8q-95 0 -190 -8q-13 0 -13 28t13 29q115 9 115 78l2 1047q0 219 -131 219q-98 0 -158 -81.5
t-60 -313.5v-871q0 -78 116 -78q16 0 16 -28.5t-16 -28.5q-81 8 -188 8q-116 0 -198 -8q-15 0 -15 28.5t15 28.5q117 0 117 76v555q0 33 -31 33h-75q-16 0 -16 27.5t16 27.5q45 0 75.5 46.5t30.5 109.5q0 221 133 392t338 171q62 -1 123 -31q60 -30 60 -98z" />
    <glyph glyph-name="longs_l" unicode="&#x17f;l" horiz-adv-x="1069" 
d="M219 125v555q0 33 -31 33h-75q-16 0 -16 27.5t16 27.5q45 0 75.5 46.5t30.5 109.5q0 221 133 392t338 171q100 0 161 -37q32 20 38 27q7 8 19 8q13 0 12 -15q-6 -68 -6 -172v-1171q0 -79 119 -78q15 0 15 -28.5t-15 -28.5q-82 8 -194 8t-194 -8q-15 0 -15 28.5t15 28.5
q116 0 116 78v1053q0 213 -150 213q-121 0 -180 -81.5t-59 -313.5v-871q0 -78 116 -78q16 0 16 -28.5t-16 -28.5q-81 8 -192.5 8t-193.5 -8q-15 0 -15 28.5t15 28.5q117 0 117 76z" />
    <glyph glyph-name="longs_longs" unicode="&#x17f;&#x17f;" horiz-adv-x="1067" 
d="M1372 1374q0 -53 -57 -82q-16 -8 -29 -8q-58 0 -106 59q-40 49 -95 50q-97 0 -155 -74q-63 -83 -62 -324v-94v-774q0 -77 142 -78q19 0 15 -35q-2 -20 -15 -22q-82 8 -215 8q-115 0 -197 -8q-19 0 -15 35q2 23 15 22q94 0 113 55q4 10 4 21v565q0 22 -25 23h-84
q-19 0 -16 32q2 23 16 23q49 0 83 53q26 41 26 103q0 188 69 305q-54 105 -138 122q-24 5 -54 5q-97 0 -158 -74q-62 -79 -61 -267l2 -114v-774q0 -78 117 -78q19 0 15 -35q-2 -20 -15 -22q-82 8 -195 8q-111 0 -193 -8q-19 0 -15 35q2 23 15 22q94 0 114 55q4 10 3 21v563
q0 25 -24 25h-82q-19 0 -16 32q2 23 16 23q47 0 80 53q26 41 26 103q0 220 131 364q143 162 340 162q110 0 185 -94q137 131 309 131q141 0 177 -74q9 -18 9 -39z" />
    <glyph glyph-name="longs_longs_i" unicode="&#x17f;&#x17f;i" horiz-adv-x="1574" 
d="M89 0zM1515 -8q-76 8 -182 8q-116 0 -197 -8q-14 0 -14 28q0 29 14 29q113 0 113 78v405q0 114 -24 146q-18 24 -60 24q-17 0 -17 27q0 29 17 29q59 0 202 114q15 11 23 11q18 0 18 -21q-6 -65 -6 -131v-604q0 -78 113 -78q14 0 14 -28q0 -29 -14 -29zM1372 1374
q0 -53 -57 -82q-16 -8 -29 -8q-58 0 -106 59q-40 49 -95 50q-97 0 -155 -74q-63 -83 -62 -324v-94v-774q0 -77 142 -78q19 0 15 -35q-2 -20 -15 -22q-82 8 -215 8q-115 0 -197 -8q-19 0 -15 35q2 23 15 22q94 0 113 55q4 10 4 21v565q0 22 -25 23h-84q-19 0 -16 32
q2 23 16 23q49 0 83 53q26 41 26 103q0 188 69 305q-54 105 -138 122q-24 5 -54 5q-97 0 -158 -74q-62 -79 -61 -267l2 -114v-774q0 -78 117 -78q19 0 15 -35q-2 -20 -15 -22q-82 8 -195 8q-111 0 -193 -8q-19 0 -15 35q2 23 15 22q94 0 114 55q4 10 3 21v563q0 25 -24 25
h-82q-19 0 -16 32q2 23 16 23q47 0 80 53q26 41 26 103q0 220 131 364q143 162 340 162q110 0 185 -94q137 131 309 131q141 0 177 -74q9 -18 9 -39z" />
    <glyph glyph-name="longs_longs_l" unicode="&#x17f;&#x17f;l" horiz-adv-x="1581" 
d="M1411 127q0 -78 119 -78q19 0 15 -35q-2 -20 -15 -22q-82 8 -188 8q-119 0 -201 -8q-19 0 -15 35q2 23 15 22q117 0 117 78v1053q0 167 -69 199q-29 14 -83 14q-120 0 -176 -74q-64 -84 -62 -324v-94v-774q0 -78 142 -78q19 0 15 -35q-2 -20 -15 -22q-82 8 -215 8
q-115 0 -197 -8q-19 0 -15 35q2 23 15 22q94 0 113 55q4 10 4 21v565q0 23 -25 23h-84q-19 0 -16 32q2 23 16 23q49 0 83 53q26 41 26 103q0 188 69 305q-54 105 -138 122q-24 5 -54 5q-100 0 -158 -74q-63 -80 -61 -267l2 -114v-774q0 -78 117 -78q19 0 15 -35
q-2 -20 -15 -22q-82 8 -195 8q-111 0 -193 -8q-19 0 -15 35q2 23 15 22q94 0 114 55q4 10 3 21v563q0 25 -24 25h-82q-19 0 -16 32q2 23 16 23q47 0 80 53q26 41 26 103q0 218 131 364q145 162 340 162q110 0 185 -94q137 131 330 131q74 0 141 -37q33 20 39 27q8 8 18 8
q14 0 12 -15q-6 -68 -6 -172v-1171z" />
    <glyph glyph-name="longs_adieresis" unicode="&#x17f;&#xe4;" horiz-adv-x="1564" 
d="M619 411q0 189 132 324t343 135q67 0 113 -19t62 -34q24 25 66 45.5t54 20.5t12 -15q-6 -68 -6 -135v-502q0 -177 70 -177q20 0 66 33q12 8 25 -12.5t13 -27.5t-4 -9q-82 -56 -165 -56q-80 0 -110.5 47.5t-43.5 88.5q-108 -141 -240 -141q-197 0 -292 122.5t-95 311.5z
M782 440q0 -148 83 -257t192 -109q78 0 131 41t53 84v469q0 53 3 92q-65 50 -186 50t-198.5 -111t-77.5 -259zM1386 1156q0 -45 -31.5 -76.5t-76.5 -31.5t-76.5 31.5t-31.5 76.5t31.5 76.5t76.5 31.5t76.5 -31.5t31.5 -76.5zM1004 1156q0 -45 -31.5 -76.5t-76 -31.5
t-76 31.5t-31.5 76.5t31.5 76.5t76 31.5t76 -31.5t31.5 -76.5zM201 127v600q0 37 -37 37h-74q-15 0 -15 27.5t15 27.5q111 0 111 86v19q0 250 125.5 406.5t288.5 156.5q47 0 90 -13t67 -39q24 -25 23 -67q0 -30 -27.5 -57t-58.5 -27q-53 0 -101.5 54.5t-93.5 54.5
q-62 0 -111 -85t-49 -207v-974q0 -78 148 -78q14 0 14 -28.5t-14 -28.5q-85 8 -211 8t-207 -8q-14 0 -14 28.5t14 28.5q117 0 117 78z" />
    <glyph glyph-name="longs_odieresis" unicode="&#x17f;&#xf6;" horiz-adv-x="1548" 
d="M637 428q0 168 125 305q124 137 298 137t296 -136q122 -138 121 -314q0 -176 -111 -310q-110 -134 -296 -133q-186 0 -309.5 141.5t-123.5 309.5zM800 422q0 -178 81.5 -278.5t175.5 -100.5q93 0 175 101q82 102 82 278t-80 282.5t-176 106.5t-177 -105.5t-81 -283.5z
M1386 1156q0 -45 -31.5 -76.5t-76.5 -31.5t-76.5 31.5t-31.5 76.5t31.5 76.5t76.5 31.5t76.5 -31.5t31.5 -76.5zM1004 1156q0 -45 -31.5 -76.5t-76 -31.5t-76 31.5t-31.5 76.5t31.5 76.5t76 31.5t76 -31.5t31.5 -76.5zM201 127v600q0 37 -37 37h-74q-15 0 -15 27.5t15 27.5
q111 0 111 86v19q0 250 125.5 406.5t288.5 156.5q47 0 90 -13t67 -39q24 -25 23 -67q0 -30 -27.5 -57t-58.5 -27q-53 0 -101.5 54.5t-93.5 54.5q-62 0 -111 -85t-49 -207v-974q0 -78 148 -78q14 0 14 -28.5t-14 -28.5q-85 8 -211 8t-207 -8q-14 0 -14 28.5t14 28.5
q117 0 117 78z" />
    <glyph glyph-name="longs_p" unicode="&#x17f;p" horiz-adv-x="1554" 
d="M201 127v565q0 21 -25 21h-86q-15 0 -15 27.5t15 27.5q35 0 73 37t38 119q0 252 141 407.5t340 155.5q128 0 213 -94.5t85 -224.5q0 -141 -99 -280v-100q0 -20 16 -20q9 0 18 8q106 94 187 94q112 0 206 -68.5t142 -153.5q48 -86 49 -230q0 -198 -109.5 -319.5
t-304.5 -121.5q-110 0 -167 19q-6 2 -11 2q-26 0 -26 -33v-381q0 -86 151 -86q14 0 14 -28.5t-14 -28.5q-85 8 -212.5 8t-207.5 -8q-14 0 -14 28.5t14 28.5q115 0 115 84v999q0 124 -86 124q-17 0 -17 27.5t17 27.5q52 0 103.5 79t70.5 151t19 140q0 150 -67 212.5
t-155 62.5q-123 0 -196 -88q-62 -76 -62 -315v-875q0 -78 144 -78q15 0 15 -28.5t-15 -28.5q-83 8 -208 8t-206 -8q-17 0 -17 28.5t17 28.5q117 0 117 78zM881 205q-1 -164 189 -164q140 0 197.5 111t57.5 268q0 368 -264 368q-84 0 -160 -100q-20 -26 -20 -94v-389z" />
    <glyph glyph-name="longs_t_i" unicode="&#x17f;ti" horiz-adv-x="1675" 
d="M1484 1232.5q32 -30.5 32 -75.5t-32 -77t-77 -32t-75.5 32t-30.5 77t30.5 75.5t75.5 30.5t77 -30.5zM203 125v610q0 25 -25 25h-82q-14 0 -14 22.5t14 22.5q54 0 87 67q20 41 20 89q0 124 60.5 250.5t175 201t255.5 74.5q119 0 162 -66t43 -202v-377q0 -43 41 -43h349
q85 0 142 42t68 42q12 0 12 -16q-6 -108 -6 -166v-574q0 -78 113 -78q14 0 14 -28.5t-14 -28.5q-76 8 -187 8t-192 -8q-14 0 -14 28.5t14 28.5q113 0 113 78v444q0 138 -92 138h-320q-41 0 -41 -40v-352q0 -120 32.5 -182.5t114.5 -60.5q51 1 116 42q21 -4 21 -33
q0 -3 -2 -5q-84 -101 -221 -101q-118 0 -166 61t-48 175v456q0 40 -40 40h-73q-14 0 -14 22.5t14 22.5q53 0 83 34q30 35 29 78v314q0 127 -33.5 170t-117.5 43q-238 0 -238 -294v-972q0 -78 117 -78q15 0 15 -28.5t-15 -28.5q-80 8 -193.5 8t-193.5 -8q-15 0 -15 28.5
t15 28.5q117 0 117 76z" />
    <glyph glyph-name="longs_t_r" unicode="&#x17f;tr" horiz-adv-x="1873" 
d="M203 125v610q0 25 -25 25h-82q-14 0 -14 22.5t14 22.5q54 0 87 67q20 41 20 89q0 124 60.5 250.5t175 201t255.5 74.5q119 0 162 -66t43 -202v-377q0 -43 41 -43h349q85 0 142 42t64 42q14 0 14 -25q-4 -49 -4 -89.5t13.5 -40.5t27.5 20q85 122 213 122q32 0 53.5 -11
t39 -34t17.5 -67q0 -12 -10 -34.5t-31 -38t-42 -15.5q-22 0 -67.5 24.5t-68.5 24.5q-61 -1 -103 -61t-42 -164v-367q0 -78 113 -78q14 0 14 -28.5t-14 -28.5q-76 8 -187 8t-192 -8q-14 0 -14 28.5t14 28.5q113 0 113 78v444q0 138 -92 138h-320q-41 0 -41 -40v-352
q0 -119 32.5 -182t113.5 -61q51 1 116 42q21 -4 21 -33q0 -3 -2 -5q-90 -101 -221 -101q-117 0 -165 61.5t-48 174.5v456q0 40 -40 40h-73q-14 0 -14 22.5t14 22.5q53 0 82.5 34.5t29.5 77.5v314q0 127 -33.5 170t-117.5 43q-238 0 -238 -294v-972q0 -78 117 -78
q15 0 15 -28.5t-15 -28.5q-80 8 -193.5 8t-193.5 -8q-15 0 -15 28.5t15 28.5q117 0 117 76z" />
    <glyph glyph-name="longs_udieresis" unicode="&#x17f;&#xfc;" horiz-adv-x="1588" 
d="M1563 31q-28 -3 -136.5 -27.5t-137.5 -35.5q-3 -1 -7 -1q-16 0 -16 45v45q0 24 -11.5 24t-27.5 -15q-95 -89 -234 -89q-105 0 -185.5 106t-80.5 218v335q0 147 -111 147q-15 0 -15 28t15 28q106 0 170.5 9t83.5 9t19 -16q-8 -107 -8 -152v-355q0 -115 39.5 -187.5
t121.5 -72.5q88 0 156 52t68 126v384q0 147 -111 147q-15 0 -15 28t15 28q123 0 180.5 9t69.5 9q20 0 20 -27q-6 -60 -6 -139v-464q0 -145 82 -145l47 6q17 2 22 -27q1 -8 1 -15q0 -14 -8 -15zM1386 1156q0 -45 -31.5 -76.5t-76.5 -31.5t-76.5 31.5t-31.5 76.5t31.5 76.5
t76.5 31.5t76.5 -31.5t31.5 -76.5zM1004 1156q0 -45 -31.5 -76.5t-76 -31.5t-76 31.5t-31.5 76.5t31.5 76.5t76 31.5t76 -31.5t31.5 -76.5zM201 127v600q0 37 -37 37h-74q-15 0 -15 27.5t15 27.5q111 0 111 86v19q0 250 125.5 406.5t288.5 156.5q47 0 90 -13t67 -39
q24 -25 23 -67q0 -30 -27.5 -57t-58.5 -27q-53 0 -101.5 54.5t-93.5 54.5q-62 0 -111 -85t-49 -207v-974q0 -78 148 -78q14 0 14 -28.5t-14 -28.5q-85 8 -211 8t-207 -8q-14 0 -14 28.5t14 28.5q117 0 117 78z" />
    <glyph glyph-name="uniA787_uniA787" unicode="&#xa787;&#xa787;" horiz-adv-x="1487" 
d="M1398 754h-337q-41 0 -72 -43q-80 -110 -80 -285q0 -122 59 -219.5t142 -97.5q75 0 225 200q3 4 12 4q24 0 36 -14l4 -9l-1 -5q-40 -98 -85.5 -171t-106 -105t-138.5 -32q-98 0 -173 66.5t-105 154.5q-39 -78 -78 -127.5t-95.5 -71.5t-117.5 -22q-133 0 -221 119.5
t-88 256.5q0 140 36.5 223.5t98.5 140.5q13 12 13 22q0 15 -31 15h-262q-13 0 -13 14q0 7 33 86q22 51 37 76q5 8 19 8q37 0 38 -18q0 -3 -1 -6q-7 -24 -7 -42q0 -38 41 -38h838q249 0 378 16q23 0 23 -48t-21 -48zM752 290q-5 31 -5 63q0 136 35 220t100 144q13 12 13 22
q0 15 -31 15h-372q-41 0 -72 -43q-80 -110 -80 -285q0 -122 59 -219.5t142 -97.5q72 0 211 181z" />
    <glyph glyph-name="longs_j" unicode="&#x17f;j" horiz-adv-x="1027" 
d="M878 856l-10 -205q-1 -30 -1 -59v-533q0 -326 -110 -483q-79 -110 -193 -127q-26 -4 -55 -4q-64 0 -102 39q-23 25 -23 57q0 45 43 63q16 7 35 7q49 0 88 -39q41 -39 65 -39q99 0 99 213v786q0 170 -88 170q-15 0 -15 27q0 29 15 29q48 0 165 80q22 15 35 26q20 19 33 19
q17 0 19 -27zM839 1430q19 -24 19 -60.5t-32 -61t-54 -24.5q-56 0 -101.5 54.5t-99.5 54.5q-92 0 -154.5 -76t-62.5 -315v-875q0 -78 144 -78q15 0 15 -28.5t-15 -28.5q-83 8 -208 8t-206 -8q-17 0 -17 28.5t17 28.5q117 0 117 78v565q0 21 -25 21h-86q-15 0 -15 27.5
t15 27.5q35 0 73 37t38 119q0 252 141 407.5t330 155.5q123 0 167 -57z" />
    <glyph glyph-name="longs_s" unicode="&#x17f;s" horiz-adv-x="1260" 
d="M839 1430q19 -24 19 -60.5t-32 -61t-54 -24.5q-56 0 -101.5 54.5t-99.5 54.5q-92 0 -154.5 -76t-62.5 -315v-875q0 -78 144 -78q15 0 15 -28.5t-15 -28.5q-83 8 -208 8t-206 -8q-17 0 -17 28.5t17 28.5q117 0 117 78v565q0 21 -25 21h-86q-15 0 -15 27.5t15 27.5
q35 0 73 37t38 119q0 252 141 407.5t330 155.5q123 0 167 -57zM1202 246q0 -81 -42 -144.5t-115 -95t-154 -31.5q-156 0 -240 60q-20 63 -20 172v45q0 15 23.5 15t25.5 -15q5 -39 65 -126t179 -87q59 0 110 37t51 107t-43 112.5t-153.5 72t-177 94.5t-66.5 165
q0 102 84 172.5t213 70.5t207 -36q31 -84 31 -170v-11q0 -14 -22 -14t-25 14q-10 54 -67.5 105t-134.5 51t-124 -37.5t-47 -101.5q0 -60 33.5 -93.5t167 -72t187.5 -97t54 -161.5z" />
    <glyph glyph-name="longs_longs_k" unicode="&#x17f;&#x17f;k" horiz-adv-x="2065" 
d="M1411 1298v-776q0 -47 46 -43q51 5 67 23l197 221q26 29 26 47q0 33 -96 33q-14 0 -14 26.5t14 26.5q92 -6 190 -6t174 6q14 0 14 -26.5t-14 -26.5q-92 0 -163 -68l-213 -205q-19 -18 -19 -34t17 -35l321 -367q39 -45 129 -45q14 0 14 -28.5t-14 -28.5q-95 8 -202 8
t-201 -8q-14 0 -14 28.5t14 28.5q82 0 82 29q0 13 -31 49l-221 254q-16 18 -35.5 24.5t-34.5 6.5t-24 -8t-9 -35v-242q0 -78 119 -78q14 0 14 -28.5t-14 -28.5q-104 8 -198 8t-189 -8q-14 0 -13.5 28.5t13.5 28.5q115 0 115 78v1053q0 167 -69 199q-29 14 -83 14
q-120 0 -176 -74q-64 -84 -62 -324v-94v-774q0 -78 142 -78q19 0 15 -35q-2 -20 -15 -22q-82 8 -215 8q-115 0 -197 -8q-19 0 -15 35q2 23 15 22q94 0 113 55q4 10 4 21v565q0 23 -25 23h-84q-19 0 -16 32q2 23 16 23q49 0 83 53q26 41 26 103q0 188 69 305
q-54 105 -138 122q-24 5 -54 5q-100 0 -158 -74q-63 -80 -61 -267l2 -114v-774q0 -78 117 -78q19 0 15 -35q-2 -20 -15 -22q-82 8 -195 8q-111 0 -193 -8q-19 0 -15 35q2 23 15 22q94 0 114 55q4 10 3 21v563q0 25 -24 25h-82q-19 0 -16 32q2 23 16 23q47 0 80 53
q26 41 26 103q0 218 131 364q145 162 340 162q110 0 185 -94q137 131 330 131q74 0 141 -37q33 20 39 27q8 8 18 8q14 0 12 -15q-6 -68 -6 -172z" />
    <glyph glyph-name="longs_longs_t" unicode="&#x17f;&#x17f;t" horiz-adv-x="1739" 
d="M1710 83q0 -3 -2 -5q-84 -101 -221 -101q-133 0 -181 61t-48 175v507q0 40 -40 40h-73q-14 0 -14 22.5t14 22.5q53 0 83 34.5t30 77.5v263q0 126 -34 169.5t-118 43.5q-238 0 -238 -294v-972q0 -78 117 -78q15 0 15 -28.5t-15 -28.5q-80 8 -193.5 8t-193.5 -8
q-15 0 -15 28.5t15 28.5q117 0 117 76v610q0 25 -25 25h-82q-14 0 -14 22.5t14 22.5q54 0 87 67q20 41 20 89q0 72 20.5 141.5t48.5 126.5q-31 60 -74.5 93.5t-117.5 33.5q-100 0 -158 -74q-63 -80 -61 -267l2 -114v-774q0 -78 117 -78q15 0 15 -28.5t-15 -28.5
q-82 8 -194 8t-194 -8q-15 0 -15 28.5t15 28.5q93 0 114 55q4 10 3 21v563q0 25 -24 25h-82q-16 0 -16 27.5t16 27.5q47 0 80 53q26 40 26 103q0 218 131 364q145 162 340 162q110 0 186 -96q33 33 81 64t111.5 50t135.5 19q119 0 162 -67t43 -201v-326q0 -43 41 -43h244
q14 0 14 -45t-14 -45h-244q-41 0 -41 -40v-403q1 -115 31 -179q31 -66 131 -64q51 1 116 42q21 -4 21 -33z" />
    <glyph glyph-name="uniFB00" unicode="ff" horiz-adv-x="1118" 
d="M890 127q0 -78 145 -78q15 0 15 -28.5t-15 -28.5q-85 8 -209 8q-125 0 -205 -8q-15 0 -15 28.5t15 28.5q116 0 116 78v600q0 37 -37 37h-307q-37 0 -37 -37v-600q0 -78 117 -78q14 0 14 -28.5t-14 -28.5q-80 8 -193 8q-114 0 -194 -8q-16 0 -16 28.5t16 28.5
q117 0 117 78v600q0 37 -37 37h-72q-14 0 -14 27.5t14 27.5h2q107 0 107 101v14q0 138 63 256t170.5 189t237.5 71q94 0 178 -67q29 -23 45 -44q136 148 310 148q93 0 140 -32.5t47 -86.5q0 -34 -29.5 -59t-56.5 -25q-60 0 -104 54.5t-97 54.5q-97 0 -157 -76.5t-60 -296.5
v-133q0 -37 37 -37h202q15 0 15 -43t-15 -43h-202q-37 0 -37 -37v-600zM805 1208q-52 87 -101 117.5t-131 30.5q-84 0 -133.5 -45.5t-66.5 -127.5t-17 -188v-108q0 -37 37 -37h307q37 0 37 37v37q0 148 68 284z" />
    <glyph glyph-name="uniFB01" unicode="fi" horiz-adv-x="1067" 
d="M896 127q0 -78 111 -78q16 0 16 -28.5t-16 -28.5q-84 8 -178 8t-198 -8q-15 0 -15 28.5t15 28.5q112 0 112 78v522q0 115 -41 115h-309q-37 0 -37 -37v-600q0 -78 117 -78q14 0 14 -28.5t-14 -28.5q-93 8 -189 8q-97 0 -198 -8q-16 0 -16 28.5t16 28.5q117 0 117 78v600
q0 37 -33 37h-78q-14 0 -14 27.5t14 27.5q111 0 111 84v21q0 242 146.5 402.5t334.5 160.5q227 0 227 -113q0 -38 -27.5 -64t-58.5 -26q-59 0 -103 54.5t-138 54.5q-118 0 -173 -103.5t-55 -343.5v-59q0 -37 37 -37h309q52 0 115.5 16.5t74.5 16.5t10 -27q-6 -90 -6 -151
v-578z" />
    <glyph glyph-name="uniFB02" unicode="fl" horiz-adv-x="1067" 
d="M898 127q0 -78 119 -78q14 0 14 -28.5t-14 -28.5q-77 8 -193 8t-197 -8q-15 0 -15 28.5t15 28.5q118 0 118 78v600q0 37 -36 37h-316q-37 0 -37 -37v-600q0 -78 117 -78q14 0 14 -28.5t-14 -28.5q-80 8 -193 8q-114 0 -194 -8q-16 0 -16 28.5t16 28.5q117 0 117 78v600
q0 37 -33 37h-76q-14 0 -14 27.5t14 27.5q109 0 109 123v33q0 116 78.5 254.5t189.5 198t223 59.5q87 0 151 -33q31 31 45 31q17 0 14 -19q-6 -46 -6 -70v-1269zM745 887v287q0 132 -34.5 175.5t-116.5 43.5q-117 0 -177.5 -92t-60.5 -343v-71q0 -37 37 -37h316q36 0 36 37z
" />
    <glyph glyph-name="uniFB03" unicode="ffi" horiz-adv-x="1602" 
d="M1430 127q0 -78 110 -78q14 0 14 -28.5t-14 -28.5q-76 8 -180 8q-103 0 -196 -8q-14 0 -14 28.5t14 28.5q113 0 113 78v499q0 100 -26 125q-13 13 -35 13h-289q-37 0 -37 -37v-600q0 -78 117 -78q16 0 16 -28.5t-16 -28.5q-94 8 -193 8q-98 0 -193 -8q-15 0 -15 28.5
t15 28.5q116 0 116 78v600q0 37 -37 37h-307q-37 0 -37 -37v-600q0 -78 117 -78q14 0 14 -28.5t-14 -28.5q-94 8 -193 8t-194 -8q-16 0 -16 28.5t16 28.5q117 0 117 78v600q0 37 -37 37h-72q-14 0 -14 27.5t14 27.5q109 0 109 115q0 200 134.5 358t336.5 158q89 0 178 -68
q27 -21 45 -43q136 148 341 148q87 0 147 -31q60 -30 60 -78t-32.5 -71t-53.5 -23q-60 0 -104 54.5t-140.5 54.5t-160.5 -87t-64 -405v-14q0 -37 37 -37h291q86 0 186 30q10 3 13 3q20 0 19 -27q-6 -111 -6 -215v-514zM737 924q0 148 68 284q-50 82 -97.5 115t-134.5 33
q-80 0 -128.5 -43t-68.5 -118t-20 -294v-14q0 -37 37 -37h307q37 0 37 37v37z" />
    <glyph glyph-name="uniFB04" unicode="ffl" horiz-adv-x="1604" 
d="M1430 127q0 -78 118 -78q15 0 15 -28.5t-15 -28.5q-77 8 -192 8q-116 0 -196 -8q-14 0 -14 28.5t14 28.5q117 0 117 78v600q0 37 -37 37h-313q-37 0 -37 -37v-600q0 -78 119 -78q14 0 14 -28.5t-14 -28.5q-80 8 -194 8t-194 -8q-15 0 -15 28.5t15 28.5q116 0 116 78v600
q0 37 -37 37h-307q-37 0 -37 -37v-600q0 -78 117 -78q14 0 14 -28.5t-14 -28.5q-80 8 -193 8q-114 0 -194 -8q-16 0 -16 28.5t16 28.5q117 0 117 78v600q0 37 -37 37h-72q-14 0 -14 27.5t14 27.5q109 0 109 115q0 206 137 361t334 155q94 0 178 -67q29 -23 45 -44
q136 148 310 148q114 0 171 -33l34 27q5 4 11 4q14 0 13 -15l-6 -149v-1194zM1277 887v284q0 112 -14 144q-34 78 -146 78q-104 0 -165.5 -88.5t-61.5 -403.5v-14q0 -37 37 -37h313q37 0 37 37zM737 924q0 148 68 284q-54 87 -102.5 117.5t-129.5 30.5q-116 0 -166.5 -81.5
t-50.5 -305.5v-82q0 -37 37 -37h307q37 0 37 37v37z" />
    <glyph glyph-name="longs_t" unicode="&#x17f;t" horiz-adv-x="1227" 
d="M899 317q0 -115 30.5 -179t131.5 -64q51 1 116 42q21 -4 21 -33q0 -3 -2 -5q-84 -101 -221 -101q-133 0 -181 61t-48 175v507q0 40 -40 40h-73q-14 0 -14 22.5t14 22.5q53 0 83 34.5t30 77.5v263q0 126 -34 169.5t-118 43.5q-238 0 -238 -294v-972q0 -78 117 -78
q15 0 15 -28.5t-15 -28.5q-80 8 -193 8q-114 0 -194 -8q-15 0 -15 28.5t15 28.5q117 0 117 76v610q0 25 -25 25h-82q-14 0 -14 22.5t14 22.5q54 0 87 67q20 41 20 89q0 124 60.5 250.5t175 201t255.5 74.5q119 0 162 -67t43 -201v-326q0 -43 41 -43h244q14 0 14 -45t-14 -45
h-244q-41 0 -41 -40v-403z" />
    <glyph glyph-name="f_thorn" unicode="f&#xfe;" horiz-adv-x="1480" 
d="M203 127v600q0 37 -33 37h-76q-14 0 -14 27.5t14 27.5q109 0 109 123v33q0 116 78.5 254.5t189.5 198t223 59.5q88 0 152 -33q31 31 45 31q17 0 14 -19q-6 -46 -6 -70v-599q0 -25 10 -25t22 14q72 84 166 84q130 0 223 -92.5t93 -257.5q0 -222 -159 -371
q-156 -146 -325 -169q-30 -4 -30 -31v-367q0 -58 -58 -78l-176 -61q-1 -1 -4 -1q-11 0 -17.5 12.5t-6.5 26.5q0 11 6 15l80 53q22 15 22 58v1567q-1 102 -35 176q-20 44 -116 43q-117 0 -177.5 -92t-60.5 -343v-71q0 -37 37 -37h201q15 0 15 -43t-15 -43h-201q-37 0 -37 -37
v-600q0 -78 117 -78q14 0 14 -28.5t-14 -28.5q-80 8 -193.5 8t-193.5 -8q-16 0 -16 28.5t16 28.5q117 0 117 78zM899 90q0 -39 24 -39q50 0 129.5 50.5t133 156t53.5 213.5q0 141 -41 233.5t-123 92.5t-152 -117q-24 -40 -24 -94v-496z" />
    <glyph glyph-name="f_eth" unicode="f&#xf0;" horiz-adv-x="1604" 
d="M664 434q0 170 133 303t299 133q12 0 12 8.5t-6 14.5q-85 76 -208 154q-7 5 -13 5q-11 0 -23 -10l-173 -139q-2 -2 -3.5 -2t-5.5 2q-14 6 -76 105q-9 14 -9 20t5 5l84 -21q24 -6 49 13l72 54q8 6 8 11q0 8 -12 16q-59 38 -93 55q-20 10 -5.5 45.5t30.5 33.5
q18 -2 142 -76q10 -6 20 -5q14 0 21 6l307 246q2 2 5.5 2t8.5 -3q35 -28 88 -91q14 -17 14 -22q0 -7 -14 -4l-73 18q-46 11 -74 -11l-203 -165q-12 -10 -12 -16q0 -7 10 -13q173 -101 285 -191.5t193 -219.5t81 -259q0 -199 -110.5 -329t-309.5 -130q-186 0 -315 131.5
t-129 325.5zM838 430q0 -173 81 -280t187 -107q93 0 170.5 106t77.5 281q0 171 -83 276t-167 105q-97 0 -181.5 -106.5t-84.5 -274.5zM201 127v600q0 37 -37 37h-74q-15 0 -15 27.5t15 27.5q111 0 111 86v84q0 206 106.5 352t261.5 146q93 0 137 -33q44 -32 43 -76
q0 -38 -27.5 -61t-58.5 -23q-54 0 -82 49.5t-93 49.5q-55 0 -94.5 -68.5t-39.5 -158.5v-279q0 -37 37 -37h203q15 0 15 -43t-15 -43h-203q-37 0 -37 -37v-600q0 -78 148 -78q14 0 14 -28.5t-14 -28.5q-85 8 -211 8t-207 -8q-14 0 -14 28.5t14 28.5q117 0 117 78z" />
    <glyph glyph-name="f_y" unicode="fy" horiz-adv-x="1422" 
d="M201 127v608q0 37 -37 37h-74q-15 0 -15 26.5t15 26.5q111 0 111 86v13q0 250 125.5 406.5t288.5 156.5q47 0 90 -13t67 -39q24 -25 23 -67q0 -30 -27.5 -57t-58.5 -27q-53 0 -101.5 54.5t-93.5 54.5q-62 0 -111 -85t-49 -207v-208q0 -37 37 -37h154q57 -6 184 -6t187 6
q14 0 14 -26.5t-14 -26.5q-96 0 -96 -55q0 -17 4 -29l174 -504q11 -31 25 -31q15 0 28 33l195 502q6 15 6 26q0 58 -129 58q-14 0 -14 26.5t14 26.5q57 -6 163 -6t164 6q14 0 14 -26.5t-14 -26.5q-97 0 -125 -72l-442 -1149q-25 -64 -73.5 -99.5t-104.5 -35.5q-40 0 -65 25
t-25 51q1 76 95 76q95 0 120 63l96 240q11 28 11 39q0 14 -13 51l-258 739q-25 72 -121 72q-59 0 -125 -18t-66 -50v-608q0 -78 148 -78q14 0 14 -28.5t-14 -28.5q-85 8 -211 8t-207 -8q-14 0 -14 28.5t14 28.5q117 0 117 78z" />
    <glyph glyph-name="f_f_t" unicode="fft" horiz-adv-x="1792" 
d="M203 127v600q0 37 -37 37h-72q-14 0 -14 27.5t14 27.5q109 0 109 101v14q0 138 63 256t170.5 189t237.5 71q70 0 132 -36t91 -75q136 148 311 148q93 0 140 -32.5t47 -86.5q0 -34 -29.5 -59t-56.5 -25q-60 0 -104 54.5t-97 54.5q-97 0 -157 -76.5t-60 -296.5v-133
q0 -37 37 -37h289q92 0 139 56t63 95q4 9 14 9t20.5 -5t10.5 -14v-98q0 -43 41 -43h244q14 0 14 -45t-14 -45h-244q-41 0 -41 -40v-403q0 -131 37.5 -187t124.5 -56q52 0 108 39q14 10 21.5 -4t7.5 -21t-2 -10q-84 -101 -220 -101q-125 0 -177.5 54.5t-52.5 181.5v511
q0 40 -40 40h-343q-37 0 -37 -37v-600q0 -78 145 -78q15 0 15 -28.5t-15 -28.5q-100 8 -209.5 8t-204.5 -8q-15 0 -15 28.5t15 28.5q116 0 116 78v600q0 37 -37 37h-308q-37 0 -37 -37v-600q0 -78 117 -78q14 0 14 -28.5t-14 -28.5q-94 8 -192.5 8t-194.5 -8q-16 0 -16 28.5
t16 28.5q117 0 117 78zM356 887q0 -37 37 -37h308q37 0 37 37v37q0 148 68 284q-51 87 -101 117.5t-132 30.5q-84 0 -133.5 -45.5t-66.5 -127.5t-17 -188v-108z" />
    <glyph glyph-name="f_f_y" unicode="ffy" horiz-adv-x="1958" 
d="M203 127v609q0 37 -37 37h-72q-14 0 -14 26t14 26q109 0 109 101v8q0 138 63 256t170.5 189t237.5 71q69 0 130.5 -35.5t92.5 -75.5q136 148 311 148q93 0 140 -32.5t47 -86.5q0 -34 -29.5 -59t-56.5 -25q-60 0 -104 54.5t-97 54.5q-97 0 -157 -76.5t-60 -296.5v-127
q0 -37 37 -37h153q57 -6 184 -6t187 6q14 0 14 -26.5t-14 -26.5q-96 0 -96 -55q0 -17 4 -29l174 -504q11 -31 25 -31q15 0 28 33l195 502q6 15 6 26q0 58 -129 58q-14 0 -14 26.5t14 26.5q57 -6 163 -6t164 6q14 0 14 -26.5t-14 -26.5q-97 0 -125 -72l-442 -1149
q-25 -64 -73.5 -99.5t-104.5 -35.5q-40 0 -65 25t-25 51q1 76 95 76q95 0 120 63l96 240q11 28 11 39q0 14 -13 51l-258 739q-25 72 -121 72q-65 0 -127.5 -18.5t-62.5 -48.5v-609q0 -78 145 -78q15 0 15 -28.5t-15 -28.5q-100 8 -209.5 8t-204.5 -8q-15 0 -15 28.5t15 28.5
q116 0 116 78v609q0 37 -37 37h-308q-37 0 -37 -37v-609q0 -78 117 -78q14 0 14 -28.5t-14 -28.5q-94 8 -192.5 8t-194.5 -8q-16 0 -16 28.5t16 28.5q117 0 117 78zM356 893q0 -37 37 -37h308q37 0 37 37v31q0 148 68 284q-51 87 -101 117.5t-132 30.5q-84 0 -133.5 -45.5
t-66.5 -127.5t-17 -188v-102z" />
    <glyph glyph-name="f_t_y" unicode="fty" horiz-adv-x="2096" 
d="M201 127v602q0 37 -37 37h-74q-15 0 -15 27.5t15 27.5q111 0 111 86v17q0 250 141 406.5t330 156.5q53 0 96 -13q42 -13 66 -39q24 -25 24 -67q0 -30 -27.5 -57t-58.5 -27q-56 0 -101.5 54.5t-99.5 54.5q-106 0 -161.5 -85t-55.5 -207v-212q0 -37 37 -37h263
q128 0 172 58q43 56 59 95q4 9 14 9t20.5 -5t10.5 -14v-96q0 -43 41 -43h248q57 -6 184 -6t187 6q14 0 14 -26.5t-14 -26.5q-96 0 -96 -55q0 -17 4 -29l174 -504q11 -31 25 -31q15 0 28 33l195 502q6 15 6 26q0 58 -129 58q-14 0 -14 26.5t14 26.5q57 -6 163 -6t164 6
q14 0 14 -26.5t-14 -26.5q-97 0 -125 -72l-442 -1149q-25 -64 -73.5 -99.5t-104.5 -35.5q-40 0 -65 25t-25 51q1 76 95 76q95 0 120 63l96 240q11 28 11 39q0 14 -13 51l-258 739q-25 72 -118.5 72t-192.5 -18.5t-99 -58.5v-409q0 -131 37.5 -187t124.5 -56q52 0 108 39
q14 10 21.5 -4t7.5 -21t-2 -10q-87 -101 -220 -101q-125 0 -177.5 54.5t-52.5 181.5v513q0 40 -40 40h-346q-37 0 -37 -37v-602q0 -78 148 -78q14 0 14 -28.5t-14 -28.5q-85 8 -211 8t-207 -8q-14 0 -14 28.5t14 28.5q117 0 117 78z" />
    <glyph glyph-name="f_j" unicode="fj" horiz-adv-x="1067" 
d="M203 127v600q0 37 -33 37h-78q-14 0 -14 27.5t14 27.5q111 0 111 84v21q0 242 146.5 402.5t334.5 160.5q227 0 227 -113q0 -38 -27.5 -64t-58.5 -26q-59 0 -102 54.5t-139 54.5q-113 0 -170.5 -96t-57.5 -351v-59q0 -37 37 -37h309q76 0 166 29q12 4 21 4q13 0 13 -27
q-6 -90 -6 -151v-646q0 -315 -96.5 -464.5t-260.5 -149.5q-49 0 -87 27.5t-38 68.5q0 34 25 52t53 18q49 0 88 -39t65 -39q99 0 99 213l-1 903q0 115 -41 115h-309q-37 0 -37 -37v-600q0 -78 117 -78q14 0 14 -28.5t-14 -28.5q-91 8 -190.5 8t-196.5 -8q-16 0 -16 28.5
t16 28.5q117 0 117 78z" />
    <glyph glyph-name="f_r" unicode="fr" horiz-adv-x="1280" 
d="M201 127v600q0 37 -37 37h-74q-15 0 -15 27.5t15 27.5q111 0 111 86v19q0 250 141 406.5t330 156.5q53 0 96 -13q42 -13 66 -39q24 -25 24 -67q0 -30 -27.5 -57t-58.5 -27q-56 0 -101.5 54.5t-99.5 54.5q-106 0 -161.5 -85t-55.5 -207v-214q0 -37 37 -37h361
q59 0 99.5 16.5t47.5 16.5q18 0 17 -25q-4 -74 -4 -102t13.5 -28t27.5 20q89 122 213 122q32 0 53 -11t39 -34t18 -67q0 -12 -10 -34.5t-31 -38t-42.5 -15.5t-67 24.5t-68.5 24.5q-61 0 -103 -60.5t-42 -164.5v-367q0 -78 151 -78q14 0 14 -28.5t-14 -28.5q-84 8 -210 8
t-209 -8q-14 0 -14 28.5t14 28.5q115 0 115 78v637h-368q-37 0 -37 -37v-600q0 -78 148 -78q14 0 14 -28.5t-14 -28.5q-85 8 -211 8t-207 -8q-14 0 -14 28.5t14 28.5q117 0 117 78z" />
    <glyph glyph-name="f_t" unicode="ft" horiz-adv-x="1258" 
d="M201 127v600q0 37 -37 37h-74q-15 0 -15 27.5t15 27.5q111 0 111 86v19q0 250 141 406.5t330 156.5q53 0 96 -13q42 -13 66 -39q24 -25 24 -67q0 -30 -27.5 -57t-58.5 -27q-56 0 -101.5 54.5t-99.5 54.5q-106 0 -161.5 -85t-55.5 -207v-214q0 -37 37 -37h263
q127 0 172.5 60t58.5 95q4 9 14 9t20.5 -5t10.5 -14v-98q0 -43 41 -43h244q14 0 14 -45t-14 -45h-244q-41 0 -41 -40v-407q0 -131 37.5 -187t124.5 -56q52 0 108 39q14 10 21.5 -4t7.5 -21t-2 -10q-87 -101 -220 -101q-125 0 -177.5 54.5t-52.5 181.5v511q0 40 -40 40h-346
q-37 0 -37 -37v-600q0 -78 148 -78q14 0 14 -28.5t-14 -28.5q-85 8 -211 8t-207 -8q-14 0 -14 28.5t14 28.5q117 0 117 78z" />
    <glyph glyph-name="f_udieresis" unicode="f&#xfc;" horiz-adv-x="1619" 
d="M201 127v600q0 37 -37 37h-74q-15 0 -15 27.5t15 27.5q111 0 111 86v19q0 250 125.5 406.5t288.5 156.5q47 0 90 -13t67 -39q24 -25 23 -67q0 -30 -27.5 -57t-58.5 -27q-53 0 -101.5 54.5t-93.5 54.5q-62 0 -111 -85t-49 -207v-214q0 -35 37 -37q158 -11 260 -11t166.5 9
t83.5 9q20 0 19 -16q-8 -123 -8 -152v-355q0 -116 40 -188q38 -72 120 -72q88 0 156.5 52t68.5 126v384q0 147 -111 147q-15 0 -15 28t15 28q123 0 180.5 9t69.5 9q22 0 20 -27q-6 -87 -6 -139v-464q0 -155 82 -145l47 6q17 2 22 -27q1 -8 1 -15q0 -14 -8 -15
q-28 -3 -136.5 -27.5t-137.5 -35.5q-3 -1 -7 -1q-16 0 -16 45v45q0 24 -11.5 24t-27.5 -15q-95 -89 -234 -89q-105 0 -185 106t-80 218v335q0 147 -108 147t-260 -19q-37 -5 -37 -37v-600q0 -78 148 -78q14 0 14 -28.5t-14 -28.5q-85 8 -211 8t-207 -8q-14 0 -14 28.5
t14 28.5q117 0 117 78zM1398 1156q0 -45 -31.5 -76.5t-76.5 -31.5t-76.5 31.5t-31.5 76.5t31.5 76.5t76.5 31.5t76.5 -31.5t31.5 -76.5zM1016 1156q0 -45 -31.5 -76.5t-76 -31.5t-76 31.5t-31.5 76.5t31.5 76.5t76 31.5t76 -31.5t31.5 -76.5z" />
    <glyph glyph-name="f_odieresis" unicode="f&#xf6;" horiz-adv-x="1579" 
d="M1408 1156q0 -45 -31.5 -76.5t-76 -31.5t-76 31.5t-31.5 76.5t31.5 76.5t76 31.5t76 -31.5t31.5 -76.5zM1027 1156q0 -45 -31.5 -76.5t-76.5 -31.5t-76.5 31.5t-31.5 76.5t31.5 76.5t76.5 31.5t76.5 -31.5t31.5 -76.5zM831 422.5q0 -177.5 81.5 -278.5t175.5 -101
t175.5 101t81.5 277.5t-80 283t-175.5 106.5t-177 -105.5t-81.5 -283zM668 428.5q0 167.5 125 304.5q15 16 31 31h-433q-37 0 -37 -37v-600q0 -78 148 -78q14 0 14 -28.5t-14 -28.5q-85 8 -211 8t-207 -8q-14 0 -14 28.5t14 28.5q117 0 117 78v600q0 37 -37 37h-74
q-15 0 -15 27.5t15 27.5q111 0 111 86v19q0 250 125.5 406.5t288.5 156.5q47 0 90 -13t67 -39q24 -25 23 -67q0 -30 -27.5 -57t-58.5 -27q-53 0 -101.5 54.5t-93.5 54.5q-62 0 -111 -85t-49 -207v-214q0 -37 37 -37h575q60 20 126 20q174 0 295 -136.5t121 -313t-111 -310
t-296.5 -133.5t-309 142t-123.5 309.5z" />
    <glyph glyph-name="f_f_udieresis" unicode="ff&#xfc;" horiz-adv-x="2156" 
d="M1551 1156q0 -45 -31 -76.5t-76 -31.5t-76 31.5t-31 76.5t31 76.5t76 31.5t76 -31.5t31 -76.5zM1933 1156q0 -45 -31 -76.5t-76 -31.5t-77 31.5t-32 76.5t32 76.5t77 31.5t76 -31.5t31 -76.5zM889 1101v-214q0 -35 38 -37q158 -11 260 -11t166 9t84 9t18 -16
q-8 -123 -8 -152v-355q0 -112 40 -188q38 -72 120 -72q88 0 157 52t69 126v384q0 147 -112 147q-15 0 -14.5 28t14.5 28q123 0 180.5 9t69.5 9q22 0 20 -27q-6 -87 -6 -139v-464q0 -155 82 -145l48 6q22 3 22 -27v-15q0 -14 -8 -15q-28 -3 -136 -27q-123 -28 -138 -36
q-2 -1 -6 -1q-16 0 -16 45v45q0 24 -12 24t-28 -15q-96 -89 -234 -89q-105 0 -184.5 106t-79.5 218v335q0 147 -108 147t-260 -19q-38 -5 -38 -37v-600q0 -78 148 -78q14 0 14 -28.5t-14 -28.5q-85 8 -211 8q-125 0 -207 -8q-14 0 -14 28.5t14 28.5q118 0 118 78v600
q0 37 -37 37h-307q-37 0 -37 -37v-600q0 -78 117 -78q14 0 14 -28.5t-14 -28.5q-80 8 -193 8q-114 0 -194 -8q-16 0 -16 28.5t16 28.5q117 0 117 78v600q0 37 -37 37h-72q-14 0 -14 27.5t14 27.5h2q107 0 107 101v14q0 138 63 256t170.5 189t237.5 71q110 0 209 -95
q118 132 268 132q47 0 89.5 -13t66.5 -39q24 -25 24 -67q0 -30 -28 -57t-58 -27q-53 0 -101.5 54.5t-94.5 54.5q-62 0 -111 -85t-49 -207zM796 1224q-31 51 -78 90q-50 42 -139 42q-90 0 -139.5 -45.5t-66.5 -127.5t-17 -188v-108q0 -37 37 -37h307q37 0 37 55v19
q0 172 59 300z" />
    <glyph glyph-name=".notdef" horiz-adv-x="1024" 
d="M354 1194q292 0 292 -199q0 -89 -116 -151l-106 -56q-114 -62 -114 -151q0 -75 76 -211q8 -8 22 -7q22 4 22 19q-20 69 -20 125q0 49 74 90l166 88q82 43 82 189q-2 160 -118 301q-114 131 -244 131q-84 0 -84 -82q0 -86 68 -86zM534 86q0 39 -20 71q-36 56 -100 56
q-38 0 -68 -21q-50 -37 -50 -106q0 -37 22 -68q36 -49 96 -49q36 0 66 17q54 33 54 100zM68 -132v1640h864v-1640h-864z" />
    <glyph glyph-name=".null" horiz-adv-x="1024" 
d="M354 1194q292 0 292 -199q0 -89 -116 -151l-106 -56q-114 -62 -114 -151q0 -75 76 -211q8 -8 22 -7q22 4 22 19q-20 69 -20 125q0 49 74 90l166 88q82 43 82 189q-2 160 -118 301q-114 131 -244 131q-84 0 -84 -82q0 -86 68 -86zM534 86q0 39 -20 71q-36 56 -100 56
q-38 0 -68 -21q-50 -37 -50 -106q0 -37 22 -68q36 -49 96 -49q36 0 66 17q54 33 54 100zM68 -132v1640h864v-1640h-864z" />
    <glyph glyph-name="nonmarkingreturn" unicode="&#xd;" horiz-adv-x="559" 
 />
    <glyph glyph-name="space" unicode=" " horiz-adv-x="559" 
 />
    <glyph glyph-name="exclam" unicode="!" horiz-adv-x="520" 
d="M260 211q61 0 91 -37t30 -87.5t-34.5 -81t-87.5 -30.5t-86.5 36t-33.5 87t30 82t91 31zM166 1275q0 56 30.5 90t67.5 34q103 0 103 -111q0 -63 -31 -354.5t-43 -497.5q-1 -16 -33 -16t-33 16q-8 199 -34.5 491t-26.5 348z" />
    <glyph glyph-name="quotedbl" unicode="&#x22;" horiz-adv-x="758" 
d="M639 1397q0 -18 -7 -66l-43 -283q-6 -53 -11 -104q-1 -8 -34 -8t-34 8q-4 46 -9 88l-50 334q-2 20 -2 29q0 86 94 86q96 0 96 -84zM311 1397l-59 -453q-1 -8 -35 -8t-35 8q-7 94 -32 242q-29 171 -29 209q0 86 96 86q94 0 94 -84z" />
    <glyph glyph-name="numbersign" unicode="#" horiz-adv-x="1016" 
d="M993 922v-86h-219l-94 -353h197v-86h-220l-102 -387h-90l102 387h-241l-105 -387h-88l103 387h-211v86h233l96 353h-213v86h236l88 327h90l-88 -327h242l88 327h88l-86 -327h194zM684 836h-242l-94 -353h244z" />
    <glyph glyph-name="dollar" unicode="$" horiz-adv-x="987" 
d="M895 389q0 -184 -110 -294q-94 -94 -240 -99v-146q0 -16 -43 -16t-43 16v146q-87 6 -168 35q-34 14 -123 57q-28 77 -42 200l-4 63q0 8 1 14q4 17 38 17q24 0 25 -7q13 -145 128 -235q63 -49 145 -66v536l-125 58q-205 95 -205 348q0 122 115 229q77 71 215 84v137
q0 15 43 15t43 -15v-137q84 -5 147 -18q90 -19 94 -19q25 -88 37 -243q1 -16 -27 -22q-33 -6 -38 13q-22 113 -102 177q-49 41 -111 49v-488q197 -61 274 -149q76 -88 76 -240zM262 1057q0 -123 75 -183q38 -30 122 -65v459q-125 -13 -174 -107q-23 -45 -23 -104zM764 293
q0 192 -219 282v-509q76 0 139 53q80 63 80 174z" />
    <glyph glyph-name="percent" unicode="%" horiz-adv-x="1823" 
d="M1735 403q0 -189 -89 -308q-87 -115 -231 -115q-155 0 -244 138q-75 116 -75 285q0 185 88 306q88 122 231 122q187 0 275 -194q45 -103 45 -234zM1583 406q0 180 -56 281q-44 77 -112 77q-103 0 -146 -165q-22 -86 -22 -193q0 -174 55 -277q43 -82 113 -82q95 0 140 151
q28 93 28 208zM504 -78q-3 -4 -9 -4q-12 0 -37 15q-29 19 -24 28l875 1452q3 5 10 5q12 0 33 -12q32 -20 26 -32zM735 973q0 -209 -99 -327q-84 -99 -218 -99q-160 0 -248 142q-72 116 -72 284q0 189 89 309q87 117 231 117q160 0 247 -144q70 -116 70 -282zM586 975
q0 182 -39 259q-49 97 -130 97q-102 0 -145 -164q-22 -85 -22 -192q0 -174 54 -277q44 -84 114 -84q102 0 145 163q23 88 23 198z" />
    <glyph glyph-name="ampersand" unicode="&#x26;" horiz-adv-x="1704" 
d="M834 1116q0 -130 -125 -203l-89 -51q214 -155 402 -430l92 118q148 192 148 247t-152 55q-15 0 -15 28q0 29 15 29q57 -6 236 -6q184 0 243 6q17 0 17 -25q0 -32 -17 -32q-104 0 -155 -37q-52 -36 -184 -207l-185 -239l70 -103q129 -190 311 -190q120 0 192 78q8 8 26 -6
q6 -6 6 -14q0 -7 -5 -15q-110 -148 -342 -148q-157 0 -348 281q-216 -279 -479 -279q-207 0 -324 129q-96 110 -96 254q0 258 205 377l149 86q-172 124 -172 264q0 122 91 207q87 82 208 82q137 0 216 -87q61 -68 61 -169zM549 1311q-78 0 -123 -70q-31 -48 -31 -106
q0 -110 174 -236q129 75 129 223q0 111 -64 161q-36 28 -85 28zM221 422q0 -163 113 -253q90 -71 221 -71q209 0 377 217q-188 277 -450 467q-261 -151 -261 -360z" />
    <glyph glyph-name="quotesingle" unicode="'" horiz-adv-x="422" 
d="M307 1397l-59 -453q-1 -8 -35 -8t-35 8q-4 47 -9 88l-50 334q-2 20 -2 29q0 86 96 86q94 0 94 -84z" />
    <glyph glyph-name="parenleft" unicode="(" horiz-adv-x="676" 
d="M647 -324q0 -13 -25 -25l-16 -5q-19 0 -39 16q-193 174 -288 369q-119 240 -119 557q0 262 137 559q91 199 270 369q16 14 39 14q18 0 35 -17q6 -7 6 -12q0 -17 -18 -37q-330 -346 -330 -876q0 -525 334 -877q14 -14 14 -35z" />
    <glyph glyph-name="parenright" unicode=")" horiz-adv-x="651" 
d="M510 588q0 -262 -137 -559q-96 -205 -270 -367q-16 -16 -39 -16q-19 0 -35 18q-6 6 -6 12q0 17 18 35q330 342 330 877q0 531 -332 874q-16 16 -16 39q0 12 24 24q10 5 17 5q23 0 39 -14q194 -182 288 -371q119 -241 119 -557z" />
    <glyph glyph-name="asterisk" unicode="*" horiz-adv-x="807" 
d="M367 694v287l-244 -138l-37 61l246 140l-246 142l37 61l244 -139v276h71v-278l244 141l37 -61l-244 -142l244 -140l-37 -61l-244 138v-287h-71z" />
    <glyph glyph-name="plus" unicode="+" horiz-adv-x="1024" 
d="M907 371h-334v-371h-120v371h-334v100h334v336h120v-336h334v-100z" />
    <glyph glyph-name="comma" unicode="," horiz-adv-x="520" 
d="M236 236q79 0 133 -68q45 -57 45 -129q0 -155 -126 -291q-70 -75 -155 -117q-2 -2 -4 -2q-27 0 -27 27q0 4 2 6l95 102q73 92 73 179q0 49 -34 61q-117 45 -117 135q0 58 55 84q26 13 60 13z" />
    <glyph glyph-name="hyphen" unicode="-" horiz-adv-x="827" 
d="M707 602q17 0 17 -52q0 -63 -19 -63h-590q-16 0 -16 55q0 60 16 60h592z" />
    <glyph glyph-name="period" unicode="." horiz-adv-x="520" 
d="M139 98q0 51 36 82t91 31t85 -37t30 -87.5t-34.5 -81t-87.5 -30.5t-86.5 36t-33.5 87z" />
    <glyph glyph-name="slash" unicode="/" horiz-adv-x="717" 
d="M102 -12q-2 -5 -10 -5q-14 0 -46 15q-42 21 -42 33v2l610 1440q3 6 14 6q14 0 44 -11q43 -21 43 -35v-3z" />
    <glyph glyph-name="zero" unicode="0" horiz-adv-x="956" 
d="M887 643q0 -281 -107.5 -470t-305.5 -189t-301 189t-103 493t108 485.5t301 181.5q199 0 303.5 -194.5t104.5 -495.5zM709 631q0 233 -40.5 435t-187.5 202q-123 0 -180 -180t-57 -399q0 -375 68 -506.5t163 -131.5q111 0 172.5 139.5t61.5 440.5z" />
    <glyph glyph-name="one" unicode="1" horiz-adv-x="956" 
d="M578 262q0 -149 44 -181t134 -32q14 0 14 -28.5t-14 -28.5q-80 8 -264 8t-263 -8q-14 0 -14 28.5t14 28.5q127 0 161 38.5t34 172.5v870q0 47 -21 47q-7 0 -24 -8l-129 -59q-16 -1 -24 16.5t5 30.5q219 106 324 211q6 6 16 6q14 0 13 -14q-6 -125 -6 -172v-926z" />
    <glyph glyph-name="two" unicode="2" horiz-adv-x="956" 
d="M881 244l-101 -219q-15 -33 -51 -33q-135 8 -323 8q-179 0 -359 -8q-41 0 -41 39q0 9 10 18q442 461 572 764q37 81 37 184q0 106 -76 166q-55 43 -133 43q-144 0 -246 -182q-4 -4 -10 -4q-21 0 -39 17q-9 8 -9 14q0 2 1 4q59 119 151 190q106 88 232 88q150 0 238 -106
q73 -82 73 -219q0 -146 -111 -301q-60 -82 -168 -209l-284 -318q-16 -17 -16 -28q0 -15 30 -15h297q163 0 227 60q27 25 43 63q1 6 17 6q31 -1 39 -14q1 -2 1 -4t-1 -4z" />
    <glyph glyph-name="three" unicode="3" horiz-adv-x="956" 
d="M819 414q0 -185 -133 -312q-131 -125 -315 -125q-141 0 -219 54q-56 38 -56 96q0 38 38 62q20 12 42 12q36 0 102 -74q69 -74 146 -74q108 0 174 117q51 94 51 217q0 130 -74 215q-75 88 -208 88q-65 0 -113 -16q-14 0 -14 41q0 39 14 39q180 0 275 93q71 70 71 179
q0 101 -69 159q-50 42 -119 42q-118 0 -207 -137q-1 -3 -6 -3q-22 0 -39 22q-8 9 -8 17q0 2 2 4q137 203 325 203q115 0 193 -84q80 -85 80 -196q0 -167 -183 -271q-32 -18 -32 -25q0 -11 28 -16q254 -51 254 -327z" />
    <glyph glyph-name="four" unicode="4" horiz-adv-x="956" 
d="M870 391h-116q-23 0 -23 -20v-244q0 -78 121 -78q14 0 14 -28.5t-14 -28.5q-77 8 -190 8q-165 0 -242 -8q-14 0 -14 28.5t14 28.5q158 0 158 78v244q0 20 -21 20h-477q-67 0 -67 37q0 11 7 28q11 26 39 64l222 301q14 19 419 604q9 13 39 13q58 0 58 -31l-647 -897
q-8 -11 -8 -19q0 -14 26 -14h389q21 0 21 21v444q0 15 76 15q77 0 77 -15v-444q0 -21 23 -21h116q18 0 18 -43t-18 -43z" />
    <glyph glyph-name="five" unicode="5" horiz-adv-x="956" 
d="M813 496q0 -215 -131 -361q-136 -151 -348 -151q-141 0 -206 53q-36 31 -36 74q0 82 82 82q39 0 109 -64q68 -61 135 -61q112 0 190 116q68 101 68 222q0 208 -141 291q-78 46 -191 46q-50 0 -129 -18h-13q-15 0 -15 23q0 5 1 10l93 530q5 29 32 29h471q7 0 7 -17
q0 -53 -26 -107q-9 -19 -15 -19h-383q-29 0 -33 -27l-43 -234q-3 -23 12 -23l80 5q233 0 347 -139q83 -101 83 -260z" />
    <glyph glyph-name="six" unicode="6" horiz-adv-x="956" 
d="M473 -16q-191 0 -292 160q-81 128 -81 321q0 286 199 545q196 254 453 368h9q23 -7 23 -37q0 -9 -6 -12q-293 -166 -415 -427q-58 -123 -82 -273q152 137 268 137q142 0 231 -119q84 -109 84 -256q0 -168 -106 -284q-111 -123 -285 -123zM498 63q103 0 164 96
q47 73 47 171q0 146 -73 239q-66 84 -167 84q-113 0 -199 -110q-6 -43 -6 -82q0 -267 113 -358q50 -40 121 -40z" />
    <glyph glyph-name="seven" unicode="7" horiz-adv-x="956" 
d="M889 1264l-510 -1264q-7 -14 -82 -14q-68 0 -68 14q13 22 51 100l62 138l397 901q9 22 9 28q0 15 -33 15h-215q-163 0 -211 -13q-106 -29 -146 -131q-6 -14 -34 -14q-24 0 -25 14l51 248q6 31 41 31h682q39 0 39 -23q0 -11 -8 -30z" />
    <glyph glyph-name="eight" unicode="8" horiz-adv-x="956" 
d="M477 -16q-171 0 -276 98q-97 90 -97 233q0 209 273 353q-127 82 -166 141q-70 93 -70 199q0 134 99 233q93 92 237 92q183 0 271 -108q61 -74 61 -187q0 -208 -227 -327q270 -173 270 -379q0 -154 -113 -252q-108 -96 -262 -96zM258 1075q0 -128 159 -246q33 -25 111 -75
q142 100 142 243q0 130 -75 204q-53 56 -142 56q-102 0 -158 -71q-37 -48 -37 -111zM709 260q0 128 -88 213q-85 81 -158 132l-29 20q-174 -101 -174 -289q0 -112 68 -197q71 -88 180 -88q101 0 159 77q42 56 42 132z" />
    <glyph glyph-name="nine" unicode="9" horiz-adv-x="956" 
d="M483 1333q178 0 281 -145q92 -129 92 -324q0 -312 -238 -586q-169 -193 -405 -313l-8 -1q-16 5 -27 35q-4 10 -4 17q0 6 6 11q190 111 328 270q117 134 166 389q-128 -135 -258 -135q-134 0 -228 103q-93 110 -96 253q0 192 110 311q107 115 281 115zM248 975
q0 -135 70 -227q65 -86 163 -86q112 0 203 112q6 44 6 88q0 234 -98 333q-35 33 -139 56q-109 0 -166 -106q-39 -73 -39 -170z" />
    <glyph glyph-name="colon" unicode=":" horiz-adv-x="594" 
d="M215 98q0 51 36 82t91 31t85 -37t30 -87.5t-34.5 -81t-87.5 -30.5t-86.5 36t-33.5 87zM215 740q0 50 36.5 81t91 31t84.5 -37t30 -87.5t-34 -81t-87 -30.5t-87 36t-34 88z" />
    <glyph glyph-name="semicolon" unicode=";" horiz-adv-x="594" 
d="M308 236q79 0 133 -68q45 -57 45 -129q0 -155 -126 -291q-70 -75 -155 -117q-2 -2 -4 -2q-27 0 -27 27q0 4 2 6l95 102q73 92 73 179q0 49 -34 61q-117 45 -117 135q0 58 55 84q26 13 60 13zM311 855q65 0 97 -55q18 -30 18 -68q0 -65 -54 -97q-27 -16 -61 -16
q-74 0 -109 56q-18 29 -18 65q0 68 58 99q30 16 69 16z" />
    <glyph glyph-name="less" unicode="&#x3c;" horiz-adv-x="1024" 
d="M911 -2l-796 377v92l796 379v-119l-649 -303v-4l649 -305v-117z" />
    <glyph glyph-name="equal" unicode="=" horiz-adv-x="1024" 
d="M907 596h-788v100h788v-100zM907 330h-788v100h788v-100z" />
    <glyph glyph-name="greater" unicode="&#x3e;" horiz-adv-x="1024" 
d="M909 375l-796 -377v117l649 305v4l-649 303v119l796 -379v-92z" />
    <glyph glyph-name="question" unicode="?" horiz-adv-x="752" 
d="M279 1194q-68 0 -68 86q0 82 84 82q130 0 244 -131q115 -141 118 -301q0 -146 -82 -189l-165 -88q-74 -41 -74 -90q0 -56 20 -125q0 -15 -22 -19q-15 -1 -23 7q-75 136 -75 211q0 89 114 151l105 56q116 62 116 151q0 199 -292 199zM459 86q0 -67 -54 -100
q-30 -17 -65 -17q-61 0 -97 49q-22 31 -22 68q0 69 51 106q30 21 68 21q64 0 99 -56q20 -32 20 -71z" />
    <glyph glyph-name="at" unicode="@" horiz-adv-x="1556" 
d="M1177 95q9 -19 1 -23q-166 -105 -396 -105q-280 0 -473 154q-217 174 -217 479q0 346 246 571q236 213 563 213q280 0 449 -163q155 -150 155 -369q0 -201 -141 -344q-148 -150 -389 -150q-91 0 -111 25q-12 15 -12 39q0 27 44 159l5 15l-8 4q-181 -240 -303 -240
q-92 0 -92 127q0 153 123 334q130 193 282 193q52 0 101 -41l16 51q6 18 47 18q48 0 43 -18l-141 -492q-10 -36 -10 -60q0 -46 42 -46q179 0 293 113q123 121 123 305q0 206 -152 343q-142 128 -362 128q-317 0 -497 -215q-173 -204 -173 -498q0 -218 129 -373
q162 -190 482 -190q144 0 317 72q7 3 16 -16zM981 901q0 64 -98 64q-103 0 -195 -179q-80 -158 -80 -274q0 -70 45 -70q53 0 169 132q41 47 61 77q47 71 76 173z" />
    <glyph glyph-name="A" unicode="A" horiz-adv-x="1398" 
d="M1175 186q39 -117 192 -117q13 0 13 -38t-13 -38q-73 7 -231 7t-230 -7q-14 0 -14 38t14 38q99 0 99 68q0 23 -8 49l-101 313q-9 32 -44 32h-407q-28 0 -40 -35l-113 -314q-9 -22 -9 -40q0 -73 151 -73q14 0 14 -38t-14 -38q-85 7 -213 7t-212 -7q-14 0 -13.5 38t13.5 38
q97 0 129 28t66 104l377 987q6 17 6 30t-13 26.5t-13 19.5t39.5 27.5t92.5 58.5t65 37q23 0 35 -44q26 -97 49 -166zM831 600q25 0 25 16q0 5 -2 11l-170 532q-6 20 -18 20t-19 -20l-197 -532q-2 -5 -2 -11q0 -16 24 -16h359z" />
    <glyph glyph-name="B" unicode="B" horiz-adv-x="1250" 
d="M271 186v986q0 110 -189 110q-14 0 -14 38t14 38q114 -6 240 -6t181 3t126 3q173 0 290 -81t117 -242q0 -199 -196 -290q-15 -7 -15 -13.5t15 -11.5q108 -35 198.5 -127.5t90.5 -245.5q0 -142 -104.5 -248t-395.5 -106q-64 0 -140 3.5t-196 3.5t-202 -7q-13 0 -13.5 37.5
t13.5 38.5q180 0 180 117zM431 789q0 -36 79 -36q354 0 354 279q0 265 -381 265q-52 0 -52 -67v-441zM431 277q0 -220 184 -220q333 0 333 315q0 211 -222 289q-87 29 -260 30q-35 0 -35 -30v-384z" />
    <glyph glyph-name="C" unicode="C" horiz-adv-x="1344" 
d="M91 647q0 223 95.5 387.5t248.5 257.5t377 93q111 0 268 -30l21 -4q126 -24 129 -24q29 -134 29 -311q-4 -16 -35.5 -16t-33.5 14q-28 300 -407 300q-204 0 -352.5 -184t-148.5 -423q0 -283 145 -471t353 -188q354 0 452 269q4 11 28.5 11t34.5 -8q4 -3 4 -14
q-37 -191 -90 -270q-32 -4 -77 -17q-147 -46 -376 -46q-178 0 -329.5 86t-243.5 237.5t-92 350.5z" />
    <glyph glyph-name="D" unicode="D" horiz-adv-x="1525" 
d="M271 186v986q0 110 -189 110q-14 0 -14 38t14 38q140 -6 240 -6t209 3t172 3q311 0 520 -167t209 -463q0 -322 -183.5 -528.5t-497.5 -206.5q-48 0 -194.5 3.5t-244.5 3.5t-221 -7q-13 0 -13 37.5t13 38.5q180 0 180 117zM431 298q0 -149 60 -197t191 -48
q256 0 407.5 181t151.5 482q0 252 -177 416.5t-443 164.5q-95 0 -125.5 -8.5t-47.5 -36t-17 -71.5v-883z" />
    <glyph glyph-name="E" unicode="E" horiz-adv-x="1235" 
d="M271 177v995q0 110 -187 110q-14 0 -14 38t14 38q140 -6 270 -6t350.5 3t312.5 3q51 0 61.5 -7t10.5 -20v-321q0 -17 -37.5 -17t-37.5 17q0 266 -258 272l-284 7q-41 1 -41 -48v-532q0 -33 28 -33h206q78 0 97.5 29t19.5 88v74q0 13 35 13.5t35 -13.5q-8 -71 -8 -214
t8 -223q0 -13 -35 -13.5t-35 13.5v82q0 43 -19.5 69t-97.5 26h-209q-25 0 -25 -31v-314q0 -113 65 -168q38 -32 91 -32l235 7q259 8 259 271q0 17 37.5 17t37.5 -17v-317q0 -25 -28 -28q-16 -2 -45 -2q-116 0 -355.5 3.5t-368.5 3.5t-275 -7q-14 0 -14 37.5t14 38.5
q187 0 187 108z" />
    <glyph glyph-name="F" unicode="F" horiz-adv-x="1170" 
d="M271 186v986q0 110 -187 110q-14 0 -14 38t14 38q116 -5 288 -5t331 2.5t332 2.5q70 -1 73 -19v-329q0 -18 -38 -18t-38 18q0 255 -259 262l-301 10q-41 0 -41 -41v-494q0 -31 28 -31h164q75 0 96 30t21 100v117q0 13 35 13t35 -13q-8 -70 -8 -283.5t8 -284.5
q0 -13 -35 -13t-35 13v117q0 70 -25 99t-92 29h-167q-25 0 -25 -25v-429q0 -117 188 -117q13 0 13 -38t-13 -38q-89 7 -265 7t-263 -7q-13 0 -13 38t13 38q180 0 180 117z" />
    <glyph glyph-name="G" unicode="G" horiz-adv-x="1409" 
d="M1230 144q0 -67 37 -67q14 0 14 -23t-13 -23t-112 -12l-210 -35q-90 -11 -178 -11q-146 0 -328 86t-265.5 262.5t-83.5 345.5q0 242 180.5 480t499.5 238q164 0 305.5 -29t155.5 -29q19 -49 29 -308q0 -18 -34 -18t-35 13q0 111 -103.5 205.5t-312.5 94.5
q-229 0 -361.5 -181.5t-132.5 -406.5q0 -306 149 -492t344 -186t273 47q22 16 22 78v190q0 115 -228 115q-14 0 -14 38t14 38q56 -6 264 -6t265 6q15 0 15 -38t-15 -38q-141 0 -141 -115v-219z" />
    <glyph glyph-name="H" unicode="H" horiz-adv-x="1620" 
d="M1371 186q0 -117 180 -117q13 0 13 -38t-13 -38q-160 7 -260 7t-258 -7q-13 0 -13 37.5t13 38.5q178 0 178 117v435q0 38 -39 38h-702q-39 0 -39 -38v-435q0 -117 180 -117q13 0 13 -38t-13 -38q-149 7 -253 7t-265 -7q-13 0 -13 37.5t13 38.5q178 0 178 117v986
q0 115 -189 115q-14 0 -14 38t14 38q44 -5 264 -5t265 5q13 0 13 -38t-13 -38q-180 0 -180 -115v-390q0 -39 39 -39h702q39 0 39 39v390q0 115 -189 115q-14 0 -14 38t14 38q44 -5 264 -5t265 5q13 0 13 -38t-13 -38q-180 0 -180 -115v-986z" />
    <glyph glyph-name="I" unicode="I" horiz-adv-x="683" 
d="M271 186v986q0 115 -189 115q-14 0 -14 38t14 38q44 -5 264 -5t265 5q13 0 13 -38t-13 -38q-105 0 -142.5 -25t-37.5 -90v-986q0 -117 180 -117q13 0 13 -38t-13 -38q-86 7 -259 7t-259 -7q-13 0 -13 38t13 38q178 0 178 117z" />
    <glyph glyph-name="J" unicode="J" horiz-adv-x="716" 
d="M292 260v912q0 115 -190 115q-14 0 -14 38t14 38q47 -5 265 -5t277 5q14 0 14 -38t-14 -38q-192 0 -192 -115v-538q0 -716 -71 -817.5t-155 -168.5t-193 -67q-54 0 -92 30.5t-38 90.5q0 31 29.5 56.5t76.5 25.5q60 0 101 -34t50 -67q70 24 101 114t31 463z" />
    <glyph glyph-name="K" unicode="K" horiz-adv-x="1335" 
d="M271 186v986q0 115 -189 115q-14 0 -14 38t14 38q45 -5 268 -5t269 5q13 0 13 -38t-13 -38q-188 0 -188 -115v-437q0 -23 13 -23q29 0 92 67q15 15 27 31l293 365q40 52 40 78q0 34 -65 34q-13 0 -13 38t13 38q45 -5 181 -5t182 5q14 0 14 -38t-14 -38q-85 0 -163 -51
q-26 -17 -41 -35l-358 -433q-5 -6 -5 -16q0 -8 5 -14l458 -565q84 -104 246 -104q14 0 14 -38t-14 -38q-79 7 -269 7t-267 -7q-14 0 -14 37.5t14 38.5q96 0 96 59q0 24 -25 58l-269 353q-53 67 -113 95q-23 11 -41 11t-17 -22v-437q0 -117 180 -117q13 0 13 -38t-13 -38
q-77 7 -260 7t-260 -7q-13 0 -13 37.5t13 38.5q180 0 180 117z" />
    <glyph glyph-name="L" unicode="L" horiz-adv-x="1344" 
d="M271 177v995q0 115 -189 115q-14 0 -14 38t14 38q46 -5 262 -5t261 5q13 0 13 -38t-13 -38q-174 0 -174 -115v-895q0 -51 14.5 -98.5t55 -82t108.5 -34.5l313 13q125 5 194.5 91t69.5 213q0 13 39 13t39 -13v-352q0 -28 -36 -32q-14 -2 -45 -2q-143 1 -432 4t-401 3
t-255 -7q-13 0 -13 38t13 38q176 0 176 108z" />
    <glyph glyph-name="M" unicode="M" horiz-adv-x="1848" 
d="M228 186l59 944q1 8 1 15q0 95 -84 127q-40 15 -107 15q-13 0 -13 38t13 38q45 -5 149.5 -5t136 -15.5t51.5 -57.5l472 -1008q13 -27 21 -27q10 0 24 29l485 1012q22 46 56 56.5t132 10.5t146 5q14 0 14 -38t-14 -38q-129 0 -167 -70q-21 -39 -21 -105v-6l7 -920
q1 -117 159 -117q14 0 14 -38t-14 -38q-75 7 -229 7t-239 -7q-14 0 -14 38t14 38q150 0 149 117l-4 853q0 13 -9 13t-14 -12l-506 -1046q-8 -17 -22 -17t-22 17l-464 1047q-8 17 -17 17t-10 -17l-51 -855v-9q0 -108 158 -108q14 0 14 -38t-14 -38q-81 7 -197 7t-200 -7
q-13 0 -13 38t13 38q150 0 157 117z" />
    <glyph glyph-name="N" unicode="N" horiz-adv-x="1482" 
d="M257 186v924q0 101 -45.5 139t-142.5 38q-13 0 -13 38t13 38q44 -5 149 -5t137 -7.5t59 -41.5l758 -977q10 -13 24 -13q23 0 23 33v819q0 116 -171 116q-14 0 -14 38t14 38q46 -5 188 -5t187 5q13 0 13 -38t-13 -38q-136 0 -136 -116v-1142q1 -50 -17 -50t-42 30
l-867 1095q-11 13 -22 13t-11 -18v-913q0 -117 159 -117q13 0 13 -38t-13 -38q-81 7 -197 7t-200 -7q-14 0 -14 38t14 38q167 0 167 117z" />
    <glyph glyph-name="O" unicode="O" horiz-adv-x="1461" 
d="M91 667q0 263 176 490.5t473 227.5q266 0 454.5 -208t188.5 -514q0 -256 -174 -473t-474 -217q-290 0 -467 205t-177 489zM282 726q0 -310 150 -494t317 -184q212 0 327.5 173t115.5 426q0 279 -145.5 473t-319.5 194q-210 0 -327.5 -181t-117.5 -407z" />
    <glyph glyph-name="P" unicode="P" horiz-adv-x="1164" 
d="M271 186v986q0 115 -189 115q-13 0 -13 35.5t13 35.5q116 -5 226 -5t194 2.5t142 2.5q202 0 337 -98q135 -100 135 -280t-131 -282t-347 -102q-120 0 -151 3.5t-43.5 -1t-12.5 -29.5v-383q0 -117 186 -117q13 0 13 -38t-13 -38q-77 7 -262 7t-262 -7q-13 0 -13 37.5
t13 38.5q178 0 178 117zM431 707q0 -34 43.5 -41.5t101.5 -7.5q368 0 368 326q0 129 -103 220.5t-274 91.5h-89q-47 0 -47 -31v-558z" />
    <glyph glyph-name="Q" unicode="Q" horiz-adv-x="1474" 
d="M91 667q2 266 178.5 492t470.5 226q279 0 461 -213.5t182 -508.5q0 -195 -107.5 -375.5t-253.5 -249.5q-17 -8 -17 -21t14 -24q77 -60 241.5 -139t387.5 -138q14 -4 14 -18q0 -62 -25 -57q-575 125 -1136 368q-175 76 -292.5 246.5t-117.5 411.5zM282 708
q0 -287 149 -474t318 -187q226 0 334.5 180t108.5 437q0 261 -140 455.5t-319 194.5q-198 0 -324.5 -162t-126.5 -444z" />
    <glyph glyph-name="R" unicode="R" horiz-adv-x="1405" 
d="M271 186v986q0 110 -189 110q-14 0 -14 38t14 38q116 -5 212 -5t193 2.5t157 2.5q230 0 361 -96.5t131 -277.5q0 -277 -267 -348q-28 -8 0 -57q145 -257 359 -459q111 -105 186 -105q14 0 14 -17.5t-14 -18.5q-42 -4 -67 -4q-163 0 -241 54q-122 85 -211 202l-175 256
q-48 71 -75.5 90t-83 19t-85.5 3.5t-37.5 -2.5t-7.5 -18v-393q0 -117 194 -117q13 0 13 -38t-13 -38q-77 7 -267 7t-267 -7q-13 0 -13 37.5t13 38.5q180 0 180 117zM431 705q0 -31 38 -39t107 -8q387 0 387 326q0 131 -105 221.5t-291 90.5h-89q-47 0 -47 -31v-560z" />
    <glyph glyph-name="S" unicode="S" horiz-adv-x="1042" 
d="M137 1050q0 144 110.5 239.5t277.5 95.5q104 0 190.5 -20.5t99.5 -20.5t16 1q28 -101 38 -258q1 -19 -32 -23.5t-37 13.5q-21 110 -93.5 175.5t-205.5 65.5q-100 0 -162 -66.5t-62 -156.5q0 -233 295 -293q372 -76 372 -412q0 -190 -109.5 -303.5t-280.5 -113.5
q-120 0 -191.5 21t-185.5 79q-49 155 -49 273q0 11 2 19q4 18 35 18t32 -9q9 -129 111.5 -227.5t274.5 -98.5q92 0 157.5 72t65.5 184q0 236 -264 296q-404 94 -405 450z" />
    <glyph glyph-name="T" unicode="T" horiz-adv-x="1321" 
d="M576 186v1050q0 46 -48 46h-152q-265 0 -265 -276q0 -14 -38 -14t-38 14v319q0 33 78 33q101 0 264 -2.5t279 -2.5t278 2.5t275 2.5q78 0 78 -33v-319q0 -14 -38 -14t-38 14q0 276 -262 276h-162q-51 0 -51 -46v-1050q0 -117 189 -117q14 0 14 -38t-14 -38q-92 7 -273 7
t-273 -7q-14 0 -14 38t14 38q197 0 197 117z" />
    <glyph glyph-name="U" unicode="U" horiz-adv-x="1497" 
d="M256 539v633q0 115 -185 115q-13 0 -13 38t13 38q44 -5 276 -5t278 5q13 0 13 -38t-13 -38q-206 0 -206 -115v-631q0 -301 104.5 -397t259.5 -96q193 0 294.5 100.5t101.5 338.5v685q0 115 -188 115q-13 0 -13 38t13 38q45 -5 239 -5t239 5q13 0 13 -38t-13 -38
q-180 0 -180 -115v-443q0 -352 -52.5 -475.5t-166 -202t-312.5 -78.5q-191 0 -300.5 62.5t-155.5 188t-46 315.5z" />
    <glyph glyph-name="V" unicode="V" horiz-adv-x="1287" 
d="M180 1172q-40 115 -147 115q-13 0 -13 38t13 38q44 -5 228 -5t230 5q13 0 13 -38t-13 -38q-143 0 -143 -74q0 -17 7 -41l304 -880q7 -20 16 -20q11 0 20 22l319 869q10 33 10 46q0 78 -102 78q-14 0 -14 38t14 38q46 -5 194 -5t194 5q14 0 14 -38t-14 -38
q-154 0 -187 -86l-476 -1214q-10 -25 -26 -25q-17 0 -32 44z" />
    <glyph glyph-name="W" unicode="W" horiz-adv-x="1971" 
d="M180 1172q-51 115 -147 115q-13 0 -13 38t13 38q45 -5 213 -5t215 5q13 0 13 -38t-13 -38q-113 0 -113 -57q0 -24 15 -58l395 -880q9 -19 17 -19q11 0 20 21l145 317q8 18 8 39q0 22 -10 45l-214 477q-52 115 -137 115q-13 0 -13 38t13 38q44 -5 208 -5t210 5
q13 0 13 -38t-13 -38q-113 0 -113 -55q0 -24 16 -60l116 -259q11 -23 19 -23t19 25l113 248q17 37 17 63q0 61 -100 61q-14 0 -14 38t14 38q46 -5 190 -5t189 5q13 0 13 -38t-13 -38q-149 0 -188 -86l-175 -388q-11 -25 -11 -46q0 -16 7 -32l199 -443q10 -19 18 -19
q10 0 18 21l396 869q17 37 17 62q0 62 -99 62q-13 0 -13 38t13 38q47 -5 180 -5t179 5q14 0 14 -38t-14 -38q-130 0 -169 -86l-542 -1194q-17 -36 -27 -36q-12 0 -27 35l-228 512q-8 16 -16 16t-15 -16l-232 -512q-15 -35 -27 -35q-9 0 -26 35z" />
    <glyph glyph-name="X" unicode="X" horiz-adv-x="1330" 
d="M243 1179q-45 67 -96 88q-45 19 -128 20q-13 0 -13 38t13 38q45 -5 277 -5t280 5q14 0 14 -38t-14 -38q-139 0 -139 -57q0 -25 22 -59l210 -327q11 -16 21 -16q12 0 24 16l241 319q38 50 38 78q0 46 -87 46q-14 0 -14 38t14 38q44 -5 198 -5t201 5q13 0 13 -38t-13 -38
q-118 0 -185 -51q-40 -31 -127 -144l-240 -314q-11 -14 -11 -29q0 -13 9 -27l346 -536q76 -117 240 -117q13 0 13 -38t-13 -38q-77 7 -257 7t-256 -7q-14 0 -14 38t14 38q114 0 114 53q0 26 -29 69l-264 392q-11 17 -20 17q-10 0 -22 -17l-204 -281q-95 -131 -95 -182
t120 -51q14 0 14 -38t-14 -38q-74 7 -220 7t-233 -7q-13 0 -13 38t13 38q161 0 226 86l374 496q8 11 8 20q0 12 -12 30z" />
    <glyph glyph-name="Y" unicode="Y" horiz-adv-x="1235" 
d="M175 1172q-70 115 -188 115q-13 0 -13 38t13 38q45 -5 237 -5t239 5q13 0 13 -38t-13 -38q-121 0 -121 -57q0 -23 21 -58l281 -472q8 -14 16 -14q7 0 16 14l298 463q27 42 27 71q0 53 -111 53q-14 0 -14 38t14 38q46 -5 198 -5t197 5q13 0 13 -38t-13 -38
q-139 0 -211 -109l-308 -473q-65 -100 -71 -129.5t-6 -86.5v-303q0 -117 164 -117q13 0 13 -38t-13 -38q-75 7 -244 7t-244 -7q-13 0 -13 38t13 38q164 0 164 117v301q0 101 -28 147z" />
    <glyph glyph-name="Z" unicode="Z" horiz-adv-x="1241" 
d="M1261 336q-48 -236 -48 -353q0 -13 -15 -16q-35 10 -55 12q-187 21 -660 21h-365q-35 0 -35 24q0 13 10 27l875 1198q9 12 9 21q0 21 -31 21h-554q-55 0 -77 -30q-72 -92 -96.5 -154.5t-43.5 -129.5q-2 -7 -24 -7t-25 14q33 213 33 363q0 18 37 18q97 -9 147 -9h481
q152 0 368 8q25 0 25 -14t-14 -32l-863 -1200q-9 -12 -9 -24q0 -25 30 -25q435 0 640 13q80 5 163 163q39 74 47 107q3 12 26.5 3.5t23.5 -19.5z" />
    <glyph glyph-name="bracketleft" unicode="[" horiz-adv-x="725" 
d="M666 -354h-357q-22 0 -22 22v1843q0 19 20 19h359q17 0 17 -39t-17 -39h-220q-20 0 -20 -22v-1678q0 -28 14 -28h226q17 0 17 -39t-17 -39z" />
    <glyph glyph-name="backslash" unicode="\" horiz-adv-x="717" 
d="M713 25v-7q-5 -9 -29 -20q-36 -16 -55 -16q-15 0 -17 6l-608 1444q-2 2 -2 6q0 14 30 30q32 15 56 15q16 0 18 -8z" />
    <glyph glyph-name="bracketright" unicode="]" horiz-adv-x="739" 
d="M452 -332q0 -22 -22 -22h-377q-23 0 -23 39t21 39h250q12 0 12 24v1682q0 22 -18 22h-224q-24 0 -24 39t20 39h365q20 0 20 -19v-1843z" />
    <glyph glyph-name="asciicircum" unicode="^" horiz-adv-x="1096" 
d="M985 535h-135l-301 682l-303 -682h-140l390 837h104z" />
    <glyph glyph-name="underscore" unicode="_" horiz-adv-x="1024" 
d="M1024 -256h-1024v102h1024v-102z" />
    <glyph glyph-name="grave" unicode="`" horiz-adv-x="569" 
d="M461 1081q4 -11 4 -20q0 -39 -35 -39q-23 0 -41 29l-168 271q-4 5 -4 13q0 26 40 45q22 11 41 11q24 0 31 -16z" />
    <glyph glyph-name="a" unicode="a" horiz-adv-x="797" 
d="M481 199v215q0 22 -14 22q-7 0 -60 -26q-170 -85 -170 -222q0 -49 31.5 -79.5t87.5 -30.5q40 0 82.5 42.5t42.5 78.5zM780 123q22 -3 29 -30q0 -3 -1 -5q-41 -69 -76 -90t-92 -21q-105 0 -142 136q-76 -76 -121 -106t-132 -30q-56 0 -93 31t-52.5 71.5t-15.5 82.5
t20 82.5t58.5 73t66.5 47.5l232 129q20 11 20 32v181q0 88 -133 88q-97 0 -135 -50q-5 -7 -15 -93q-12 -99 -69 -99q-55 0 -55 56t40.5 112.5t69.5 73.5q128 75 246 75q71 0 137.5 -40t66.5 -99v-532q0 -115 67 -115q19 0 72 37q3 2 7 2z" />
    <glyph glyph-name="b" unicode="b" horiz-adv-x="1001" 
d="M930 430q0 -218 -111.5 -335.5t-294.5 -117.5q-59 0 -155 46q-24 10 -58 10t-96 -56q-3 -2 -9 -2t-21 6q-31 12 -31 19q4 61 4 260v918q0 133 -92 133q-17 0 -17 27.5t17 27.5q25 0 105 41t100.5 59.5t32.5 18.5t13 -25l-6 -124v-500q0 -27 13 -27q9 0 20 6q94 55 176 55
q176 0 293 -131.5t117 -308.5zM756 414q0 156 -76.5 266.5t-198.5 110.5q-86 0 -147 -50q-23 -18 -23 -94v-346q0 -81 75.5 -172.5t171.5 -91.5t147 110.5t51 266.5z" />
    <glyph glyph-name="c" unicode="c" horiz-adv-x="817" 
d="M743 152q11 5 24.5 -15.5t13.5 -28.5q0 -6 -5 -11q-26 -23 -108 -71q-80 -48 -222 -49q-146 0 -253 117t-107 302t122 329.5t315 144.5q196 0 233 -73q6 -12 6 -41q0 -19 -22 -46.5t-39 -27.5t-27 14q-78 107 -173 107t-173 -102q-78 -103 -79 -261q0 -158 89.5 -254
t191.5 -96q77 0 213 62z" />
    <glyph glyph-name="d" unicode="d" horiz-adv-x="1012" 
d="M841 231q0 -149 82 -149q11 0 47 6q12 2 18 -37q2 -19 -6 -20q-37 -5 -153 -31.5t-124 -32.5q-17 0 -17 49v41q0 23 -11.5 23t-27.5 -14q-94 -89 -196 -89q-197 0 -292 122.5t-95 311.5t132 324t343 135q70 0 114 -14q12 -4 19 -4q14 0 14 25v294q0 140 -92 140
q-17 0 -17 27.5t17 27.5q25 0 96.5 36.5t103 59.5t41.5 23q11 0 10 -15l-6 -108v-1131zM688 199v469q0 75 -22 94q-59 49 -148 49q-134 0 -211.5 -111.5t-77.5 -259.5t83 -257t192 -109q78 0 131 41t53 84z" />
    <glyph glyph-name="e" unicode="e" horiz-adv-x="838" 
d="M85 431q0 178 113.5 308.5t254.5 130.5t228 -98t87 -160t-51 -63h-449q-30 0 -30 -66q0 -160 76.5 -274.5t211.5 -114.5q101 0 201 60q5 3 11 3q12 0 21 -11q7 -7 7 -21q0 -5 -4 -8q-158 -140 -311 -140t-259.5 138t-106.5 316zM261 630q0 -14 24 -14h321q15 0 15 17
q0 44 -54.5 111t-113.5 67q-65 0 -112.5 -43.5t-76.5 -122.5q-3 -8 -3 -15z" />
    <glyph glyph-name="f" unicode="f" horiz-adv-x="584" 
d="M201 127v600q0 37 -37 37h-74q-15 0 -15 27.5t15 27.5q111 0 111 86v19q0 250 141 406.5t330 156.5q53 0 96 -13q42 -13 66 -39q24 -25 24 -67q0 -30 -27.5 -57t-58.5 -27q-56 0 -101.5 54.5t-99.5 54.5q-106 0 -161.5 -85t-55.5 -207v-214q0 -37 37 -37h203q15 0 15 -43
t-15 -43h-203q-37 0 -37 -37v-600q0 -78 148 -78q14 0 14 -28.5t-14 -28.5q-85 8 -211 8t-207 -8q-14 0 -14 28.5t14 28.5q117 0 117 78z" />
    <glyph glyph-name="g" unicode="g" horiz-adv-x="948" 
d="M59 -308q0 100 187 234q16 14 16 22q-2 11 -20 15q-136 39 -136 148q0 51 114 131q10 7 23.5 15t13.5 20t-15 22q-146 93 -146 239t100.5 239t227.5 93t214 -38.5t138 -38.5h172q15 0 15 -43t-15 -43h-166q4 -37 4 -109q0 -145 -94 -241.5t-262 -96.5q-33 0 -76 4
q-21 0 -43 -14q-69 -45 -69 -100q0 -80 149 -80h254q297 0 297 -228q0 -170 -159.5 -285.5t-354.5 -115.5q-181 0 -275 70.5t-94 180.5zM219 -252q0 -98 73 -157.5t211 -59.5t227 66.5t89 160.5q0 187 -244 187h-184q-35 0 -61 -19q-111 -80 -111 -178zM250 569
q0 -109 66 -179.5t145 -70.5q170 0 170 224q0 172 -86 237q-41 31 -110 31t-127 -66.5t-58 -175.5z" />
    <glyph glyph-name="h" unicode="h" horiz-adv-x="1094" 
d="M921 127q0 -78 127 -78q14 0 14 -28.5t-14 -28.5q-82 8 -198 8t-195 -8q-14 0 -14 28.5t14 28.5q113 0 113 78v420q0 97 -59 165t-143 68t-148 -51t-64 -100v-502q0 -78 111 -78q14 0 14 -28.5t-14 -28.5q-105 8 -205 8t-180 -8q-14 0 -14 28.5t14 28.5q121 0 121 78
v1047q0 139 -92 139q-17 0 -17 27.5t17 27.5q33 0 97.5 34t97.5 60q32 26 44 25q12 0 12 -17q-6 -107 -6 -165v-514q0 -25 16 -25q9 0 17 8q91 96 241 96q145 0 219 -105.5t74 -215.5v-422z" />
    <glyph glyph-name="i" unicode="i" horiz-adv-x="524" 
d="M467 -8q-76 8 -187 8t-192 -8q-14 0 -14 28.5t14 28.5q113 0 113 78v444q0 138 -92 138q-17 0 -17 28t17 28q33 0 97.5 34t97.5 59t44 25q12 0 12 -16q-6 -108 -6 -166v-574q0 -78 113 -78q14 0 14 -28.5t-14 -28.5zM333 1232.5q32 -30.5 32 -75.5t-32 -77t-77 -32
t-75.5 32t-30.5 77t30.5 75.5t75.5 30.5t77 -30.5z" />
    <glyph glyph-name="j" unicode="j" horiz-adv-x="518" 
d="M365 1157q0 -45 -32 -77t-77 -32t-75.5 32t-30.5 77t30.5 75.5t75.5 30.5t77 -30.5t32 -75.5zM358 59q0 -329 -110 -483q-93 -131 -248 -131q-50 0 -87.5 28t-37.5 68q0 32 24.5 51t53.5 19q49 0 88.5 -39t64.5 -39q99 0 99 213v825q0 138 -92 138q-17 0 -17 28t17 28
q33 0 97.5 34t97.5 59t44 25q12 0 12 -16q-6 -108 -6 -166v-642z" />
    <glyph glyph-name="k" unicode="k" horiz-adv-x="1008" 
d="M664 723q26 29 26 47q0 33 -96 33q-14 0 -14 26.5t14 26.5q92 -6 190 -6t174 6q14 0 14 -26.5t-14 -26.5q-92 0 -163 -68l-213 -205q-19 -18 -19 -34t17 -35l321 -367q39 -45 129 -45q14 0 14 -28.5t-14 -28.5q-95 8 -202 8t-201 -8q-14 0 -14 28.5t14 28.5q82 0 82 29
q0 13 -31 49l-221 254q-16 18 -35.5 24.5t-34.5 6.5t-24 -8t-9 -35v-242q0 -78 119 -78q14 0 14 -28.5t-14 -28.5q-104 8 -198 8t-189 -8q-14 0 -13.5 28.5t13.5 28.5q115 0 115 78v1048q0 138 -92 138q-18 0 -17.5 28t17.5 28q33 0 97.5 34t97.5 59t44 25q12 0 12 -16
q-6 -105 -6 -166v-783q0 -43 46 -43t67 23z" />
    <glyph glyph-name="l" unicode="l" horiz-adv-x="524" 
d="M354 127q0 -78 119 -78q14 0 14 -28.5t-14 -28.5q-77 8 -193 8t-196 -8q-14 0 -14 28.5t14 28.5q117 0 117 78v1044q0 140 -92 140q-17 0 -17 27.5t17 27.5q46 0 165 74q34 21 50 33t26 12t10 -15q-6 -57 -6 -97v-1246z" />
    <glyph glyph-name="m" unicode="m" horiz-adv-x="1607" 
d="M1553 -8q-77 8 -189 8t-190 -8q-14 0 -14 28.5t14 28.5q110 0 110 78v453q0 117 -56.5 158.5t-142.5 41.5q-87 0 -138.5 -82t-51.5 -221v-350q0 -78 115 -78q14 0 14 -28.5t-14 -28.5q-80 8 -190 8t-188 -8q-14 0 -14 28.5t14 28.5q110 0 110 78v405q0 90 -16 147
t-48.5 79t-106.5 22q-45 0 -77.5 -17t-64 -41t-53.5 -58t-22 -74v-463q0 -78 106 -78q14 0 14 -28.5t-14 -28.5q-76 8 -188 8t-192 -8q-14 0 -14 28.5t14 28.5q121 0 121 78v451q0 124 -84 124q-17 0 -17 28t17 28q25 0 83.5 34.5t94 62.5t48.5 28q15 0 14 -27
q-4 -78 -4 -83q0 -21 12 -21q9 0 17 8q104 110 252 110q132 0 216 -122q11 -16 19.5 -16t19.5 13q113 125 274 125q122 0 181.5 -68t76 -118.5t16.5 -118.5v-438q0 -78 116 -78q14 0 14 -28.5t-14 -28.5z" />
    <glyph glyph-name="n" unicode="n" horiz-adv-x="1069" 
d="M896 127q0 -78 115 -78q14 0 14 -28.5t-14 -28.5q-77 8 -187 8t-191 -8q-14 0 -14 28.5t14 28.5q110 0 110 78v403q0 84 -14.5 142.5t-45.5 83t-109 24.5q-42 0 -76 -17t-66.5 -40.5t-55 -58t-22.5 -74.5v-463q0 -78 107 -78q14 0 14 -28.5t-14 -28.5q-77 8 -187 8
t-188 -8q-14 0 -14 28.5t14 28.5q115 0 115 78v447q0 128 -84 128q-17 0 -17 28t17 28q38 0 87.5 30t86.5 62.5t52 32.5q14 0 13 -31l-2 -73q-1 -21 14 -21q8 0 15 6q107 106 259 106q148 0 221 -147q33 -66 33 -248v-348z" />
    <glyph glyph-name="o" unicode="o" horiz-adv-x="995" 
d="M84 428q0 168 125 305t299 137t295 -136q121 -138 121 -314t-111 -309.5t-297 -133.5t-309 141.5t-123 309.5zM247 422q0 -178 81.5 -278.5t175.5 -100.5q96 0 176 101q81 102 81 278t-80 282t-175 107q-96 0 -177.5 -105.5t-81.5 -283.5z" />
    <glyph glyph-name="p" unicode="p" horiz-adv-x="1001" 
d="M945 418q0 -198 -109.5 -319.5t-304.5 -121.5q-110 0 -167 19q-6 2 -11 2q-26 0 -26 -33v-381q0 -86 151 -86q14 0 14 -28.5t-14 -28.5q-85 8 -212 8t-207 -8q-14 0 -14 28.5t14 28.5q115 0 115 84v999q0 124 -86 124q-17 0 -17 27.5t17 27.5q29 0 99 40t91.5 61.5
t39.5 21.5q13 0 13 -27l-4 -68q0 -20 16 -20q9 0 18 8q84 94 187 94q112 0 206 -68.5t142.5 -153.5t48.5 -230zM771 420q0 368 -264 368q-84 0 -160 -100q-20 -26 -20 -94v-389q-1 -164 189 -164q140 0 197.5 111t57.5 268z" />
    <glyph glyph-name="q" unicode="q" horiz-adv-x="1012" 
d="M669 0q-64 -22 -231 -23q-174 0 -273 116.5t-99 322.5q0 212 121.5 333t264.5 121t259 -59l118 55q46 -2 39 -45q-27 -27 -27 -299v-940q0 -84 133 -84q14 0 14 -28.5t-14 -28.5q-84 8 -210 8t-209 -8q-14 0 -14 28.5t14 28.5q133 0 133 86v379q0 37 -19 37zM688 205v418
q0 37 -14 59q-66 106 -152 106q-293 1 -293 -353q0 -159 60.5 -276.5t184.5 -117.5q214 0 214 164z" />
    <glyph glyph-name="r" unicode="r" horiz-adv-x="696" 
d="M581 870q32 0 53 -11t39 -34t18 -67q0 -12 -10 -34t-31 -38q-20 -16 -42 -16t-67.5 24.5t-68.5 24.5q-61 0 -103 -60.5t-42 -164.5v-367q0 -78 151 -78q14 0 14 -28.5t-14 -28.5q-84 8 -210 8t-209 -8q-14 0 -14 28.5t14 28.5q115 0 115 78v462q0 113 -84 113
q-17 0 -17 28t17 28q38 0 109 48t87.5 62.5t27.5 14.5q17 0 17 -25q-4 -49 -4 -89.5t13.5 -40.5t27.5 20q89 122 213 122z" />
    <glyph glyph-name="s" unicode="s" horiz-adv-x="707" 
d="M649 246q0 -81 -42 -144.5t-115 -95t-154 -31.5q-156 0 -240 60q-20 63 -20 172v45q0 15 23.5 15t25.5 -15q5 -39 65 -126t179 -87q59 0 110 37t51 107t-43 112.5t-153 72t-177 94.5t-67 165q0 102 84 172.5t213 70.5t207 -36q31 -84 31 -170v-11q0 -14 -22 -14t-25 14
q-10 54 -67.5 105t-134.5 51t-124 -37.5t-47 -101.5q0 -60 33.5 -93.5t166.5 -72t187.5 -97t54.5 -161.5z" />
    <glyph glyph-name="t" unicode="t" horiz-adv-x="674" 
d="M193 213v507q0 40 -40 40h-73q-14 0 -14 23t14 23q45 0 93 35.5t80 78t48 81.5q4 9 14 9t20.5 -5t10.5 -14v-98q0 -43 41 -43h244q14 0 14 -45t-14 -45h-244q-41 0 -41 -40v-403q0 -131 37.5 -187t124.5 -56q52 0 108 39q14 10 21.5 -4t7.5 -21t-2 -10
q-84 -101 -220 -101q-125 0 -177.5 54.5t-52.5 181.5z" />
    <glyph glyph-name="u" unicode="u" horiz-adv-x="1036" 
d="M1009 31q-28 -3 -136.5 -27.5t-137.5 -35.5q-3 -1 -7 -1q-16 0 -16 45v45q0 24 -11.5 24t-27.5 -15q-95 -89 -234 -89q-105 0 -185 106t-80 218v335q0 147 -111 147q-15 0 -15 28t15 28q105 0 169.5 9t83.5 9q20 0 19 -16q-8 -123 -8 -152v-355q0 -115 39.5 -187.5
t121.5 -72.5q88 0 156 52t68 126v384q0 147 -111 147q-15 0 -15 28t15 28q123 0 180.5 9t69.5 9q22 0 20 -27q-6 -87 -6 -139v-464q0 -155 82 -145l47 6q17 2 22 -27q1 -8 1 -15q0 -14 -8 -15z" />
    <glyph glyph-name="v" unicode="v" horiz-adv-x="838" 
d="M115 731q-29 72 -103 72q-14 0 -14 26.5t14 26.5q58 -6 176 -6t179 6q14 0 14 -26.5t-14 -26.5q-78 0 -78 -55q0 -17 4 -29l160 -490q6 -18 14 -18t14 18l170 498q4 10 4 23q0 53 -96 53q-14 0 -14 26.5t14 26.5q57 -6 143 -6t146 6q14 0 14 -26.5t-14 -26.5
q-96 0 -121 -72l-250 -715q-13 -39 -42 -39t-40 27z" />
    <glyph glyph-name="w" unicode="w" horiz-adv-x="1331" 
d="M115 731q-29 72 -103 72q-14 0 -14 26.5t14 26.5q58 -6 176 -6t179 6q14 0 14 -26.5t-14 -26.5q-78 0 -78 -55q0 -17 4 -29l160 -490q6 -18 14 -18t14 18l150 435q6 20 6 28q0 59 -51 94q-27 17 -62 17q-14 0 -14 26.5t14 26.5q58 -6 176 -6t179 6q14 0 14 -26.5
t-14 -26.5q-78 0 -78 -55q0 -17 4 -29l160 -490q6 -18 14 -18t14 18l170 498q4 10 4 23q0 53 -96 53q-14 0 -14 26.5t14 26.5q57 -6 143 -6t146 6q14 0 14 -26.5t-14 -26.5q-96 0 -121 -72l-250 -715q-13 -39 -42 -39t-40 27l-213 549q-8 20 -14 20t-14 -20l-189 -537
q-13 -39 -42 -39t-40 27z" />
    <glyph glyph-name="x" unicode="x" horiz-adv-x="918" 
d="M188 733q-51 70 -98 70q-14 0 -14 26.5t14 26.5q56 -6 170 -6t172 6q14 0 14 -26.5t-14 -26.5q-76 0 -76 -37q0 -18 17 -45l110 -176q9 -15 19 -15t20 15l121 160q27 35 27 57q0 41 -82 41q-14 0 -14 26.5t14 26.5q57 -6 146 -6t149 6q14 0 14 -26.5t-14 -26.5
q-67 0 -125 -72l-195 -237q-14 -17 -14 -29t10 -27l211 -305q58 -84 148 -84q14 0 14 -28.5t-14 -28.5q-76 8 -194 8t-200 -8q-14 0 -14 28.5t14 28.5q97 0 97 33q0 12 -23 47l-137 215q-9 12 -17 12t-16 -12l-143 -199q-33 -47 -33 -67q0 -29 65 -29q14 0 14 -28.5
t-14 -28.5q-79 8 -149 8t-145 -8q-14 0 -14 28.5t14 28.5q94 0 147 68l225 282q8 11 8 22t-8 23z" />
    <glyph glyph-name="y" unicode="y" horiz-adv-x="838" 
d="M82 731q-26 72 -121 72q-14 0 -14 26.5t14 26.5q57 -6 184 -6t187 6q14 0 14 -26.5t-14 -26.5q-96 0 -96 -55q0 -16 4 -29l174 -504q10 -31 25 -31t28 33l195 502q6 13 6 26q0 58 -129 58q-14 0 -14 26.5t14 26.5q57 -6 163 -6t164 6q14 0 14 -26.5t-14 -26.5
q-96 0 -125 -72l-442 -1149q-25 -64 -73.5 -99.5t-104.5 -35.5q-40 0 -65 25t-25 51q0 76 94.5 76t120.5 63l96 240q11 25 11 39t-13 51z" />
    <glyph glyph-name="z" unicode="z" horiz-adv-x="735" 
d="M713 276q-31 -229 -31 -266t-27 -37q-10 0 -68.5 13.5t-94.5 13.5h-420q-17 0 -17 14q0 6 2 9l398 729q8 15 8 23q0 18 -29 18h-158q-78 0 -131 -107l-61 -123q-3 -6 -13.5 -2.5t-9.5 8.5l37 267q5 37 23 34l103 -16q26 -4 77 -4h346q15 0 15 -7t-5 -16l-397 -723
q-6 -11 -6 -18q0 -18 27 -22t68.5 -4t72.5 1q106 0 170 72q24 27 80 152q4 9 23 4t18 -13z" />
    <glyph glyph-name="braceleft" unicode="{" horiz-adv-x="784" 
d="M715 -319q-224 0 -288.5 24.5t-102 89.5t-37.5 187v442q0 176 -211 176q-10 0 -10 17.5t10 17.5q211 0 211 172v338q0 163 41 237t123.5 92.5t263.5 18.5q14 0 14 -23.5t-14 -23.5q-156 0 -223.5 -52t-67.5 -186v-243q0 -173 -12 -212.5t-45.5 -77t-106.5 -54.5v-7
q67 -12 102.5 -47.5t48.5 -85t13 -188.5v-277q0 -172 63 -230t228 -58q14 0 14 -23.5t-14 -23.5z" />
    <glyph glyph-name="bar" unicode="|" horiz-adv-x="537" 
d="M354 -334h-121v1768h121v-1768z" />
    <glyph glyph-name="braceright" unicode="}" horiz-adv-x="821" 
d="M719 600q-211 0 -211 -176v-442q0 -135 -49 -205.5t-137.5 -83t-241.5 -12.5q-14 0 -14 23.5t14 23.5q165 0 228 58t63 230v277q0 143 15 192t48 83t101 46v7q-77 18 -109 56t-43.5 78.5t-11.5 209.5v243q0 136 -70 187t-221 51q-14 0 -14 23.5t14 23.5
q170 0 259.5 -16.5t129 -95.5t39.5 -236v-338q0 -172 211 -172q10 0 10 -17.5t-10 -17.5z" />
    <glyph glyph-name="asciitilde" unicode="~" horiz-adv-x="676" 
d="M653 512q0 -40 -80 -99q-83 -58 -135 -63q-45 0 -135 33q-99 35 -133 35q-66 0 -121 -66q-3 -3 -7 -3q-12 0 -18 12v9q0 2 1 3q101 149 211 149q42 0 141 -35q78 -28 115 -28q60 0 133 71l8 3q13 -1 19 -15q1 -3 1 -6z" />
    <glyph glyph-name="uni00A0" unicode="&#xa0;" horiz-adv-x="559" 
 />
    <glyph glyph-name="exclamdown" unicode="&#xa1;" horiz-adv-x="520" 
d="M260 634q-62 0 -92 37t-30 87.5t35 81t88 30.5t86 -36t33 -87t-30 -82t-90 -31zM152 -443q0 63 31 354.5t43 497.5q2 16 34 16t32 -16q8 -199 35 -491t27 -348t-31 -90t-67 -34q-104 0 -104 111z" />
    <glyph glyph-name="cent" unicode="&#xa2;" horiz-adv-x="829" 
d="M545 1305q2 10 22 10q71 0 66 -27l-31 -175q130 -12 160 -70q6 -12 6 -41q0 -19 -22 -46.5t-39 -27.5t-27 14q-44 60 -93 86l-120 -681q34 -11 69 -11q77 0 213 62q11 5 24.5 -15.5t13.5 -28.5q0 -6 -5 -11q-26 -23 -108 -71q-80 -48 -222 -49h-7l-33 -190
q-2 -10 -27 -10q-67 0 -63 24l34 190q-88 26 -158 103q-106 117 -106 302q0 186 122 330q116 138 297 144zM384 395l116 654q-90 -4 -166 -102q-78 -103 -78 -261q-2 -158 88 -254q20 -21 40 -37z" />
    <glyph glyph-name="sterling" unicode="&#xa3;" horiz-adv-x="1126" 
d="M559 655q16 -90 16 -197t-67 -292q180 -68 270 -68q134 0 246 99q35 32 43 32q14 0 14 -21.5t-26 -78.5q-78 -170 -264 -170q-128 0 -330 137q-63 -65 -121 -101t-146 -36q-76 0 -119.5 42t-43.5 99q0 65 46 108.5t128 43.5q63 0 237 -57q23 78 23 135q0 124 -64 325
h-274q-15 0 -15 36t15 36h250q-60 163 -60 299q0 138 112.5 241t275.5 103q91 0 197 -32.5t106 -80.5q0 -187 -27 -227q-3 -4 -12 -4q-19 0 -39.5 71t-33.5 107t-59.5 77.5t-142.5 41.5q-113 0 -174 -69q-61 -70 -61 -154t84 -373h323q16 0 16 -36t-16 -36h-307zM410 125
q-102 74 -180 74q-82 0 -112 -33.5t-30 -65.5q0 -38 32 -63t85 -25q112 0 205 113z" />
    <glyph glyph-name="currency" unicode="&#xa4;" horiz-adv-x="1024" 
d="M80 668q0 148 88 260l-80 80q-11 11 31 53t53 31l80 -78q112 88 260 88q147 0 262 -88l78 78q11 11 53 -31t31 -53l-78 -78q88 -115 88 -262q0 -149 -88 -262l78 -78q12 -12 -31 -53t-53 -31l-78 78q-116 -89 -262 -89q-142 0 -260 91l-80 -80q-10 -10 -53 31t-31 53
l80 80q-88 112 -88 260zM168 668q0 -144 100.5 -245t243.5 -101q146 0 247 101t101 245q0 140 -103 243t-245 103q-141 0 -242.5 -101.5t-101.5 -244.5z" />
    <glyph glyph-name="yen" unicode="&#xa5;" horiz-adv-x="1325" 
d="M1096 571q15 0 15 -50t-15 -50h-368v-285q0 -117 164 -117q13 0 13 -38t-13 -38q-75 7 -244 7t-244 -7q-13 0 -13 38t13 38q164 0 164 117v285h-1h-346q-15 0 -15 50t15 50h341q-7 39 -22 63l-62 103h-257q-15 0 -15 50.5t15 50.5h195l-202 334q-70 115 -188 115
q-13 0 -13 38t13 38q44 -5 236.5 -5t239.5 5q13 0 13 -38t-13 -38q-121 0 -121 -57q0 -23 21 -58l281 -472q8 -14 15.5 -14t16.5 14l298 463q27 42 27 71q0 53 -111 53q-14 0 -14 38t14 38q45 -5 197.5 -5t197.5 5q13 0 13 -38t-13 -38q-138 1 -210 -109l-222 -340h204
q15 0 15 -50.5t-15 -50.5h-270l-21 -32q-65 -100 -71 -129q0 -2 -1 -5h363z" />
    <glyph glyph-name="brokenbar" unicode="&#xa6;" horiz-adv-x="537" 
d="M354 834h-121v538h121v-538zM354 111h-121v536h121v-536z" />
    <glyph glyph-name="section" unicode="&#xa7;" horiz-adv-x="956" 
d="M879 481q0 -195 -183 -299q131 -101 131 -241q0 -144 -114 -246q-110 -98 -256 -98q-98 0 -203 43q-135 51 -135 129q0 22 33 49q34 28 55 28q15 0 55 -45l44 -49q70 -78 165 -78q99 0 159 79q46 61 46 143q0 104 -152 206l-278 177q-152 114 -152 251q0 95 51 181
q53 89 140 123q-115 102 -115 229q0 135 102 227q100 90 238 90q83 0 166 -32q112 -43 112 -105q0 -29 -35 -59q-22 -19 -42 -19q-10 0 -78 68q-67 70 -148 70q-67 0 -128 -56q-52 -47 -52 -131q0 -102 150 -196l274 -172q150 -117 150 -267zM754 428q0 123 -224 248
q-111 62 -194 121q-121 -72 -121 -199q0 -96 92 -156l334 -219q113 79 113 205z" />
    <glyph glyph-name="dieresis" unicode="&#xa8;" horiz-adv-x="797" 
d="M325 1156q0 -45 -31.5 -76.5t-76.5 -31.5t-76.5 31.5t-31.5 76.5t31.5 76.5t76.5 31.5t76.5 -31.5t31.5 -76.5zM706 1156q0 -45 -31.5 -76.5t-76 -31.5t-76 31.5t-31.5 76.5t31.5 76.5t76 31.5t76 -31.5t31.5 -76.5z" />
    <glyph glyph-name="copyright" unicode="&#xa9;" horiz-adv-x="1442" 
d="M347 737q0 123 52.5 213.5t136.5 141.5t207 51q61 0 148 -17l12 -2q69 -13 71 -13q16 -74 15 -171q-2 -9 -19 -9q-16 0 -18 8q-15 165 -224 165q-112 0 -194 -101.5t-82 -232.5q0 -156 80 -259.5t194 -103.5q195 0 249 148q2 6 15.5 6t18.5 -4q2 -2 2 -8
q-21 -105 -49 -148q-18 -2 -42 -10q-81 -25 -207 -25q-98 0 -181.5 47.5t-134 131t-50.5 192.5zM1444 748q0 -299 -211 -510t-510 -211t-510 211t-211 510t211 509.5t510 210.5t510 -210.5t211 -509.5zM1374 748q0 270 -190.5 460.5t-460.5 190.5t-460.5 -190.5
t-190.5 -453.5t184 -461t459.5 -198t467 191.5t191.5 460.5z" />
    <glyph glyph-name="ordfeminine" unicode="&#xaa;" horiz-adv-x="516" 
d="M520 577q-35 -68 -114 -68q-55 0 -98 49q-8 11 -12 12q-8 0 -17 -11q-49 -49 -119 -49q-75 0 -107 51q-16 26 -15 60q0 73 127 139l91 43q21 12 21 28v114q0 43 -63 43q-47 0 -70 -30q-5 -8 -6 -45q0 -21 -3 -31q-15 -53 -55 -53q-54 0 -54 47q0 40 33 86q19 26 39 39
q72 45 159 45q68 0 117 -34q39 -26 40 -64v-305q0 -68 40 -68q18 -2 43 22q5 5 17 -6q9 -8 6 -14zM277 640v109q0 14 -9 14q-4 0 -8 -2q-85 -43 -84 -114q0 -70 43 -70q58 0 58 63z" />
    <glyph glyph-name="guillemotleft" unicode="&#xab;" horiz-adv-x="789" 
d="M419 104q10 -15 -7.5 -30.5t-29.5 -3.5l-299 312q-24 25 -24 53t24 53l299 312q11 11 28.5 -3t8.5 -27l-197 -294q-12 -18 -12 -41t12 -41zM726 104q10 -15 -7.5 -30.5t-29.5 -3.5l-299 312q-24 25 -24 53t24 53l299 312q11 11 28.5 -3t8.5 -27l-197 -294
q-12 -18 -12 -41t12 -41z" />
    <glyph glyph-name="logicalnot" unicode="&#xac;" horiz-adv-x="1366" 
d="M1366 0h-123v537h-1243v120h1366v-657z" />
    <glyph glyph-name="uni00AD" unicode="&#xad;" horiz-adv-x="827" 
d="M707 602q16 0 16 -57q0 -58 -18 -58h-590q-15 0 -15 58q0 57 15 57h592z" />
    <glyph glyph-name="registered" unicode="&#xae;" horiz-adv-x="1524" 
d="M527 487v533q0 59 -102 59q-8 0 -7.5 20.5t7.5 20.5q63 -3 115 -2.5t104 1.5t85 1q124 0 194.5 -52t70.5 -150q0 -150 -144 -188q-15 -4 0 -30q78 -139 194 -248q60 -57 101 -57q8 0 7.5 -9.5t-7.5 -9.5q-23 -2 -37 -2q-88 0 -130 29q-66 46 -114 109l-94 138
q-26 38 -41 48.5t-45 10.5t-46 2t-20 -1.5t-4 -9.5v-213q0 -63 104 -63q7 0 7.5 -20.5t-7.5 -20.5q-42 4 -144 4t-144 -4q-7 0 -7 20.5t7 20.5q97 0 97 63zM614 768q0 -17 20.5 -21.5t57.5 -4.5q209 0 209 176q0 71 -56.5 120t-157.5 49h-48q-25 0 -25 -17v-302zM1444 748
q0 -299 -211 -510t-510 -211t-510 211t-211 510t211 509.5t510 210.5t510 -210.5t211 -509.5zM1374 748q0 270 -190.5 460.5t-460.5 190.5t-460.5 -190.5t-190.5 -455t185.5 -461t459.5 -196.5t465.5 191t191.5 461z" />
    <glyph glyph-name="macron" unicode="&#xaf;" horiz-adv-x="608" 
d="M528 1198q28 0 28 -47t-32 -47h-446q-29 0 -29 47t29 47h450z" />
    <glyph glyph-name="degree" unicode="&#xb0;" horiz-adv-x="713" 
d="M631 1047q0 -133 -95 -207q-74 -58 -180 -58q-134 0 -212 89q-62 72 -62 176q0 119 89 197q77 67 185 67q132 0 212 -90q63 -71 63 -174zM516 1047q0 103 -63 157q-41 35 -97 35q-89 0 -133 -81q-26 -48 -26 -111q0 -99 62 -157q40 -36 97 -36q89 0 133 81q27 48 27 112z
" />
    <glyph glyph-name="plusminus" unicode="&#xb1;" horiz-adv-x="1024" 
d="M907 596h-334v-371h-120v371h-334v100h334v336h120v-336h334v-100zM907 2h-788v100h788v-100z" />
    <glyph glyph-name="uni00B2" unicode="&#xb2;" horiz-adv-x="630" 
d="M526 541q-10 -23 -48 -23q-81 5 -148 4h-48q-97 0 -205 -4q-32 0 -32 28q0 13 12 24q96 96 189 222q153 208 153 318q-3 123 -103 123q-89 0 -145 -99q-7 -13 -29 1q-16 10 -10 20q49 95 126 139q50 28 106 28q98 0 157 -66q52 -58 52 -140q0 -115 -165 -300
q-35 -40 -174 -178h177q69 0 95 11q30 13 47 48q7 13 32 2q23 -9 20 -17z" />
    <glyph glyph-name="uni00B3" unicode="&#xb3;" horiz-adv-x="630" 
d="M538 778q0 -104 -74 -181q-86 -89 -217 -89q-86 0 -139 30q-47 26 -48 70q0 58 73 58q27 0 56 -33l30 -36q28 -28 60 -28q61 0 93 80q20 52 20 114q0 80 -49 126q-39 38 -98 38q-35 0 -64 -11q-17 0 -17 34q0 31 13 31q92 0 145 50q41 39 41 96q0 60 -33 94
q-23 24 -58 24q-55 0 -101 -50q-18 -20 -33 -43q-8 -13 -30 4q-16 12 -9 23q57 85 109 115q47 28 104 28q80 0 135 -56q51 -52 51 -125q0 -103 -104 -163q144 -42 144 -200z" />
    <glyph glyph-name="acute" unicode="&#xb4;" horiz-adv-x="569" 
d="M400 1336l-179 -285q-18 -29 -41 -29q-33 0 -33 37q0 12 5 22l135 307q6 13 25 13q34 0 70 -29q20 -16 20 -29q0 -3 -2 -7z" />
    <glyph glyph-name="uni00B5" unicode="&#xb5;" horiz-adv-x="1106" 
d="M928 256q0 -121 20.5 -146t63.5 -25q20 -1 46 3q14 2 20 -26q1 -7 1 -13q0 -16 -10 -18q-154 -28 -272 -62q-23 0 -23 47v41q0 31 -13 29q-14 -2 -28 -16q-102 -93 -276 -93q-84 0 -144 39q-8 -62 -8 -138t8 -240q7 -130 -100 -130q-88 0 -88 115q0 77 24.5 240t24.5 436
v339q0 147 -111 147q-17 0 -17 28t17 28q64 0 156.5 9t105.5 9q11 0 11 -20q-8 -124 -8 -158v-429q0 -186 168 -186q278 0 278 219v353q0 147 -110 147q-16 0 -16 28t16 28q68 0 151.5 9t101.5 9q17 0 17 -27q-6 -103 -6 -139v-437z" />
    <glyph glyph-name="paragraph" unicode="&#xb6;" horiz-adv-x="997" 
d="M836 127q0 -78 118 -78q14 0 14 -29q0 -28 -14 -28q-83 8 -157 8h-256q-82 0 -170 -8q-14 0 -14 28q0 29 14 29q116 0 116 76v569q-257 0 -384 140q-87 96 -87 243q0 185 128 284q123 95 309 95q277 -4 342 -4q50 0 159 6q14 0 14 -29q0 -28 -14 -28q-118 0 -118 -77
v-1197zM743 125v1199q0 74 -75 74q-88 0 -88 -74v-1197q0 -78 79 -78q84 0 84 76z" />
    <glyph glyph-name="periodcentered" unicode="&#xb7;" horiz-adv-x="745" 
d="M238 623q0 51 36 82t91 31t85 -37t30 -87.5t-34.5 -81t-87.5 -30.5t-86.5 36t-33.5 87z" />
    <glyph glyph-name="cedilla" unicode="&#xb8;" horiz-adv-x="737" 
d="M535 -272q0 -83 -77 -137q-60 -44 -136 -44q-119 0 -119 72q0 53 51 53q23 0 57 -28q37 -31 51 -31q56 0 56 63q0 80 -135 142l123 182h73l-71 -98q127 -78 127 -174z" />
    <glyph glyph-name="uni00B9" unicode="&#xb9;" horiz-adv-x="630" 
d="M358 692q0 -76 22 -102t76 -27q9 0 9 -22.5t-9 -22.5q-48 5 -170 4q-122 0 -170 -4q-9 0 -9.5 22.5t9.5 22.5q64 0 86 30q20 27 20 98v484q0 39 -12 34q-63 -21 -97 -38q-12 -6 -18.5 13t4.5 23q79 33 209 128q16 12 29 12q26 0 26 -32q-5 -43 -5 -96v-527z" />
    <glyph glyph-name="ordmasculine" unicode="&#xba;" horiz-adv-x="619" 
d="M581 780q0 -125 -73 -199q-71 -71 -197 -71q-111 0 -188 73q-83 79 -83 195q0 102 66 178q79 90 204 90q131 0 210 -95q61 -73 61 -171zM429 776q0 110 -43 175q-32 49 -75 49q-49 0 -84 -63q-36 -65 -36 -161q0 -111 44 -172q31 -43 75 -43q56 0 90 68q29 59 29 147z
" />
    <glyph glyph-name="guillemotright" unicode="&#xbb;" horiz-adv-x="789" 
d="M366 104l197 290q12 18 12 41t-12 41l-197 294q-9 13 8.5 27t28.5 3l299 -312q24 -25 24 -53t-24 -53l-299 -312q-12 -13 -29.5 3t-7.5 31zM59 104l197 290q12 18 12 41t-12 41l-197 294q-9 13 8.5 27t28.5 3l299 -312q24 -25 24 -53t-24 -53l-299 -312q-12 -13 -29.5 3
t-7.5 31z" />
    <glyph glyph-name="onequarter" unicode="&#xbc;" horiz-adv-x="1509" 
d="M393 709q0 -83 23 -112t83 -28q10 0 9.5 -25t-9.5 -25q-52 5 -184 6q-133 0 -185 -6q-10 0 -10 25t10 25q71 0 94 32q21 29 22 106v524q0 42 -14 37q-68 -23 -104 -41q-13 -6 -20.5 14.5t5.5 24.5q86 36 226 139q18 13 31 13q28 0 28 -35q-5 -46 -5 -104v-570zM1384 101
q0 -57 66 -57q10 0 10 -24.5t-10 -24.5q-52 5 -135 5q-116 0 -171 -5q-10 0 -10 24.5t10 24.5q92 0 92 57v140h-299q-57 0 -57 38q0 32 34 79l188 249q122 162 155 214l61 97q10 12 28 12q55 0 56 -35q0 -6 -3 -11l-401 -530q-6 -8 -6 -14q0 -12 12 -12h232v278q0 14 73 14
q75 0 75 -14v-278h80q10 0 10 -43q0 -44 -10 -44h-80v-140zM1259 1389l-891 -1354q-8 -11 -35.5 9.5t-21.5 29.5l888 1351q4 6 10 6q10 0 28 -12q29 -19 22 -30z" />
    <glyph glyph-name="onehalf" unicode="&#xbd;" horiz-adv-x="1509" 
d="M1401 20q-11 -25 -52 -25q-88 5 -160 5h-52q-105 0 -223 -5q-34 0 -34 30q0 14 13 27q104 104 205 240q166 226 165 344q-3 133 -111 134q-97 0 -158 -107q-8 -14 -31 1q-18 11 -11 22q53 103 137 150q55 31 115 30q107 0 170 -71q56 -62 56 -152q0 -125 -179 -325
q-38 -43 -188 -193h192q75 0 103 12q32 14 50 52q7 14 35 3q25 -10 22 -19zM393 709q0 -83 23 -112t83 -28q10 0 9.5 -25t-9.5 -25q-52 5 -184 6q-133 0 -185 -6q-10 0 -10 25t10 25q71 0 94 32q21 29 22 106v524q0 42 -14 37q-68 -23 -104 -41q-13 -6 -20.5 14.5t5.5 24.5
q86 36 226 139q18 13 31 13q28 0 28 -35q-5 -46 -5 -104v-570zM1255 1389l-891 -1354q-8 -11 -35.5 9.5t-21.5 29.5l888 1351q4 6 10 6q10 0 28 -12q29 -19 22 -30z" />
    <glyph glyph-name="threequarters" unicode="&#xbe;" horiz-adv-x="1509" 
d="M1384 101q0 -57 66 -57q10 0 10 -24.5t-10 -24.5q-52 5 -135 5q-116 0 -171 -5q-10 0 -10 24.5t10 24.5q92 0 92 57v140h-299q-57 0 -57 38q0 32 34 79l188 249q122 162 155 214l61 97q10 12 28 12q55 0 56 -35q0 -6 -3 -11l-401 -530q-6 -8 -6 -14q0 -12 12 -12h232v278
q0 14 73 14q75 0 75 -14v-278h80q10 0 10 -43q0 -44 -10 -44h-80v-140zM555 804q0 -113 -81 -196q-94 -96 -235 -96q-94 0 -151 32q-52 28 -52 76q0 63 80 63q29 0 60 -36l33 -39q30 -31 65 -30q66 0 100 86q22 57 22 124q0 86 -53 136q-42 41 -106 41q-38 0 -70 -11
q-18 0 -18 36q0 33 14 34q100 0 157 54q44 42 44 104q0 65 -36 102q-25 26 -62 26q-59 0 -109 -54q-20 -21 -37 -47q-10 -14 -32 4q-18 13 -10 25q62 92 118 126q52 30 114 29q86 0 145 -61q55 -57 55 -134q0 -111 -111 -177q156 -46 156 -217zM1259 1389l-891 -1354
q-8 -11 -35.5 9.5t-21.5 29.5l888 1351q4 6 10 6q10 0 28 -12q29 -19 22 -30z" />
    <glyph glyph-name="questiondown" unicode="&#xbf;" horiz-adv-x="752" 
d="M467 866q66 0 100 -50q19 -29 19 -66q0 -69 -51 -106q-30 -21 -68 -21q-64 0 -99 56q-20 32 -20 71q0 71 58 102q27 14 61 14zM596 -444q0 -82 -84 -82q-127 0 -244 133q-118 133 -118 299q0 144 81 188l166 88q74 39 74 90q0 56 -20 125q0 18 25 20l15 -2q4 -2 5 -5
q75 -138 75 -211q0 -93 -114 -152l-105 -55q-116 -62 -116 -152q0 -84 49 -129q72 -67 230 -69h13q30 0 54 -39q14 -24 14 -47z" />
    <glyph glyph-name="Agrave" unicode="&#xc0;" horiz-adv-x="1398" 
d="M818 1545q9 -8 15 -18t6 -21q0 -13 -11.5 -22.5t-25.5 -9.5t-31 9l-281 151q-6 2 -10 9.5t-4 16.5q0 18 15 40.5t28.5 30.5t23.5 8q8 0 14 -5zM1175 186q39 -117 192 -117q13 0 13 -38t-13 -38q-73 7 -231 7t-230 -7q-14 0 -14 38t14 38q99 0 99 68q0 23 -8 49l-101 313
q-9 32 -44 32h-407q-28 0 -40 -35l-113 -314q-9 -22 -9 -40q0 -73 151 -73q14 0 14 -38t-14 -38q-85 7 -213 7t-212 -7q-14 0 -13.5 38t13.5 38q97 0 129 28t66 104l377 987q6 17 6 30t-13 26.5t-13 19.5t39.5 27.5t92.5 58.5t65 37q23 0 35 -44q26 -97 49 -166zM831 600
q25 0 25 16q0 5 -2 11l-170 532q-6 20 -18 20t-19 -20l-197 -532q-2 -5 -2 -11q0 -16 24 -16h359z" />
    <glyph glyph-name="Aacute" unicode="&#xc1;" horiz-adv-x="1398" 
d="M911 1640l-297 -157q-18 -9 -32 -9q-12 0 -24 8.5t-12 21.5q0 10 6.5 21.5t16.5 17.5l270 199q5 4 12 4q9 0 21 -8t23 -23t17.5 -31.5t6.5 -26.5q0 -6 -2 -10.5t-6 -6.5zM1175 186q39 -117 192 -117q13 0 13 -38t-13 -38q-73 7 -231 7t-230 -7q-14 0 -14 38t14 38
q99 0 99 68q0 23 -8 49l-101 313q-9 32 -44 32h-407q-28 0 -40 -35l-113 -314q-9 -22 -9 -40q0 -73 151 -73q14 0 14 -38t-14 -38q-85 7 -213 7t-212 -7q-14 0 -13.5 38t13.5 38q97 0 129 28t66 104l377 987q6 17 6 30t-13 26.5t-13 19.5t39.5 27.5t92.5 58.5t65 37
q23 0 35 -44q26 -97 49 -166zM831 600q25 0 25 16q0 5 -2 11l-170 532q-6 20 -18 20t-19 -20l-197 -532q-2 -5 -2 -11q0 -16 24 -16h359z" />
    <glyph glyph-name="Acircumflex" unicode="&#xc2;" horiz-adv-x="1398" 
d="M1175 186q39 -117 192 -117q13 0 13 -38t-13 -38q-73 7 -231 7t-230 -7q-14 0 -14 38t14 38q99 0 99 68q0 23 -8 49l-101 313q-9 32 -44 32h-407q-28 0 -40 -35l-113 -314q-9 -22 -9 -40q0 -73 151 -73q14 0 14 -38t-14 -38q-85 7 -213 7t-212 -7q-14 0 -13.5 38t13.5 38
q97 0 129 28t66 104l377 987q6 17 6 30t-13 26.5t-13 19.5t39.5 27.5t92.5 58.5t65 37q23 0 35 -44q26 -97 49 -166zM831 600q25 0 25 16q0 5 -2 11l-170 532q-6 20 -18 20t-19 -20l-197 -532q-2 -5 -2 -11q0 -16 24 -16h359zM1008 1507q3 -3 3.5 -8.5t-7 -14t-15.5 -8.5
q-3 0 -5 1l-246 139q-16 9 -34 9t-34 -9l-241 -139q-3 -2 -8 -2q-9 0 -17 8t-8 14t4 10l260 250q23 22 44 22t44 -22z" />
    <glyph glyph-name="Atilde" unicode="&#xc3;" horiz-adv-x="1398" 
d="M1175 186q39 -117 192 -117q13 0 13 -38t-13 -38q-73 7 -231 7t-230 -7q-14 0 -14 38t14 38q99 0 99 68q0 23 -8 49l-101 313q-9 32 -44 32h-407q-28 0 -40 -35l-113 -314q-9 -22 -9 -40q0 -73 151 -73q14 0 14 -38t-14 -38q-85 7 -213 7t-212 -7q-14 0 -13.5 38t13.5 38
q97 0 129 28t66 104l377 987q6 17 6 30t-13 26.5t-13 19.5t39.5 27.5t92.5 58.5t65 37q23 0 35 -44q26 -97 49 -166zM831 600q25 0 25 16q0 5 -2 11l-170 532q-6 20 -18 20t-19 -20l-197 -532q-2 -5 -2 -11q0 -16 24 -16h359zM1002 1660q-104 -158 -213 -158q-47 0 -138 33
t-142 33q-61 0 -109 -64q-3 -4 -7 -3q-5 0 -11 6q-9 8 -10 14q0 2 1 4q29 43 50.5 68.5t67.5 53t92 27.5t135.5 -31.5t123.5 -31.5q61 0 133 72q2 2 6 2q5 0 13 -6q9 -8 9 -15q0 -2 -1 -4z" />
    <glyph glyph-name="Adieresis" unicode="&#xc4;" horiz-adv-x="1398" 
d="M1175 186q39 -117 192 -117q13 0 13 -38t-13 -38q-73 7 -231 7t-230 -7q-14 0 -14 38t14 38q99 0 99 68q0 23 -8 49l-101 313q-9 32 -44 32h-407q-28 0 -40 -35l-113 -314q-9 -22 -9 -40q0 -73 151 -73q14 0 14 -38t-14 -38q-85 7 -213 7t-212 -7q-14 0 -13.5 38t13.5 38
q97 0 129 28t66 104l377 987q6 17 6 30t-13 26.5t-13 19.5t39.5 27.5t92.5 58.5t65 37q23 0 35 -44q26 -97 49 -166zM831 600q25 0 25 16q0 5 -2 11l-170 532q-6 20 -18 20t-19 -20l-197 -532q-2 -5 -2 -11q0 -16 24 -16h359zM584 1608q0 -44 -31 -75.5t-75 -31.5
t-75.5 31.5t-31.5 75.5t31.5 75t75.5 31t75 -31t31 -75zM1026 1608q0 -44 -31.5 -75.5t-75.5 -31.5t-75 31.5t-31 75.5t31 75t75 31t75.5 -31t31.5 -75z" />
    <glyph glyph-name="Aring" unicode="&#xc5;" horiz-adv-x="1398" 
d="M1175 186q39 -117 192 -117q13 0 13 -38t-13 -38q-73 7 -231 7t-230 -7q-14 0 -14 38t14 38q99 0 99 68q0 23 -8 49l-101 313q-9 32 -44 32h-407q-28 0 -40 -35l-113 -314q-9 -22 -9 -40q0 -73 151 -73q14 0 14 -38t-14 -38q-80 7 -215 7t-210 -7q-13 0 -13 38t13 38
q85 0 125 25.5t70 106.5l436 1142q-122 42 -122 170q0 86 63 133.5t143 47.5t129 -59t49 -122q0 -117 -111 -164q13 -58 51 -172zM810 1513q0 53 -28 85.5t-71 32.5q-52 0 -77.5 -38.5t-25.5 -79.5q0 -60 31 -89.5t72 -29.5q49 0 74 36t25 83zM831 600q24 0 24 14q0 7 -2 13
l-169 532q-6 20 -18 20t-19 -20l-197 -532q-2 -5 -2 -13q0 -14 24 -14h359z" />
    <glyph glyph-name="AE" unicode="&#xc6;" horiz-adv-x="1742" 
d="M66 172l576 1024q16 28 16 45q0 41 -83 41q-13 0 -13 38t13 38q139 -6 275 -6t330.5 3t332.5 3q47 0 57 -7t10 -26v-319q0 -13 -37.5 -13t-37.5 13q0 132 -83.5 203.5t-178.5 73.5l-269 6q-41 1 -41 -40v-538q0 -35 35 -35h213q101 0 101 93v95q0 13 34.5 13t34.5 -13
q-6 -57 -6 -216.5t6 -211.5q0 -13 -34.5 -13t-34.5 13v84q0 87 -101 87h-213q-35 0 -35 -34v-273q0 -122 51.5 -181t116.5 -57l238 7q89 3 168.5 77t79.5 198q0 18 37.5 18t37.5 -18v-325q0 -26 -100 -26q-104 0 -334 3.5t-364 3.5t-261 -7q-13 0 -13 38t13 38
q170 0 170 108v396q0 34 -33 34h-317q-29 0 -41 -24l-210 -415q-12 -24 -12 -40q0 -59 152 -59q14 0 14 -38t-14 -38q-74 7 -209 7t-216 -7q-13 0 -13 38t13 38q121 -1 179 103zM470 676h270q33 0 33 35v479q1 27 -19 27t-30 -21l-272 -491q-4 -7 -4 -15q0 -14 22 -14z" />
    <glyph glyph-name="Ccedilla" unicode="&#xc7;" horiz-adv-x="1344" 
d="M858 -284q0 -83 -77 -137q-60 -44 -136 -44q-119 0 -119 72q0 53 51 53q23 0 57 -28q37 -31 51 -31q56 0 56 63q0 80 -135 142l113 168q-157 8 -292 85q-151 86 -243.5 237.5t-92.5 350.5q0 223 95.5 387.5t248.5 257.5t377 93q111 0 268 -30l21 -4q126 -24 129 -24
q29 -134 29 -311q-4 -16 -35.5 -16t-33.5 14q-28 300 -407 300q-204 0 -352.5 -184t-148.5 -423q0 -283 145 -471t353 -188q354 0 452 269q4 11 28.5 11t34.5 -8q4 -3 4 -14q-37 -191 -90 -270q-32 -4 -77 -17q-135 -42 -341 -46l-60 -83q127 -78 127 -174z" />
    <glyph glyph-name="Egrave" unicode="&#xc8;" horiz-adv-x="1235" 
d="M779 1545q9 -8 15 -18t6 -21q0 -13 -11.5 -22.5t-25.5 -9.5t-31 9l-281 151q-6 2 -10.5 9.5t-4.5 16.5q0 18 15 40.5t29 30.5t23 8q8 0 15 -5zM271 177v995q0 110 -187 110q-14 0 -14 38t14 38q140 -6 270 -6t350.5 3t312.5 3q51 0 61.5 -7t10.5 -20v-321
q0 -17 -37.5 -17t-37.5 17q0 266 -258 272l-284 7q-41 1 -41 -48v-532q0 -33 28 -33h206q78 0 97.5 29t19.5 88v74q0 13 35 13.5t35 -13.5q-8 -71 -8 -214t8 -223q0 -13 -35 -13.5t-35 13.5v82q0 43 -19.5 69t-97.5 26h-209q-25 0 -25 -31v-314q0 -113 65 -168
q38 -32 91 -32l235 7q259 8 259 271q0 17 37.5 17t37.5 -17v-317q0 -25 -28 -28q-16 -2 -45 -2q-116 0 -355.5 3.5t-368.5 3.5t-275 -7q-14 0 -14 37.5t14 38.5q187 0 187 108z" />
    <glyph glyph-name="Eacute" unicode="&#xc9;" horiz-adv-x="1235" 
d="M853 1640l-297 -157q-18 -9 -32 -9q-12 0 -23.5 8.5t-11.5 21.5q0 10 6.5 21.5t15.5 17.5l271 199q5 4 11 4q9 0 21 -8t23 -23t17.5 -31.5t6.5 -26.5q0 -6 -2 -10.5t-6 -6.5zM271 177v995q0 110 -187 110q-14 0 -14 38t14 38q140 -6 270 -6t350.5 3t312.5 3q51 0 61.5 -7
t10.5 -20v-321q0 -17 -37.5 -17t-37.5 17q0 266 -258 272l-284 7q-41 1 -41 -48v-532q0 -33 28 -33h206q78 0 97.5 29t19.5 88v74q0 13 35 13.5t35 -13.5q-8 -71 -8 -214t8 -223q0 -13 -35 -13.5t-35 13.5v82q0 43 -19.5 69t-97.5 26h-209q-25 0 -25 -31v-314
q0 -113 65 -168q38 -32 91 -32l235 7q259 8 259 271q0 17 37.5 17t37.5 -17v-317q0 -25 -28 -28q-16 -2 -45 -2q-116 0 -355.5 3.5t-368.5 3.5t-275 -7q-14 0 -14 37.5t14 38.5q187 0 187 108z" />
    <glyph glyph-name="Ecircumflex" unicode="&#xca;" horiz-adv-x="1235" 
d="M271 177v995q0 110 -187 110q-14 0 -14 38t14 38q140 -6 270 -6t350.5 3t312.5 3q51 0 61.5 -7t10.5 -20v-321q0 -17 -37.5 -17t-37.5 17q0 266 -258 272l-284 7q-41 1 -41 -48v-532q0 -33 28 -33h206q78 0 97.5 29t19.5 88v74q0 13 35 13.5t35 -13.5q-8 -71 -8 -214
t8 -223q0 -13 -35 -13.5t-35 13.5v82q0 43 -19.5 69t-97.5 26h-209q-25 0 -25 -31v-314q0 -113 65 -168q38 -32 91 -32l235 7q259 8 259 271q0 17 37.5 17t37.5 -17v-317q0 -25 -28 -28q-16 -2 -45 -2q-116 0 -355.5 3.5t-368.5 3.5t-275 -7q-14 0 -14 37.5t14 38.5
q187 0 187 108zM936 1507q3 -3 3.5 -8.5t-7 -14t-15.5 -8.5q-3 0 -5 1l-246 139q-16 9 -34 9t-34 -9l-241 -139q-3 -2 -8 -2q-9 0 -17 8t-8 14t4 10l260 250q23 22 44 22t44 -22z" />
    <glyph glyph-name="Edieresis" unicode="&#xcb;" horiz-adv-x="1235" 
d="M271 177v995q0 110 -187 110q-14 0 -14 38t14 38q140 -6 270 -6t350.5 3t312.5 3q51 0 61.5 -7t10.5 -20v-321q0 -17 -37.5 -17t-37.5 17q0 266 -258 272l-284 7q-41 1 -41 -48v-532q0 -33 28 -33h206q78 0 97.5 29t19.5 88v74q0 13 35 13.5t35 -13.5q-8 -71 -8 -214
t8 -223q0 -13 -35 -13.5t-35 13.5v82q0 43 -19.5 69t-97.5 26h-209q-25 0 -25 -31v-314q0 -113 65 -168q38 -32 91 -32l235 7q259 8 259 271q0 17 37.5 17t37.5 -17v-317q0 -25 -28 -28q-16 -2 -45 -2q-116 0 -355.5 3.5t-368.5 3.5t-275 -7q-14 0 -14 37.5t14 38.5
q187 0 187 108zM512 1608q0 -44 -31 -75.5t-75 -31.5t-75.5 31.5t-31.5 75.5t31.5 75t75.5 31t75 -31t31 -75zM954 1608q0 -44 -31.5 -75.5t-75.5 -31.5t-75 31.5t-31 75.5t31 75t75 31t75.5 -31t31.5 -75z" />
    <glyph glyph-name="Igrave" unicode="&#xcc;" horiz-adv-x="683" 
d="M455 1545q9 -8 15 -18t6 -21q0 -13 -11.5 -22.5t-25.5 -9.5t-31 9l-281 151q-6 2 -10.5 9.5t-4.5 16.5q0 18 15.5 40.5t29 30.5t23.5 8q8 0 14 -5zM271 186v986q0 115 -189 115q-14 0 -14 38t14 38q44 -5 264 -5t265 5q13 0 13 -38t-13 -38q-105 0 -142.5 -25t-37.5 -90
v-986q0 -117 180 -117q13 0 13 -38t-13 -38q-86 7 -259 7t-259 -7q-13 0 -13 38t13 38q178 0 178 117z" />
    <glyph glyph-name="Iacute" unicode="&#xcd;" horiz-adv-x="683" 
d="M621 1640l-298 -157q-18 -9 -32 -9q-12 0 -23.5 8.5t-11.5 21.5q0 10 6.5 21.5t15.5 17.5l271 199q5 4 12 4q9 0 20.5 -8t23 -23t18 -31.5t6.5 -26.5q0 -6 -2 -10.5t-6 -6.5zM271 186v986q0 115 -189 115q-14 0 -14 38t14 38q44 -5 264 -5t265 5q13 0 13 -38t-13 -38
q-105 0 -142.5 -25t-37.5 -90v-986q0 -117 180 -117q13 0 13 -38t-13 -38q-86 7 -259 7t-259 -7q-13 0 -13 38t13 38q178 0 178 117z" />
    <glyph glyph-name="Icircumflex" unicode="&#xce;" horiz-adv-x="683" 
d="M271 186v986q0 115 -189 115q-14 0 -14 38t14 38q44 -5 264 -5t265 5q13 0 13 -38t-13 -38q-105 0 -142.5 -25t-37.5 -90v-986q0 -117 180 -117q13 0 13 -38t-13 -38q-86 7 -259 7t-259 -7q-13 0 -13 38t13 38q178 0 178 117zM646 1507q3 -3 3.5 -8.5t-7 -14t-15.5 -8.5
q-3 0 -5 1l-246 139q-16 9 -34 9t-34 -9l-241 -139q-3 -2 -8 -2q-9 0 -17 8t-8 14t4 10l260 250q23 22 44 22t44 -22z" />
    <glyph glyph-name="Idieresis" unicode="&#xcf;" horiz-adv-x="683" 
d="M271 186v986q0 115 -189 115q-14 0 -14 38t14 38q44 -5 264 -5t265 5q13 0 13 -38t-13 -38q-105 0 -142.5 -25t-37.5 -90v-986q0 -117 180 -117q13 0 13 -38t-13 -38q-86 7 -259 7t-259 -7q-13 0 -13 38t13 38q178 0 178 117zM232 1608q0 -44 -31 -75.5t-75 -31.5
t-75.5 31.5t-31.5 75.5t31.5 75t75.5 31t75 -31t31 -75zM674 1608q0 -44 -31.5 -75.5t-75.5 -31.5t-75 31.5t-31 75.5t31 75t75 31t75.5 -31t31.5 -75z" />
    <glyph glyph-name="Eth" unicode="&#xd0;" horiz-adv-x="1525" 
d="M271 186v414q0 34 -34 34h-172q-13 0 -13 38t13 38h172q34 0 34 35v427q0 110 -189 110q-14 0 -14 38t14 38q140 -6 238 -6t204.5 3t178.5 3q303 0 516 -164t213 -465q0 -349 -193.5 -542.5t-487.5 -193.5q-68 0 -200.5 3.5t-231.5 3.5t-228 -7q-13 0 -13 38t13 38
q180 0 180 117zM431 298q0 -142 52 -193.5t199 -51.5q243 0 401 178t158 485q0 240 -170 410.5t-450 170.5q-120 0 -155 -23.5t-35 -92.5v-436q0 -35 35 -35h221q13 0 13 -38t-13 -38h-221q-35 0 -35 -34v-302z" />
    <glyph glyph-name="Ntilde" unicode="&#xd1;" horiz-adv-x="1482" 
d="M257 186v924q0 101 -45.5 139t-142.5 38q-13 0 -13 38t13 38q44 -5 149 -5t137 -7.5t59 -41.5l758 -977q10 -13 24 -13q23 0 23 33v819q0 116 -171 116q-14 0 -14 38t14 38q46 -5 188 -5t187 5q13 0 13 -38t-13 -38q-136 0 -136 -116v-1142q1 -50 -17 -50t-42 30
l-867 1095q-11 13 -22 13t-11 -18v-913q0 -117 159 -117q13 0 13 -38t-13 -38q-81 7 -197 7t-200 -7q-14 0 -14 38t14 38q167 0 167 117zM1056 1660q-104 -158 -213 -158q-47 0 -138 33t-142 33q-61 0 -109 -64q-3 -4 -7 -3q-5 0 -11 6q-9 8 -10 14q0 2 1 4q29 43 50.5 68.5
t67.5 53t92 27.5t135.5 -31.5t123.5 -31.5q61 0 133 72q2 2 6 2q5 0 13 -6q9 -8 9 -15q0 -2 -1 -4z" />
    <glyph glyph-name="Ograve" unicode="&#xd2;" horiz-adv-x="1461" 
d="M803 1545q9 -8 15 -18t6 -21q0 -13 -12 -22.5t-25.5 -9.5t-31.5 9l-281 151q-6 2 -10 9.5t-4 16.5q0 18 15 40.5t29 30.5t23 8q8 0 15 -5zM91 667q0 263 176 490.5t473 227.5q266 0 454.5 -208t188.5 -514q0 -256 -174 -473t-474 -217q-290 0 -467 205t-177 489zM282 726
q0 -310 150 -494t317 -184q212 0 327.5 173t115.5 426q0 279 -145.5 473t-319.5 194q-210 0 -327.5 -181t-117.5 -407z" />
    <glyph glyph-name="Oacute" unicode="&#xd3;" horiz-adv-x="1461" 
d="M947 1640l-297 -157q-18 -9 -32 -9q-12 0 -24 8.5t-12 21.5q0 10 6.5 21.5t16.5 17.5l270 199q5 4 12 4q9 0 21 -8t23 -23t17.5 -31.5t6.5 -26.5q0 -6 -2 -10.5t-6 -6.5zM91 667q0 263 176 490.5t473 227.5q266 0 454.5 -208t188.5 -514q0 -256 -174 -473t-474 -217
q-290 0 -467 205t-177 489zM282 726q0 -310 150 -494t317 -184q212 0 327.5 173t115.5 426q0 279 -145.5 473t-319.5 194q-210 0 -327.5 -181t-117.5 -407z" />
    <glyph glyph-name="Ocircumflex" unicode="&#xd4;" horiz-adv-x="1461" 
d="M91 667q0 263 176 490.5t473 227.5q266 0 454.5 -208t188.5 -514q0 -256 -174 -473t-474 -217q-290 0 -467 205t-177 489zM282 726q0 -310 150 -494t317 -184q212 0 327.5 173t115.5 426q0 279 -145.5 473t-319.5 194q-210 0 -327.5 -181t-117.5 -407zM1041 1507
q3 -3 3.5 -8.5t-7 -14t-15.5 -8.5q-3 0 -5 1l-246 139q-16 9 -34 9t-34 -9l-241 -139q-3 -2 -8 -2q-9 0 -17 8t-8 14t4 10l260 250q23 22 44 22t44 -22z" />
    <glyph glyph-name="Otilde" unicode="&#xd5;" horiz-adv-x="1461" 
d="M91 667q0 263 176 490.5t473 227.5q266 0 454.5 -208t188.5 -514q0 -256 -174 -473t-474 -217q-290 0 -467 205t-177 489zM282 726q0 -310 150 -494t317 -184q212 0 327.5 173t115.5 426q0 279 -145.5 473t-319.5 194q-210 0 -327.5 -181t-117.5 -407zM1026 1660
q-104 -158 -213 -158q-47 0 -138 33t-142 33q-61 0 -109 -64q-3 -4 -7 -3q-5 0 -11 6q-9 8 -10 14q0 2 1 4q29 43 50.5 68.5t67.5 53t92 27.5t135.5 -31.5t123.5 -31.5q61 0 133 72q2 2 6 2q5 0 13 -6q9 -8 9 -15q0 -2 -1 -4z" />
    <glyph glyph-name="Odieresis" unicode="&#xd6;" horiz-adv-x="1461" 
d="M91 667q0 263 176 490.5t473 227.5q266 0 454.5 -208t188.5 -514q0 -256 -174 -473t-474 -217q-290 0 -467 205t-177 489zM282 726q0 -310 150 -494t317 -184q212 0 327.5 173t115.5 426q0 279 -145.5 473t-319.5 194q-210 0 -327.5 -181t-117.5 -407zM627 1608
q0 -44 -31.5 -75.5t-75.5 -31.5t-75 31.5t-31 75.5t31 75t75 31t75.5 -31t31.5 -75zM1069 1608q0 -44 -31.5 -75.5t-75.5 -31.5t-75 31.5t-31 75.5t31 75t75 31t75.5 -31t31.5 -75z" />
    <glyph glyph-name="multiply" unicode="&#xd7;" horiz-adv-x="786" 
d="M725 98l-84 -86l-244 244l-241 -244l-86 86l241 244l-241 242l86 86l241 -244l244 244l84 -86l-242 -242z" />
    <glyph glyph-name="Oslash" unicode="&#xd8;" horiz-adv-x="1461" 
d="M1383 663q0 -256 -174 -473t-474 -217q-240 0 -403 140l-100 -119q-3 -3 -7 -3q-12 0 -36 23t-24 32q0 3 1 4l105 125q-1 2 -3 3q-177 205 -177 489q0 263 176 490.5t473 227.5q235 0 410 -163l86 103q4 4 10 4q12 0 35.5 -19t23.5 -33q0 -4 -2 -8l-93 -110
q173 -203 173 -496zM1055 1109q-148 205 -328 205q-210 0 -327.5 -181t-117.5 -407q0 -252 99 -420zM1103 1031l-671 -799q150 -184 317 -184q212 0 327.5 173t115.5 426q0 218 -89 384z" />
    <glyph glyph-name="Ugrave" unicode="&#xd9;" horiz-adv-x="1497" 
d="M903 1545q9 -8 15 -18t6 -21q0 -13 -11.5 -22.5t-25.5 -9.5t-31 9l-281 151q-6 2 -10.5 9.5t-4.5 16.5q0 18 15.5 40.5t29 30.5t23.5 8q8 0 14 -5zM256 539v633q0 115 -185 115q-13 0 -13 38t13 38q44 -5 276 -5t278 5q13 0 13 -38t-13 -38q-206 0 -206 -115v-631
q0 -301 104.5 -397t259.5 -96q193 0 294.5 100.5t101.5 338.5v685q0 115 -188 115q-13 0 -13 38t13 38q45 -5 239 -5t239 5q13 0 13 -38t-13 -38q-180 0 -180 -115v-443q0 -352 -52.5 -475.5t-166 -202t-312.5 -78.5q-191 0 -300.5 62.5t-155.5 188t-46 315.5z" />
    <glyph glyph-name="Uacute" unicode="&#xda;" horiz-adv-x="1497" 
d="M1024 1640l-297 -157q-18 -9 -32 -9q-12 0 -24 8.5t-12 21.5q0 10 6.5 21.5t16.5 17.5l270 199q5 4 12 4q9 0 21 -8t23 -23t17.5 -31.5t6.5 -26.5q0 -6 -2 -10.5t-6 -6.5zM256 539v633q0 115 -185 115q-13 0 -13 38t13 38q44 -5 276 -5t278 5q13 0 13 -38t-13 -38
q-206 0 -206 -115v-631q0 -301 104.5 -397t259.5 -96q193 0 294.5 100.5t101.5 338.5v685q0 115 -188 115q-13 0 -13 38t13 38q45 -5 239 -5t239 5q13 0 13 -38t-13 -38q-180 0 -180 -115v-443q0 -352 -52.5 -475.5t-166 -202t-312.5 -78.5q-191 0 -300.5 62.5t-155.5 188
t-46 315.5z" />
    <glyph glyph-name="Ucircumflex" unicode="&#xdb;" horiz-adv-x="1497" 
d="M256 539v633q0 115 -185 115q-13 0 -13 38t13 38q44 -5 276 -5t278 5q13 0 13 -38t-13 -38q-206 0 -206 -115v-631q0 -301 104.5 -397t259.5 -96q193 0 294.5 100.5t101.5 338.5v685q0 115 -188 115q-13 0 -13 38t13 38q45 -5 239 -5t239 5q13 0 13 -38t-13 -38
q-180 0 -180 -115v-443q0 -352 -52.5 -475.5t-166 -202t-312.5 -78.5q-191 0 -300.5 62.5t-155.5 188t-46 315.5zM1076 1507q3 -3 3.5 -8.5t-7 -14t-15.5 -8.5q-3 0 -5 1l-246 139q-16 9 -34 9t-34 -9l-241 -139q-3 -2 -8 -2q-9 0 -17 8t-8 14t4 10l260 250q23 22 44 22
t44 -22z" />
    <glyph glyph-name="Udieresis" unicode="&#xdc;" horiz-adv-x="1497" 
d="M256 539v633q0 115 -185 115q-13 0 -13 38t13 38q44 -5 276 -5t278 5q13 0 13 -38t-13 -38q-206 0 -206 -115v-631q0 -301 104.5 -397t259.5 -96q193 0 294.5 100.5t101.5 338.5v685q0 115 -188 115q-13 0 -13 38t13 38q45 -5 239 -5t239 5q13 0 13 -38t-13 -38
q-180 0 -180 -115v-443q0 -352 -52.5 -475.5t-166 -202t-312.5 -78.5q-191 0 -300.5 62.5t-155.5 188t-46 315.5zM684 1608q0 -44 -31 -75.5t-75 -31.5t-75.5 31.5t-31.5 75.5t31.5 75t75.5 31t75 -31t31 -75zM1126 1608q0 -44 -31.5 -75.5t-75.5 -31.5t-75 31.5t-31 75.5
t31 75t75 31t75.5 -31t31.5 -75z" />
    <glyph glyph-name="Yacute" unicode="&#xdd;" horiz-adv-x="1235" 
d="M908 1640l-297 -157q-18 -9 -32 -9q-12 0 -23.5 8.5t-11.5 21.5q0 10 6.5 21.5t15.5 17.5l271 199q5 4 11 4q9 0 21 -8t23 -23t17.5 -31.5t6.5 -26.5q0 -6 -2 -10.5t-6 -6.5zM175 1172q-70 115 -188 115q-13 0 -13 38t13 38q45 -5 237 -5t239 5q13 0 13 -38t-13 -38
q-121 0 -121 -57q0 -23 21 -58l281 -472q8 -14 16 -14q7 0 16 14l298 463q27 42 27 71q0 53 -111 53q-14 0 -14 38t14 38q46 -5 198 -5t197 5q13 0 13 -38t-13 -38q-139 1 -211 -109l-308 -473q-65 -100 -71 -129.5t-6 -86.5v-303q0 -117 164 -117q13 0 13 -38t-13 -38
q-75 7 -244 7t-244 -7q-13 0 -13 38t13 38q164 0 164 117v301q0 101 -28 147z" />
    <glyph glyph-name="Thorn" unicode="&#xde;" horiz-adv-x="1157" 
d="M1070 741q0 -258 -183.5 -487t-467.5 -271q-38 -6 -39 -45v-213q0 -58 -86 -124l-150 -117q-5 -4 -14 -4q-31 0 -54.5 30.5t-23.5 45t7 20.5l109 90q52 43 52 101v1339q0 135 -176 135q-13 0 -13.5 38t13.5 38q99 0 275 61q25 7 38 7q31 0 31 -40q-8 -88 -8 -157v-51
q0 -31 15 -31q9 0 24 10q68 46 111 80.5t97.5 82.5t116.5 48t87 -20q118 -92 178.5 -245.5t60.5 -320.5zM879 741q0 121 -70.5 295.5t-145.5 174.5q-18 0 -36 -15q-107 -95 -145.5 -122t-70 -44.5t-31.5 -45.5v-894q0 -31 27 -32q208 0 340 215.5t132 467.5z" />
    <glyph glyph-name="germandbls" unicode="&#xdf;" horiz-adv-x="1085" 
d="M203 125v567q0 21 -25 21h-86q-15 0 -15 27.5t15 27.5q59 0 91 66q20 41 20 90q0 254 141 408.5t330 154.5q127 0 209 -83.5t82 -203.5q0 -126 -151.5 -259t-151.5 -214q0 -49 25.5 -86t132.5 -91t156.5 -118t49.5 -166q0 -138 -87 -214.5t-204 -76.5q-77 0 -166 60
q-16 57 -16 162q0 14 20.5 14t26.5 -14q0 -66 51.5 -112t110.5 -46t103 52.5t44 103.5q0 133 -122.5 199t-181 127t-58.5 157t63 158l99 96q72 70 91 128.5t19 125.5q0 103 -60.5 161t-154.5 58q-112 0 -172 -71.5t-69 -172.5t-9 -260v-774q0 -78 125 -78q14 0 14 -28.5
t-14 -28.5q-80 8 -196 8t-197 -8q-14 0 -14 28.5t14 28.5q117 0 117 76z" />
    <glyph glyph-name="agrave" unicode="&#xe0;" horiz-adv-x="797" 
d="M74 0zM465 1081q4 -11 4 -20q0 -39 -35 -39q-23 0 -41 29l-168 271q-4 5 -4 13q0 26 40 45q22 11 41 11q24 0 31 -16zM481 199v215q0 22 -14 22q-7 0 -60 -26q-170 -85 -170 -222q0 -49 31.5 -79.5t87.5 -30.5q40 0 82.5 42.5t42.5 78.5zM780 123q22 -3 29 -30
q0 -3 -1 -5q-41 -69 -76 -90t-92 -21q-105 0 -142 136q-76 -76 -121 -106t-132 -30q-56 0 -93 31t-52.5 71.5t-15.5 82.5t20 82.5t58.5 73t66.5 47.5l232 129q20 11 20 32v181q0 88 -133 88q-97 0 -135 -50q-5 -7 -15 -93q-12 -99 -69 -99q-55 0 -55 56t40.5 112.5
t69.5 73.5q128 75 246 75q71 0 137.5 -40t66.5 -99v-532q0 -115 67 -115q19 0 72 37q3 2 7 2z" />
    <glyph glyph-name="aacute" unicode="&#xe1;" horiz-adv-x="797" 
d="M74 0zM599 1336l-179 -285q-18 -29 -41 -29q-33 0 -33 37q0 12 5 22l135 307q6 13 25 13q34 0 70 -29q20 -16 20 -29q0 -3 -2 -7zM481 199v215q0 22 -14 22q-7 0 -60 -26q-170 -85 -170 -222q0 -49 31.5 -79.5t87.5 -30.5q40 0 82.5 42.5t42.5 78.5zM780 123
q22 -3 29 -30q0 -3 -1 -5q-41 -69 -76 -90t-92 -21q-105 0 -142 136q-76 -76 -121 -106t-132 -30q-56 0 -93 31t-52.5 71.5t-15.5 82.5t20 82.5t58.5 73t66.5 47.5l232 129q20 11 20 32v181q0 88 -133 88q-97 0 -135 -50q-5 -7 -15 -93q-12 -99 -69 -99q-55 0 -55 56
t40.5 112.5t69.5 73.5q128 75 246 75q71 0 137.5 -40t66.5 -99v-532q0 -115 67 -115q19 0 72 37q3 2 7 2z" />
    <glyph glyph-name="acircumflex" unicode="&#xe2;" horiz-adv-x="797" 
d="M74 0zM641 1015q0 -23 -29 -23q-3 0 -6 4l-184 217q-22 25 -30 25t-29 -25l-185 -217q-3 -4 -8 -4q-27 0 -27 23l211 375q16 28 38 28t38 -28zM481 199v215q0 22 -14 22q-7 0 -60 -26q-170 -85 -170 -222q0 -49 31.5 -79.5t87.5 -30.5q40 0 82.5 42.5t42.5 78.5zM780 123
q22 -3 29 -30q0 -3 -1 -5q-41 -69 -76 -90t-92 -21q-105 0 -142 136q-76 -76 -121 -106t-132 -30q-56 0 -93 31t-52.5 71.5t-15.5 82.5t20 82.5t58.5 73t66.5 47.5l232 129q20 11 20 32v181q0 88 -133 88q-97 0 -135 -50q-5 -7 -15 -93q-12 -99 -69 -99q-55 0 -55 56
t40.5 112.5t69.5 73.5q128 75 246 75q71 0 137.5 -40t66.5 -99v-532q0 -115 67 -115q19 0 72 37q3 2 7 2z" />
    <glyph glyph-name="atilde" unicode="&#xe3;" horiz-adv-x="797" 
d="M74 0zM468 1050q-49 0 -137 34q-76 29 -117 29q-54 0 -115 -61q-4 -4 -8 -4t-8 4q-9 11 -9 16q0 1 1 2q92 143 201 143q44 0 137 -33q72 -26 106 -26q57 0 125 68q1 1 3 1q5 0 15 -8q10 -9 10 -20q0 -4 -1 -8q-14 -41 -87 -90q-71 -47 -116 -47zM481 199v215q0 22 -14 22
q-7 0 -60 -26q-170 -85 -170 -222q0 -49 31.5 -79.5t87.5 -30.5q40 0 82.5 42.5t42.5 78.5zM780 123q22 -3 29 -30q0 -3 -1 -5q-41 -69 -76 -90t-92 -21q-105 0 -142 136q-76 -76 -121 -106t-132 -30q-56 0 -93 31t-52.5 71.5t-15.5 82.5t20 82.5t58.5 73t66.5 47.5l232 129
q20 11 20 32v181q0 88 -133 88q-97 0 -135 -50q-5 -7 -15 -93q-12 -99 -69 -99q-55 0 -55 56t40.5 112.5t69.5 73.5q128 75 246 75q71 0 137.5 -40t66.5 -99v-532q0 -115 67 -115q19 0 72 37q3 2 7 2z" />
    <glyph glyph-name="adieresis" unicode="&#xe4;" horiz-adv-x="797" 
d="M74 0zM310 1156q0 -45 -31.5 -76.5t-76.5 -31.5t-76.5 31.5t-31.5 76.5t31.5 76.5t76.5 31.5t76.5 -31.5t31.5 -76.5zM691 1156q0 -45 -31.5 -76.5t-76 -31.5t-76 31.5t-31.5 76.5t31.5 76.5t76 31.5t76 -31.5t31.5 -76.5zM481 199v215q0 22 -14 22q-7 0 -60 -26
q-170 -85 -170 -222q0 -49 31.5 -79.5t87.5 -30.5q40 0 82.5 42.5t42.5 78.5zM780 123q22 -3 29 -30q0 -3 -1 -5q-41 -69 -76 -90t-92 -21q-105 0 -142 136q-76 -76 -121 -106t-132 -30q-56 0 -93 31t-52.5 71.5t-15.5 82.5t20 82.5t58.5 73t66.5 47.5l232 129q20 11 20 32
v181q0 88 -133 88q-97 0 -135 -50q-5 -7 -15 -93q-12 -99 -69 -99q-55 0 -55 56t40.5 112.5t69.5 73.5q128 75 246 75q71 0 137.5 -40t66.5 -99v-532q0 -115 67 -115q19 0 72 37q3 2 7 2z" />
    <glyph glyph-name="aring" unicode="&#xe5;" horiz-adv-x="797" 
d="M74 0zM481 199v215q0 22 -14 22q-7 0 -60 -26q-170 -85 -170 -222q0 -49 31.5 -79.5t87.5 -30.5q40 0 82.5 42.5t42.5 78.5zM780 123q22 -3 29 -30q0 -3 -1 -5q-41 -69 -76 -90t-92 -21q-105 0 -142 136q-76 -76 -121 -106t-132 -30q-56 0 -93 31t-52.5 71.5t-15.5 82.5
t20 82.5t58.5 73t66.5 47.5l232 129q20 11 20 32v181q0 88 -133 88q-97 0 -135 -50q-5 -7 -15 -93q-12 -99 -69 -99q-55 0 -55 56t40.5 112.5t69.5 73.5q128 75 246 75q71 0 137.5 -40t66.5 -99v-532q0 -115 67 -115q19 0 72 37q3 2 7 2zM591 1165q0 -91 -72 -149
q-57 -46 -132 -46q-105 0 -163 75q-39 50 -42 120q0 96 77 153q55 41 128 41q94 0 154 -66q50 -61 50 -128zM495 1165q0 74 -49 109q-26 18 -59 18q-59 0 -90 -55q-19 -33 -19 -72q0 -71 48 -107q27 -20 61 -20q64 0 94 61q14 29 14 66z" />
    <glyph glyph-name="ae" unicode="&#xe6;" horiz-adv-x="1145" 
d="M66 160q0 110 61 165t200.5 114t139.5 98v112q0 144 -135 144q-106 0 -137 -52q-12 -97 -30 -146q-16 -42 -59 -42q-61 0 -61 53q0 103 119.5 183.5t231.5 80.5t173 -84q13 -18 20 -18t34 23q99 79 213 79t187 -42t73 -99q0 -34 -35 -51l-416 -172q-35 -14 -35 -104
q0 -104 75 -206t175 -102q116 0 209 76q11 11 26 0t15 -20.5t-4 -16.5q-112 -156 -330 -156q-148 0 -239 142q-14 18 -18 18t-17 -16q-105 -131 -219 -131q-217 0 -217 170zM628 593q0 -22 29 -11l269 108q32 12 32 41t-46.5 53.5t-80.5 24.5q-70 0 -120.5 -53.5
t-73.5 -122.5q-9 -25 -9 -40zM219 180q0 -106 115 -106q49 0 103.5 59t54.5 86q-7 33 -27 170q-5 35 -21 35q-8 0 -22 -6q-203 -90 -203 -238z" />
    <glyph glyph-name="ccedilla" unicode="&#xe7;" horiz-adv-x="817" 
d="M743 152q11 5 24.5 -15.5t13.5 -28.5q0 -6 -5 -11q-26 -23 -107 -72q-77 -45 -207 -48l-54 -75q127 -78 127 -174q0 -83 -77 -137q-60 -44 -136 -44q-119 0 -119 72q0 53 51 53q23 0 57 -28q37 -31 51 -31q56 0 56 63q0 80 -135 142l110 163q-115 18 -201 113
q-106 117 -106 302t122 329.5t315 144.5q196 0 233 -73q6 -12 6 -41q0 -19 -22 -46.5t-39 -27.5t-27 14q-78 107 -173 107t-173.5 -102t-78.5 -260.5t89.5 -254.5t191.5 -96q77 0 213 62z" />
    <glyph glyph-name="egrave" unicode="&#xe8;" horiz-adv-x="838" 
d="M85 0zM534 1081q4 -11 4 -20q0 -39 -35 -39q-23 0 -41 29l-168 271q-4 5 -4 13q0 26 40 45q22 11 41 11q24 0 31 -16zM85 431q0 178 113.5 308.5t254.5 130.5t228 -98t87 -160t-51 -63h-449q-30 0 -30 -66q0 -160 76.5 -274.5t211.5 -114.5q101 0 201 60q5 3 11 3
q12 0 21 -11q7 -7 7 -21q0 -5 -4 -8q-158 -140 -311 -140t-259.5 138t-106.5 316zM261 630q0 -14 24 -14h321q15 0 15 17q0 44 -54.5 111t-113.5 67q-65 0 -112.5 -43.5t-76.5 -122.5q-3 -8 -3 -15z" />
    <glyph glyph-name="eacute" unicode="&#xe9;" horiz-adv-x="838" 
d="M85 0zM606 1336l-179 -285q-18 -29 -41 -29q-33 0 -33 37q0 12 5 22l135 307q6 13 25 13q34 0 70 -29q20 -16 20 -29q0 -3 -2 -7zM85 431q0 178 113.5 308.5t254.5 130.5t228 -98t87 -160t-51 -63h-449q-30 0 -30 -66q0 -160 76.5 -274.5t211.5 -114.5q101 0 201 60
q5 3 11 3q12 0 21 -11q7 -7 7 -21q0 -5 -4 -8q-158 -140 -311 -140t-259.5 138t-106.5 316zM261 630q0 -14 24 -14h321q15 0 15 17q0 44 -54.5 111t-113.5 67q-65 0 -112.5 -43.5t-76.5 -122.5q-3 -8 -3 -15z" />
    <glyph glyph-name="ecircumflex" unicode="&#xea;" horiz-adv-x="838" 
d="M85 0zM704 1015q0 -23 -29 -23q-3 0 -6 4l-184 217q-22 25 -30 25t-29 -25l-185 -217q-3 -4 -8 -4q-27 0 -27 23l211 375q16 28 38 28t38 -28zM85 431q0 178 113.5 308.5t254.5 130.5t228 -98t87 -160t-51 -63h-449q-30 0 -30 -66q0 -160 76.5 -274.5t211.5 -114.5
q101 0 201 60q5 3 11 3q12 0 21 -11q7 -7 7 -21q0 -5 -4 -8q-158 -140 -311 -140t-259.5 138t-106.5 316zM261 630q0 -14 24 -14h321q15 0 15 17q0 44 -54.5 111t-113.5 67q-65 0 -112.5 -43.5t-76.5 -122.5q-3 -8 -3 -15z" />
    </font>
</defs>
</svg>
